{"accessors":[{"bufferView":0,"componentType":5126,"count":658,"min":[14.82744026184082,271.12225341796877,221.726806640625],"max":[59.511653900146487,450.9117431640625,319.6039123535156],"type":"VEC3","name":"Mesh.002_vertices#0_POSITION"},{"bufferView":0,"byteOffset":12,"componentType":5120,"count":658,"type":"VEC4","name":"Mesh.002_vertices#0_TANGENT"},{"bufferView":0,"byteOffset":16,"componentType":5120,"count":658,"type":"VEC4","name":"Mesh.002_vertices#0_NORMAL"},{"bufferView":0,"byteOffset":20,"componentType":5122,"count":658,"type":"VEC2","name":"Mesh.002_vertices#0_TEXCOORD_0"},{"bufferView":0,"byteOffset":24,"componentType":5122,"count":658,"type":"VEC2","name":"Mesh.002_vertices#0_TEXCOORD_1"},{"bufferView":0,"byteOffset":28,"componentType":5123,"count":658,"type":"VEC4","name":"Mesh.002_vertices#0_COLOR_0"},{"bufferView":1,"componentType":5123,"count":2976,"type":"SCALAR","name":"Mesh.002_indices#0"},{"bufferView":0,"byteOffset":23688,"componentType":5126,"count":952,"min":[-173.4615478515625,207.29115295410157,219.95721435546876],"max":[210.62075805664063,300.3592529296875,310.1566467285156],"type":"VEC3","name":"Mesh.003_vertices#0_POSITION"},{"bufferView":0,"byteOffset":23700,"componentType":5120,"count":952,"type":"VEC4","name":"Mesh.003_vertices#0_TANGENT"},{"bufferView":0,"byteOffset":23704,"componentType":5120,"count":952,"type":"VEC4","name":"Mesh.003_vertices#0_NORMAL"},{"bufferView":0,"byteOffset":23708,"componentType":5122,"count":952,"type":"VEC2","name":"Mesh.003_vertices#0_TEXCOORD_0"},{"bufferView":0,"byteOffset":23712,"componentType":5122,"count":952,"type":"VEC2","name":"Mesh.003_vertices#0_TEXCOORD_1"},{"bufferView":0,"byteOffset":23716,"componentType":5123,"count":952,"type":"VEC4","name":"Mesh.003_vertices#0_COLOR_0"},{"bufferView":1,"byteOffset":5952,"componentType":5123,"count":4416,"type":"SCALAR","name":"Mesh.003_indices#0"},{"bufferView":0,"byteOffset":57960,"componentType":5126,"count":584,"min":[-120.68124389648438,119.37188720703125,-463.8363952636719],"max":[102.44409942626953,160.40113830566407,-379.10504150390627],"type":"VEC3","name":"Mesh.004_vertices#0_POSITION"},{"bufferView":0,"byteOffset":57972,"componentType":5120,"count":584,"type":"VEC4","name":"Mesh.004_vertices#0_TANGENT"},{"bufferView":0,"byteOffset":57976,"componentType":5120,"count":584,"type":"VEC4","name":"Mesh.004_vertices#0_NORMAL"},{"bufferView":0,"byteOffset":57980,"componentType":5122,"count":584,"type":"VEC2","name":"Mesh.004_vertices#0_TEXCOORD_0"},{"bufferView":0,"byteOffset":57984,"componentType":5122,"count":584,"type":"VEC2","name":"Mesh.004_vertices#0_TEXCOORD_1"},{"bufferView":0,"byteOffset":57988,"componentType":5123,"count":584,"type":"VEC4","name":"Mesh.004_vertices#0_COLOR_0"},{"bufferView":1,"byteOffset":14784,"componentType":5123,"count":1920,"type":"SCALAR","name":"Mesh.004_indices#0"},{"bufferView":0,"byteOffset":78984,"componentType":5126,"count":2626,"min":[-63.35212326049805,70.8675537109375,-426.8216247558594],"max":[63.35212326049805,177.24143981933595,-314.03155517578127],"type":"VEC3","name":"Mesh.005_vertices#0_POSITION"},{"bufferView":0,"byteOffset":78996,"componentType":5120,"count":2626,"type":"VEC4","name":"Mesh.005_vertices#0_TANGENT"},{"bufferView":0,"byteOffset":79000,"componentType":5120,"count":2626,"type":"VEC4","name":"Mesh.005_vertices#0_NORMAL"},{"bufferView":0,"byteOffset":79004,"componentType":5122,"count":2626,"type":"VEC2","name":"Mesh.005_vertices#0_TEXCOORD_0"},{"bufferView":0,"byteOffset":79008,"componentType":5122,"count":2626,"type":"VEC2","name":"Mesh.005_vertices#0_TEXCOORD_1"},{"bufferView":0,"byteOffset":79012,"componentType":5123,"count":2626,"type":"VEC4","name":"Mesh.005_vertices#0_COLOR_0"},{"bufferView":1,"byteOffset":18624,"componentType":5123,"count":11673,"type":"SCALAR","name":"Mesh.005_indices#0"},{"bufferView":0,"byteOffset":173520,"componentType":5126,"count":16708,"min":[-635.2756958007813,54.164188385009769,-441.9673156738281],"max":[617.334716796875,408.571044921875,365.6798095703125],"type":"VEC3","name":"Mesh.006_vertices#0_POSITION"},{"bufferView":0,"byteOffset":173532,"componentType":5120,"count":16708,"type":"VEC4","name":"Mesh.006_vertices#0_TANGENT"},{"bufferView":0,"byteOffset":173536,"componentType":5120,"count":16708,"type":"VEC4","name":"Mesh.006_vertices#0_NORMAL"},{"bufferView":0,"byteOffset":173540,"componentType":5122,"count":16708,"type":"VEC2","name":"Mesh.006_vertices#0_TEXCOORD_0"},{"bufferView":0,"byteOffset":173544,"componentType":5122,"count":16708,"type":"VEC2","name":"Mesh.006_vertices#0_TEXCOORD_1"},{"bufferView":0,"byteOffset":173548,"componentType":5123,"count":16708,"type":"VEC4","name":"Mesh.006_vertices#0_COLOR_0"},{"bufferView":1,"byteOffset":41970,"componentType":5123,"count":66375,"type":"SCALAR","name":"Mesh.006_indices#5"},{"bufferView":0,"byteOffset":775008,"componentType":5126,"count":63,"min":[-286.0017395019531,75.62405395507813,-259.1081237792969],"max":[-61.023170471191409,223.59555053710938,-209.7477264404297],"type":"VEC3","name":"Mesh.007_vertices#0_POSITION"},{"bufferView":0,"byteOffset":775020,"componentType":5120,"count":63,"type":"VEC4","name":"Mesh.007_vertices#0_TANGENT"},{"bufferView":0,"byteOffset":775024,"componentType":5120,"count":63,"type":"VEC4","name":"Mesh.007_vertices#0_NORMAL"},{"bufferView":0,"byteOffset":775028,"componentType":5122,"count":63,"type":"VEC2","name":"Mesh.007_vertices#0_TEXCOORD_0"},{"bufferView":0,"byteOffset":775032,"componentType":5122,"count":63,"type":"VEC2","name":"Mesh.007_vertices#0_TEXCOORD_1"},{"bufferView":0,"byteOffset":775036,"componentType":5123,"count":63,"type":"VEC4","name":"Mesh.007_vertices#0_COLOR_0"},{"bufferView":1,"byteOffset":174720,"componentType":5123,"count":252,"type":"SCALAR","name":"Mesh.007_indices#0"}],"asset":{"generator":"Extended Khronos glTF Blender I/O v1.0.0","version":"2.0","extensions":{"ASOBO_asset_optimized":{"BoundingBoxMax":[617.334716796875,450.9117431640625,365.6798095703125],"BoundingBoxMin":[-635.2756958007813,54.164188385009769,-463.8363952636719],"MajorVersion":4,"MinorVersion":2},"ASOBO_normal_map_convention":{"tangent_space_convention":"DirectX"}}},"bufferViews":[{"buffer":0,"byteLength":777276,"byteStride":36,"target":34962,"name":"BufferViewVertexND"},{"buffer":0,"byteLength":175224,"byteOffset":777276,"target":34963,"name":"BufferViewIndex"}],"extensionsUsed":["ASOBO_normal_map_convention","MSFT_texture_dds","ASOBO_asset_optimized"],"extensionsRequired":["MSFT_texture_dds"],"materials":[{"name":"Material.001","pbrMetallicRoughness":{"metallicFactor":0.0,"roughnessFactor":0.5,"baseColorTexture":{"index":0}}},{"name":"Material.003","normalTexture":{"index":1},"occlusionTexture":{"index":2},"pbrMetallicRoughness":{"baseColorTexture":{"index":3},"metallicRoughnessTexture":{"index":2}}},{"name":"Material.002","normalTexture":{"index":4},"pbrMetallicRoughness":{"metallicFactor":0.0,"roughnessFactor":0.5,"baseColorTexture":{"index":5}}},{"name":"Material.004","alphaMode":"BLEND","pbrMetallicRoughness":{"baseColorFactor":[0.800000011920929,0.800000011920929,0.800000011920929,0.05000000074505806],"metallicFactor":0.0,"roughnessFactor":0.05000000074505806},"extras":{"ASOBO_material_code":"Windshield"}},{"name":"Material.005","normalTexture":{"index":6},"pbrMetallicRoughness":{"metallicFactor":0.0,"roughnessFactor":0.5,"baseColorTexture":{"index":7}}},{"name":"Material.006","normalTexture":{"index":9},"emissiveTexture":{"index":8},"pbrMetallicRoughness":{"metallicFactor":0.0,"roughnessFactor":0.5,"baseColorTexture":{"index":10}}}],"meshes":[{"primitives":[{"attributes":{"COLOR_0":5,"NORMAL":2,"POSITION":0,"TANGENT":1,"TEXCOORD_0":3,"TEXCOORD_1":4},"indices":6,"material":0,"mode":4,"extras":{"ASOBO_primitive":{"PrimitiveCount":992,"VertexType":"VTX","VertexVersion":2}}}],"name":"Mesh.002"},{"primitives":[{"attributes":{"COLOR_0":12,"NORMAL":9,"POSITION":7,"TANGENT":8,"TEXCOORD_0":10,"TEXCOORD_1":11},"indices":13,"material":0,"mode":4,"extras":{"ASOBO_primitive":{"PrimitiveCount":1472,"VertexType":"VTX","VertexVersion":2}}}],"name":"Mesh.003"},{"primitives":[{"attributes":{"COLOR_0":19,"NORMAL":16,"POSITION":14,"TANGENT":15,"TEXCOORD_0":17,"TEXCOORD_1":18},"indices":20,"material":0,"mode":4,"extras":{"ASOBO_primitive":{"PrimitiveCount":640,"VertexType":"VTX","VertexVersion":2}}}],"name":"Mesh.004"},{"primitives":[{"attributes":{"COLOR_0":26,"NORMAL":23,"POSITION":21,"TANGENT":22,"TEXCOORD_0":24,"TEXCOORD_1":25},"indices":27,"material":1,"mode":4,"extras":{"ASOBO_primitive":{"PrimitiveCount":3891,"VertexType":"VTX","VertexVersion":2}}}],"name":"Mesh.005"},{"primitives":[{"attributes":{"COLOR_0":33,"NORMAL":30,"POSITION":28,"TANGENT":29,"TEXCOORD_0":31,"TEXCOORD_1":32},"indices":34,"material":2,"mode":4,"extras":{"ASOBO_primitive":{"PrimitiveCount":4008,"VertexType":"VTX","VertexVersion":2}}},{"attributes":{"COLOR_0":33,"NORMAL":30,"POSITION":28,"TANGENT":29,"TEXCOORD_0":31,"TEXCOORD_1":32},"indices":34,"material":3,"mode":4,"extras":{"ASOBO_primitive":{"PrimitiveCount":3232,"StartIndex":12024,"VertexType":"VTX","VertexVersion":2}}},{"attributes":{"COLOR_0":33,"NORMAL":30,"POSITION":28,"TANGENT":29,"TEXCOORD_0":31,"TEXCOORD_1":32},"indices":34,"material":1,"mode":4,"extras":{"ASOBO_primitive":{"PrimitiveCount":7424,"StartIndex":21720,"VertexType":"VTX","VertexVersion":2}}},{"attributes":{"COLOR_0":33,"NORMAL":30,"POSITION":28,"TANGENT":29,"TEXCOORD_0":31,"TEXCOORD_1":32},"indices":34,"material":0,"mode":4,"extras":{"ASOBO_primitive":{"PrimitiveCount":2473,"StartIndex":43992,"VertexType":"VTX","VertexVersion":2}}},{"attributes":{"COLOR_0":33,"NORMAL":30,"POSITION":28,"TANGENT":29,"TEXCOORD_0":31,"TEXCOORD_1":32},"indices":34,"material":4,"mode":4,"extras":{"ASOBO_primitive":{"PrimitiveCount":2180,"StartIndex":51411,"VertexType":"VTX","VertexVersion":2}}},{"attributes":{"COLOR_0":33,"NORMAL":30,"POSITION":28,"TANGENT":29,"TEXCOORD_0":31,"TEXCOORD_1":32},"indices":34,"material":5,"mode":4,"extras":{"ASOBO_primitive":{"PrimitiveCount":2808,"StartIndex":57951,"VertexType":"VTX","VertexVersion":2}}}],"name":"Mesh.006"},{"primitives":[{"attributes":{"COLOR_0":40,"NORMAL":37,"POSITION":35,"TANGENT":36,"TEXCOORD_0":38,"TEXCOORD_1":39},"indices":41,"material":0,"mode":4,"extras":{"ASOBO_primitive":{"PrimitiveCount":84,"VertexType":"VTX","VertexVersion":2}}}],"name":"Mesh.007"}],"nodes":[{"translation":[-0.3843590021133423,-0.6650445461273193,1.2518447637557984],"scale":[0.009999990463256836,0.009999990463256836,0.009999990463256836],"mesh":0,"name":"halerorvert_2"},{"translation":[-0.3971364498138428,-0.6566684246063232,1.30068039894104],"scale":[0.009999990463256836,0.009999990463256836,0.009999990463256836],"mesh":1,"name":"haleror_2"},{"translation":[-1.5579832792282105,1.5523312091827393,1.1929779052734376],"rotation":[0.0,0.0,-0.8816891312599182,0.4718307554721832],"scale":[0.009999990463256836,0.009999990463256836,0.009999990463256836],"mesh":2,"name":"xtras_3"},{"translation":[-0.37186896800994875,-0.6566689014434815,1.2517685890197755],"scale":[0.009999990463256836,0.009999990463256836,0.009999990463256836],"mesh":3,"name":"xtras_4"},{"translation":[-0.37117141485214236,-0.6566684246063232,1.2312147617340088],"scale":[0.009999990463256836,0.009999990463256836,0.009999990463256836],"mesh":4,"name":"xtras_2.001"},{"translation":[-0.36145663261413576,0.6460344791412354,1.9961378574371336],"rotation":[-0.2301926165819168,-0.00804951973259449,0.016632409766316415,0.972969651222229],"scale":[0.009999990463256836,0.009999990463256836,0.009999990463256836],"mesh":5,"name":"xtras_2.002"}],"scene":0,"scenes":[{"nodes":[0,1,2,3,4,5],"name":"Scene"}],"textures":[{"extensions":{"MSFT_texture_dds":{"source":0}}},{"extensions":{"MSFT_texture_dds":{"source":1}}},{"extensions":{"MSFT_texture_dds":{"source":2}}},{"extensions":{"MSFT_texture_dds":{"source":3}}},{"extensions":{"MSFT_texture_dds":{"source":4}}},{"extensions":{"MSFT_texture_dds":{"source":5}}},{"extensions":{"MSFT_texture_dds":{"source":6}}},{"extensions":{"MSFT_texture_dds":{"source":7}}},{"extensions":{"MSFT_texture_dds":{"source":8}}},{"extensions":{"MSFT_texture_dds":{"source":9}}},{"extensions":{"MSFT_texture_dds":{"source":10}}}],"buffers":[{"byteLength":952500,"uri":"Neoflycrashedplane4.bin"}],"images":[{"uri":"ALTBODY_BASE_COLOR2.JPG.DDS","name":"Altbody_Base_Color2","extras":"ASOBO_image_converted_meta"},{"uri":"MAIN_NORMAL_DIRECTX.JPG.DDS","name":"Main_Normal_DirectX","extras":"ASOBO_image_converted_meta"},{"uri":"MAIN_METALLIC.JPG.DDS","name":"Main_Metallic","extras":"ASOBO_image_converted_meta"},{"uri":"MAIN_BASE_COLOR2.JPG.DDS","name":"Main_Base_Color2","extras":"ASOBO_image_converted_meta"},{"uri":"XTRA_NORMAL_DIRECTX.JPG.DDS","name":"xtra_Normal_DirectX","extras":"ASOBO_image_converted_meta"},{"uri":"XTRA_BASE_COLOR.JPG.DDS","name":"xtra_Base_Color","extras":"ASOBO_image_converted_meta"},{"uri":"INTERIOR_NORMAL_DIRECTX.JPG.DDS","name":"interior_Normal_DirectX","extras":"ASOBO_image_converted_meta"},{"uri":"INTERIOR_BASE_COLOR.JPG.DDS","name":"interior_Base_Color","extras":"ASOBO_image_converted_meta"},{"uri":"SEATS_AND_STUFF_ROUGHNESS.JPG.DDS","name":"seats_and_stuff_Roughness","extras":"ASOBO_image_converted_meta"},{"uri":"SEATS_AND_STUFF_NORMAL_DIRECTX.JPG.DDS","name":"seats_and_stuff_Normal_DirectX","extras":"ASOBO_image_converted_meta"},{"uri":"SEATS_AND_STUFF_BASE_COLOR.JPG.DDS","name":"seats_and_stuff_Base_Color","extras":"ASOBO_image_converted_meta"}]}
