{"accessors":[{"bufferView":0,"componentType":5126,"count":15983,"min":[-627.5145874023438,-143.00552368164063,-409.3273010253906],"max":[278.0790710449219,235.13790893554688,325.18035888671877],"type":"VEC3","name":"Mesh.001_vertices#0_POSITION"},{"bufferView":0,"byteOffset":12,"componentType":5120,"count":15983,"type":"VEC4","name":"Mesh.001_vertices#0_TANGENT"},{"bufferView":0,"byteOffset":16,"componentType":5120,"count":15983,"type":"VEC4","name":"Mesh.001_vertices#0_NORMAL"},{"bufferView":0,"byteOffset":20,"componentType":5122,"count":15983,"type":"VEC2","name":"Mesh.001_vertices#0_TEXCOORD_0"},{"bufferView":0,"byteOffset":24,"componentType":5122,"count":15983,"type":"VEC2","name":"Mesh.001_vertices#0_TEXCOORD_1"},{"bufferView":0,"byteOffset":28,"componentType":5123,"count":15983,"type":"VEC4","name":"Mesh.001_vertices#0_COLOR_0"},{"bufferView":1,"componentType":5123,"count":63762,"type":"SCALAR","name":"Mesh.001_indices#4"},{"bufferView":0,"byteOffset":575388,"componentType":5126,"count":658,"min":[46.32464599609375,-97.26931762695313,186.16409301757813],"max":[94.18862915039063,14.435417175292969,368.08172607421877],"type":"VEC3","name":"Mesh.002_vertices#0_POSITION"},{"bufferView":0,"byteOffset":575400,"componentType":5120,"count":658,"type":"VEC4","name":"Mesh.002_vertices#0_TANGENT"},{"bufferView":0,"byteOffset":575404,"componentType":5120,"count":658,"type":"VEC4","name":"Mesh.002_vertices#0_NORMAL"},{"bufferView":0,"byteOffset":575408,"componentType":5122,"count":658,"type":"VEC2","name":"Mesh.002_vertices#0_TEXCOORD_0"},{"bufferView":0,"byteOffset":575412,"componentType":5122,"count":658,"type":"VEC2","name":"Mesh.002_vertices#0_TEXCOORD_1"},{"bufferView":0,"byteOffset":575416,"componentType":5123,"count":658,"type":"VEC4","name":"Mesh.002_vertices#0_COLOR_0"},{"bufferView":1,"byteOffset":127524,"componentType":5123,"count":2976,"type":"SCALAR","name":"Mesh.002_indices#0"},{"bufferView":0,"byteOffset":599076,"componentType":5126,"count":942,"min":[-144.9566192626953,-198.53431701660157,207.69564819335938],"max":[240.1808319091797,-30.475967407226564,275.81768798828127],"type":"VEC3","name":"Mesh.003_vertices#0_POSITION"},{"bufferView":0,"byteOffset":599088,"componentType":5120,"count":942,"type":"VEC4","name":"Mesh.003_vertices#0_TANGENT"},{"bufferView":0,"byteOffset":599092,"componentType":5120,"count":942,"type":"VEC4","name":"Mesh.003_vertices#0_NORMAL"},{"bufferView":0,"byteOffset":599096,"componentType":5122,"count":942,"type":"VEC2","name":"Mesh.003_vertices#0_TEXCOORD_0"},{"bufferView":0,"byteOffset":599100,"componentType":5122,"count":942,"type":"VEC2","name":"Mesh.003_vertices#0_TEXCOORD_1"},{"bufferView":0,"byteOffset":599104,"componentType":5123,"count":942,"type":"VEC4","name":"Mesh.003_vertices#0_COLOR_0"},{"bufferView":1,"byteOffset":133476,"componentType":5123,"count":4416,"type":"SCALAR","name":"Mesh.003_indices#0"},{"bufferView":0,"byteOffset":632988,"componentType":5126,"count":584,"min":[-88.46273803710938,110.29863739013672,-463.8363952636719],"max":[105.23394775390625,160.40113830566407,-384.2427978515625],"type":"VEC3","name":"Mesh.004_vertices#0_POSITION"},{"bufferView":0,"byteOffset":633000,"componentType":5120,"count":584,"type":"VEC4","name":"Mesh.004_vertices#0_TANGENT"},{"bufferView":0,"byteOffset":633004,"componentType":5120,"count":584,"type":"VEC4","name":"Mesh.004_vertices#0_NORMAL"},{"bufferView":0,"byteOffset":633008,"componentType":5122,"count":584,"type":"VEC2","name":"Mesh.004_vertices#0_TEXCOORD_0"},{"bufferView":0,"byteOffset":633012,"componentType":5122,"count":584,"type":"VEC2","name":"Mesh.004_vertices#0_TEXCOORD_1"},{"bufferView":0,"byteOffset":633016,"componentType":5123,"count":584,"type":"VEC4","name":"Mesh.004_vertices#0_COLOR_0"},{"bufferView":1,"byteOffset":142308,"componentType":5123,"count":1920,"type":"SCALAR","name":"Mesh.004_indices#0"},{"bufferView":0,"byteOffset":654012,"componentType":5126,"count":2626,"min":[-63.35212326049805,70.8675537109375,-426.8216247558594],"max":[63.35212326049805,177.24143981933595,-314.03155517578127],"type":"VEC3","name":"Mesh.005_vertices#0_POSITION"},{"bufferView":0,"byteOffset":654024,"componentType":5120,"count":2626,"type":"VEC4","name":"Mesh.005_vertices#0_TANGENT"},{"bufferView":0,"byteOffset":654028,"componentType":5120,"count":2626,"type":"VEC4","name":"Mesh.005_vertices#0_NORMAL"},{"bufferView":0,"byteOffset":654032,"componentType":5122,"count":2626,"type":"VEC2","name":"Mesh.005_vertices#0_TEXCOORD_0"},{"bufferView":0,"byteOffset":654036,"componentType":5122,"count":2626,"type":"VEC2","name":"Mesh.005_vertices#0_TEXCOORD_1"},{"bufferView":0,"byteOffset":654040,"componentType":5123,"count":2626,"type":"VEC4","name":"Mesh.005_vertices#0_COLOR_0"},{"bufferView":1,"byteOffset":146148,"componentType":5123,"count":11673,"type":"SCALAR","name":"Mesh.005_indices#1"},{"bufferView":0,"byteOffset":748548,"componentType":5126,"count":715,"min":[73.54993438720703,191.5743408203125,-231.10279846191407],"max":[634.9798583984375,243.15139770507813,-52.20135498046875],"type":"VEC3","name":"Mesh.006_vertices#0_POSITION"},{"bufferView":0,"byteOffset":748560,"componentType":5120,"count":715,"type":"VEC4","name":"Mesh.006_vertices#0_TANGENT"},{"bufferView":0,"byteOffset":748564,"componentType":5120,"count":715,"type":"VEC4","name":"Mesh.006_vertices#0_NORMAL"},{"bufferView":0,"byteOffset":748568,"componentType":5122,"count":715,"type":"VEC2","name":"Mesh.006_vertices#0_TEXCOORD_0"},{"bufferView":0,"byteOffset":748572,"componentType":5122,"count":715,"type":"VEC2","name":"Mesh.006_vertices#0_TEXCOORD_1"},{"bufferView":0,"byteOffset":748576,"componentType":5123,"count":715,"type":"VEC4","name":"Mesh.006_vertices#0_COLOR_0"},{"bufferView":1,"byteOffset":169494,"componentType":5123,"count":2994,"type":"SCALAR","name":"Mesh.006_indices#1"}],"asset":{"generator":"Extended Khronos glTF Blender I/O v1.0.0","version":"2.0","extensions":{"ASOBO_asset_optimized":{"BoundingBoxMax":[634.9798583984375,243.15139770507813,368.08172607421877],"BoundingBoxMin":[-627.5145874023438,-198.53431701660157,-463.8363952636719],"MajorVersion":4,"MinorVersion":2},"ASOBO_normal_map_convention":{"tangent_space_convention":"DirectX"}}},"bufferViews":[{"buffer":0,"byteLength":774288,"byteStride":36,"target":34962,"name":"BufferViewVertexND"},{"buffer":0,"byteLength":175482,"byteOffset":774288,"target":34963,"name":"BufferViewIndex"}],"extensionsUsed":["ASOBO_normal_map_convention","MSFT_texture_dds","ASOBO_asset_optimized"],"extensionsRequired":["MSFT_texture_dds"],"materials":[{"name":"Material.002","normalTexture":{"index":0},"pbrMetallicRoughness":{"metallicFactor":0.0,"roughnessFactor":0.5,"baseColorTexture":{"index":1}}},{"name":"Material.004","alphaMode":"BLEND","pbrMetallicRoughness":{"baseColorFactor":[0.800000011920929,0.800000011920929,0.800000011920929,0.05000000074505806],"metallicFactor":0.0,"roughnessFactor":0.05000000074505806},"extras":{"ASOBO_material_code":"Windshield"}},{"name":"Material.003","normalTexture":{"index":2},"occlusionTexture":{"index":3},"pbrMetallicRoughness":{"baseColorTexture":{"index":4},"metallicRoughnessTexture":{"index":3}}},{"name":"Material.005","normalTexture":{"index":5},"pbrMetallicRoughness":{"metallicFactor":0.0,"roughnessFactor":0.5,"baseColorTexture":{"index":6}}},{"name":"Material.006","normalTexture":{"index":8},"emissiveTexture":{"index":7},"pbrMetallicRoughness":{"metallicFactor":0.0,"roughnessFactor":0.5,"baseColorTexture":{"index":9}}},{"name":"Material","pbrMetallicRoughness":{"metallicFactor":0.0,"roughnessFactor":0.5,"baseColorTexture":{"index":10}}}],"meshes":[{"primitives":[{"attributes":{"COLOR_0":5,"NORMAL":2,"POSITION":0,"TANGENT":1,"TEXCOORD_0":3,"TEXCOORD_1":4},"indices":6,"material":0,"mode":4,"extras":{"ASOBO_primitive":{"PrimitiveCount":3908,"VertexType":"VTX","VertexVersion":2}}},{"attributes":{"COLOR_0":5,"NORMAL":2,"POSITION":0,"TANGENT":1,"TEXCOORD_0":3,"TEXCOORD_1":4},"indices":6,"material":1,"mode":4,"extras":{"ASOBO_primitive":{"PrimitiveCount":3232,"StartIndex":11724,"VertexType":"VTX","VertexVersion":2}}},{"attributes":{"COLOR_0":5,"NORMAL":2,"POSITION":0,"TANGENT":1,"TEXCOORD_0":3,"TEXCOORD_1":4},"indices":6,"material":2,"mode":4,"extras":{"ASOBO_primitive":{"PrimitiveCount":9126,"StartIndex":21420,"VertexType":"VTX","VertexVersion":2}}},{"attributes":{"COLOR_0":5,"NORMAL":2,"POSITION":0,"TANGENT":1,"TEXCOORD_0":3,"TEXCOORD_1":4},"indices":6,"material":3,"mode":4,"extras":{"ASOBO_primitive":{"PrimitiveCount":2180,"StartIndex":48798,"VertexType":"VTX","VertexVersion":2}}},{"attributes":{"COLOR_0":5,"NORMAL":2,"POSITION":0,"TANGENT":1,"TEXCOORD_0":3,"TEXCOORD_1":4},"indices":6,"material":4,"mode":4,"extras":{"ASOBO_primitive":{"PrimitiveCount":2808,"StartIndex":55338,"VertexType":"VTX","VertexVersion":2}}}],"name":"Mesh.001"},{"primitives":[{"attributes":{"COLOR_0":12,"NORMAL":9,"POSITION":7,"TANGENT":8,"TEXCOORD_0":10,"TEXCOORD_1":11},"indices":13,"material":2,"mode":4,"extras":{"ASOBO_primitive":{"PrimitiveCount":992,"VertexType":"VTX","VertexVersion":2}}}],"name":"Mesh.002"},{"primitives":[{"attributes":{"COLOR_0":19,"NORMAL":16,"POSITION":14,"TANGENT":15,"TEXCOORD_0":17,"TEXCOORD_1":18},"indices":20,"material":2,"mode":4,"extras":{"ASOBO_primitive":{"PrimitiveCount":1472,"VertexType":"VTX","VertexVersion":2}}}],"name":"Mesh.003"},{"primitives":[{"attributes":{"COLOR_0":26,"NORMAL":23,"POSITION":21,"TANGENT":22,"TEXCOORD_0":24,"TEXCOORD_1":25},"indices":27,"material":2,"mode":4,"extras":{"ASOBO_primitive":{"PrimitiveCount":640,"VertexType":"VTX","VertexVersion":2}}}],"name":"Mesh.004"},{"primitives":[{"attributes":{"COLOR_0":33,"NORMAL":30,"POSITION":28,"TANGENT":29,"TEXCOORD_0":31,"TEXCOORD_1":32},"indices":34,"material":2,"mode":4,"extras":{"ASOBO_primitive":{"PrimitiveCount":2548,"VertexType":"VTX","VertexVersion":2}}},{"attributes":{"COLOR_0":33,"NORMAL":30,"POSITION":28,"TANGENT":29,"TEXCOORD_0":31,"TEXCOORD_1":32},"indices":34,"material":5,"mode":4,"extras":{"ASOBO_primitive":{"PrimitiveCount":1343,"StartIndex":7644,"VertexType":"VTX","VertexVersion":2}}}],"name":"Mesh.005"},{"primitives":[{"attributes":{"COLOR_0":40,"NORMAL":37,"POSITION":35,"TANGENT":36,"TEXCOORD_0":38,"TEXCOORD_1":39},"indices":41,"material":0,"mode":4,"extras":{"ASOBO_primitive":{"PrimitiveCount":100,"VertexType":"VTX","VertexVersion":2}}},{"attributes":{"COLOR_0":40,"NORMAL":37,"POSITION":35,"TANGENT":36,"TEXCOORD_0":38,"TEXCOORD_1":39},"indices":41,"material":2,"mode":4,"extras":{"ASOBO_primitive":{"PrimitiveCount":898,"StartIndex":300,"VertexType":"VTX","VertexVersion":2}}}],"name":"Mesh.006"}],"nodes":[{"translation":[-0.02762291207909584,1.197676658630371,1.4695736169815064],"rotation":[-0.26062318682670596,0.0,0.0,0.965440571308136],"scale":[0.009999990463256836,0.009999990463256836,0.009999990463256836],"mesh":0,"name":"xtras_2"},{"translation":[-0.02762291207909584,1.2104307413101197,1.4736882448196412],"rotation":[-0.26062318682670596,0.0,0.0,0.965440571308136],"scale":[0.009999990463256836,0.009999990463256836,0.009999990463256836],"mesh":1,"name":"halerorvert_2"},{"translation":[-0.07673057913780213,-0.4032454490661621,1.5639615058898926],"rotation":[-0.5879764556884766,0.013531937263906002,-0.011841509491205216,0.808678150177002],"scale":[0.009999990463256836,0.009999990463256836,0.009999990463256836],"mesh":2,"name":"haleror_2"},{"translation":[0.1959872543811798,1.1266359090805054,1.4893321990966797],"rotation":[-0.24829109013080598,0.017877161502838136,0.12360505759716034,0.960600733757019],"scale":[0.009999990463256836,0.009999990463256836,0.009999990463256836],"mesh":3,"name":"xtras_3"},{"translation":[-0.02832046151161194,1.2080159187316897,1.4873284101486207],"rotation":[-0.26062318682670596,0.0,0.0,0.965440571308136],"scale":[0.009999990463256836,0.009999990463256836,0.009999990463256836],"mesh":4,"name":"xtras_4"},{"translation":[0.6399645805358887,2.212441682815552,1.7227747440338138],"rotation":[-0.37088823318481448,0.17064256966114045,-0.14479827880859376,0.9013082385063173],"scale":[0.009999990463256836,0.009999990463256836,0.009999990463256836],"mesh":5,"name":"xtras_2.001"}],"scene":0,"scenes":[{"nodes":[0,1,2,3,4,5],"name":"Scene"}],"textures":[{"extensions":{"MSFT_texture_dds":{"source":0}}},{"extensions":{"MSFT_texture_dds":{"source":1}}},{"extensions":{"MSFT_texture_dds":{"source":2}}},{"extensions":{"MSFT_texture_dds":{"source":3}}},{"extensions":{"MSFT_texture_dds":{"source":4}}},{"extensions":{"MSFT_texture_dds":{"source":5}}},{"extensions":{"MSFT_texture_dds":{"source":6}}},{"extensions":{"MSFT_texture_dds":{"source":7}}},{"extensions":{"MSFT_texture_dds":{"source":8}}},{"extensions":{"MSFT_texture_dds":{"source":9}}},{"extensions":{"MSFT_texture_dds":{"source":10}}}],"buffers":[{"byteLength":949770,"uri":"Neoflycrashedplane5.bin"}],"images":[{"uri":"XTRA_NORMAL_DIRECTX.JPG.DDS","name":"xtra_Normal_DirectX","extras":"ASOBO_image_converted_meta"},{"uri":"XTRA_BASE_COLOR.JPG.DDS","name":"xtra_Base_Color","extras":"ASOBO_image_converted_meta"},{"uri":"MAIN_NORMAL_DIRECTX.JPG.DDS","name":"Main_Normal_DirectX","extras":"ASOBO_image_converted_meta"},{"uri":"MAIN_METALLIC.JPG.DDS","name":"Main_Metallic","extras":"ASOBO_image_converted_meta"},{"uri":"MAIN_BASE_COLOR3.JPG.DDS","name":"Main_Base_Color3","extras":"ASOBO_image_converted_meta"},{"uri":"INTERIOR_NORMAL_DIRECTX.JPG.DDS","name":"interior_Normal_DirectX","extras":"ASOBO_image_converted_meta"},{"uri":"INTERIOR_BASE_COLOR.JPG.DDS","name":"interior_Base_Color","extras":"ASOBO_image_converted_meta"},{"uri":"SEATS_AND_STUFF_ROUGHNESS.JPG.DDS","name":"seats_and_stuff_Roughness","extras":"ASOBO_image_converted_meta"},{"uri":"SEATS_AND_STUFF_NORMAL_DIRECTX.JPG.DDS","name":"seats_and_stuff_Normal_DirectX","extras":"ASOBO_image_converted_meta"},{"uri":"SEATS_AND_STUFF_BASE_COLOR.JPG.DDS","name":"seats_and_stuff_Base_Color","extras":"ASOBO_image_converted_meta"},{"uri":"ALTBODY_BASE_COLOR3.JPG.DDS","name":"Altbody_Base_Color3","extras":"ASOBO_image_converted_meta"}]}
