{"accessors":[{"bufferView":0,"componentType":5126,"count":4202,"min":[-481.5941467285156,-76.31475067138672,-466.63983154296877],"max":[246.8529052734375,111.43498229980469,466.63983154296877],"type":"VEC3","name":"LOWPOLY001_Material #51_0_vertices#0_POSITION"},{"bufferView":0,"byteOffset":12,"componentType":5120,"count":4202,"type":"VEC4","name":"LOWPOLY001_Material #51_0_vertices#0_TANGENT"},{"bufferView":0,"byteOffset":16,"componentType":5120,"count":4202,"type":"VEC4","name":"LOWPOLY001_Material #51_0_vertices#0_NORMAL"},{"bufferView":0,"byteOffset":20,"componentType":5122,"count":4202,"type":"VEC2","name":"LOWPOLY001_Material #51_0_vertices#0_TEXCOORD_0"},{"bufferView":0,"byteOffset":24,"componentType":5122,"count":4202,"type":"VEC2","name":"LOWPOLY001_Material #51_0_vertices#0_TEXCOORD_1"},{"bufferView":0,"byteOffset":28,"componentType":5123,"count":4202,"type":"VEC4","name":"LOWPOLY001_Material #51_0_vertices#0_COLOR_0"},{"bufferView":1,"componentType":5123,"count":11025,"type":"SCALAR","name":"LOWPOLY001_Material #51_0_indices#0"}],"asset":{"generator":"Extended Khronos glTF Blender I/O v1.0.0","version":"2.0","extensions":{"ASOBO_asset_optimized":{"BoundingBoxMax":[246.8529052734375,111.43498229980469,466.63983154296877],"BoundingBoxMin":[-481.5941467285156,-76.31475067138672,-466.63983154296877],"MajorVersion":4,"MinorVersion":2},"ASOBO_normal_map_convention":{"tangent_space_convention":"DirectX"}}},"bufferViews":[{"buffer":0,"byteLength":151272,"byteStride":36,"target":34962,"name":"BufferViewVertexND"},{"buffer":0,"byteLength":22050,"byteOffset":151272,"target":34963,"name":"BufferViewIndex"}],"extensionsUsed":["ASOBO_normal_map_convention","ASOBO_material_detail_map","MSFT_texture_dds","ASOBO_asset_optimized"],"extensionsRequired":["MSFT_texture_dds"],"materials":[{"name":"Material.001","normalTexture":{"index":1},"pbrMetallicRoughness":{"metallicFactor":0.0,"roughnessFactor":0.5,"baseColorTexture":{"index":2}},"extensions":{"ASOBO_material_detail_map":{"detailMetalRoughAOTexture":{"index":0}}}}],"meshes":[{"primitives":[{"attributes":{"COLOR_0":5,"NORMAL":2,"POSITION":0,"TANGENT":1,"TEXCOORD_0":3,"TEXCOORD_1":4},"indices":6,"material":0,"mode":4,"extras":{"ASOBO_primitive":{"PrimitiveCount":3675,"VertexType":"VTX","VertexVersion":2}}}],"name":"LOWPOLY001_Material #51_0"}],"nodes":[{"translation":[-0.5174352526664734,-22.938634872436525,-0.1693168431520462],"rotation":[-0.04434699937701225,-0.0039132218807935719,-0.004630625247955322,0.998997926712036],"scale":[0.03500000759959221,0.03500000759959221,0.03500000759959221],"mesh":0,"name":"LOWPOLY001_Material #51_0"},{"translation":[0.0,24.804807662963868,0.23416627943515776],"rotation":[0.0,0.7071068286895752,0.0,0.7071068286895752],"name":"LOWPOLY001","children":[0]},{"name":"RootNode","children":[1]},{"rotation":[0.7071068286895752,0.0,0.0,0.7071068286895752],"name":"bomber.FBX","children":[2]},{"name":"RootNode (model correction matrix)","children":[3]},{"translation":[0.0,-0.4115363359451294,0.03919393941760063],"rotation":[-0.7071067690849304,0.0,0.0,0.7071067690849304],"name":"RootNode (gltf orientation matrix)","children":[4]}],"scene":0,"scenes":[{"nodes":[5],"name":"Scene"}],"textures":[{"extensions":{"MSFT_texture_dds":{"source":0}}},{"extensions":{"MSFT_texture_dds":{"source":1}}},{"extensions":{"MSFT_texture_dds":{"source":2}}}],"buffers":[{"byteLength":173322,"uri":"Neoflywreckedplane2.bin"}],"images":[{"uri":"MATERIAL_51_METALLICROUGHNESS.PNG.DDS","name":"Material_51_metallicRoughness","extras":"ASOBO_image_converted_meta"},{"uri":"MATERIAL_51_NORMAL.PNG.DDS","name":"Material_51_normal","extras":"ASOBO_image_converted_meta"},{"uri":"MATERIAL_51_BASECOLOR.PNG.DDS","name":"Material_51_baseColor","extras":"ASOBO_image_converted_meta"}]}
