{"accessors":[{"bufferView":0,"componentType":5126,"count":231717,"min":[-5.377379894256592,-1.6176913976669312,-14.697296142578125],"max":[9.519962310791016,4.521358966827393,10.183880805969239],"type":"VEC3","name":"mesh_vertices#0_POSITION"},{"bufferView":0,"byteOffset":12,"componentType":5120,"count":231717,"type":"VEC4","name":"mesh_vertices#0_TANGENT"},{"bufferView":0,"byteOffset":16,"componentType":5120,"count":231717,"type":"VEC4","name":"mesh_vertices#0_NORMAL"},{"bufferView":0,"byteOffset":20,"componentType":5122,"count":231717,"type":"VEC2","name":"mesh_vertices#0_TEXCOORD_0"},{"bufferView":0,"byteOffset":24,"componentType":5122,"count":231717,"type":"VEC2","name":"mesh_vertices#0_TEXCOORD_1"},{"bufferView":0,"byteOffset":28,"componentType":5123,"count":231717,"type":"VEC4","name":"mesh_vertices#0_COLOR_0"},{"bufferView":1,"componentType":5123,"count":231717,"type":"SCALAR","name":"mesh_indices#6"}],"asset":{"generator":"Extended Khronos glTF Blender I/O v1.0.0","version":"2.0","extensions":{"ASOBO_asset_optimized":{"BoundingBoxMax":[9.519962310791016,4.521358966827393,10.183880805969239],"BoundingBoxMin":[-5.377379894256592,-1.6176913976669312,-14.697296142578125],"MajorVersion":4,"MinorVersion":2},"ASOBO_normal_map_convention":{"tangent_space_convention":"DirectX"}}},"bufferViews":[{"buffer":0,"byteLength":8341812,"byteStride":36,"target":34962,"name":"BufferViewVertexND"},{"buffer":0,"byteLength":463434,"byteOffset":8341812,"target":34963,"name":"BufferViewIndex"}],"extensionsUsed":["ASOBO_normal_map_convention","MSFT_texture_dds","ASOBO_asset_optimized"],"extensionsRequired":["MSFT_texture_dds"],"materials":[{"name":"Texture_0","pbrMetallicRoughness":{"metallicFactor":0.0,"roughnessFactor":0.5,"baseColorTexture":{"index":0}}},{"name":"Texture_1","pbrMetallicRoughness":{"metallicFactor":0.0,"roughnessFactor":0.5,"baseColorTexture":{"index":1}}},{"name":"Texture_2","pbrMetallicRoughness":{"metallicFactor":0.0,"roughnessFactor":0.5,"baseColorTexture":{"index":2}}},{"name":"Untextured","doubleSided":true,"pbrMetallicRoughness":{"baseColorFactor":[0.5019609928131104,0.5019609928131104,0.5019609928131104,1.0],"metallicFactor":0.0}}],"meshes":[{"primitives":[{"attributes":{"COLOR_0":5,"NORMAL":2,"POSITION":0,"TANGENT":1,"TEXCOORD_0":3,"TEXCOORD_1":4},"indices":6,"material":0,"mode":4,"extras":{"ASOBO_primitive":{"PrimitiveCount":21843,"VertexType":"VTX","VertexVersion":2}}},{"attributes":{"COLOR_0":5,"NORMAL":2,"POSITION":0,"TANGENT":1,"TEXCOORD_0":3,"TEXCOORD_1":4},"indices":6,"material":0,"mode":4,"extras":{"ASOBO_primitive":{"BaseVertexIndex":65529,"PrimitiveCount":16941,"StartIndex":65529,"VertexType":"VTX","VertexVersion":2}}},{"attributes":{"COLOR_0":5,"NORMAL":2,"POSITION":0,"TANGENT":1,"TEXCOORD_0":3,"TEXCOORD_1":4},"indices":6,"material":1,"mode":4,"extras":{"ASOBO_primitive":{"BaseVertexIndex":65529,"PrimitiveCount":4902,"StartIndex":116352,"VertexType":"VTX","VertexVersion":2}}},{"attributes":{"COLOR_0":5,"NORMAL":2,"POSITION":0,"TANGENT":1,"TEXCOORD_0":3,"TEXCOORD_1":4},"indices":6,"material":1,"mode":4,"extras":{"ASOBO_primitive":{"BaseVertexIndex":131058,"PrimitiveCount":6323,"StartIndex":131058,"VertexType":"VTX","VertexVersion":2}}},{"attributes":{"COLOR_0":5,"NORMAL":2,"POSITION":0,"TANGENT":1,"TEXCOORD_0":3,"TEXCOORD_1":4},"indices":6,"material":2,"mode":4,"extras":{"ASOBO_primitive":{"BaseVertexIndex":131058,"PrimitiveCount":15520,"StartIndex":150027,"VertexType":"VTX","VertexVersion":2}}},{"attributes":{"COLOR_0":5,"NORMAL":2,"POSITION":0,"TANGENT":1,"TEXCOORD_0":3,"TEXCOORD_1":4},"indices":6,"material":2,"mode":4,"extras":{"ASOBO_primitive":{"BaseVertexIndex":196587,"PrimitiveCount":11663,"StartIndex":196587,"VertexType":"VTX","VertexVersion":2}}},{"attributes":{"COLOR_0":5,"NORMAL":2,"POSITION":0,"TANGENT":1,"TEXCOORD_0":3,"TEXCOORD_1":4},"indices":6,"material":3,"mode":4,"extras":{"ASOBO_primitive":{"BaseVertexIndex":196587,"PrimitiveCount":47,"StartIndex":231576,"VertexType":"VTX","VertexVersion":2}}}],"name":"mesh"}],"nodes":[{"translation":[0.0,0.8127406239509583,0.0],"rotation":[0.011338294483721257,0.0,0.0,0.999935746192932],"mesh":0,"name":"mesh"},{"translation":[-0.0000020116567611694338,-0.4075792133808136,0.0],"rotation":[-0.02979561872780323,0.11081548035144806,-0.01600871980190277,0.9932652711868286],"name":"Left_Foot"},{"translation":[0.0,-0.4117475748062134,-0.000022724736481904985],"rotation":[0.043634846806526187,0.0,-0.000026118668756680564,0.999047577381134],"name":"Left_Leg","children":[1]},{"translation":[0.09469568729400636,-0.028172791004180909,0.0],"rotation":[-0.004435913637280464,-0.002015630016103387,0.04727711156010628,0.9988699555397034],"name":"Left_UpLeg","children":[2]},{"translation":[0.000009462237358093262,-0.40757980942726138,-0.000013619661331176758],"rotation":[-0.029813310131430624,-0.11063289642333985,0.015895100310444833,0.993286907672882],"name":"Right_Foot"},{"translation":[0.0,-0.4117479026317597,-0.000022685155272483827],"rotation":[0.04366612434387207,0.0,0.0002525865565985441,0.9990461468696594],"name":"Right_Leg","children":[4]},{"translation":[-0.09469567984342577,-0.028172731399536134,0.0],"rotation":[-0.0044687604531645779,0.001835992792621255,-0.047399114817380908,0.9988644123077392],"name":"Right_UpLeg","children":[5]},{"translation":[0.046529412269592288,-0.0004724264144897461,0.000008866190910339356],"rotation":[0.012716619297862052,0.01944983191788197,-0.1699768602848053,0.9851740598678588],"name":"Left_Fingers_Tips"},{"translation":[0.10557201504707337,-0.000519871711730957,0.00004792213439941406],"rotation":[-0.013142677955329419,0.05745392665266991,-0.11143070459365844,0.99202299118042],"name":"Left_Fingers","children":[7]},{"translation":[0.04779919981956482,-0.018411874771118165,0.03972169756889343],"rotation":[-0.8169195652008057,0.04690592736005783,-0.2060408741235733,0.5366464257240295],"name":"Left_Thumb"},{"translation":[0.2378266453742981,0.0001659393310546875,-0.0006876066327095032],"rotation":[-0.007645287550985813,-0.0035027284175157549,-0.03751930221915245,0.9992605447769164],"name":"Left_Hand","children":[8,9]},{"translation":[0.2718377113342285,0.00001430511474609375,0.03628957271575928],"rotation":[0.003935834858566523,-0.1603538990020752,-0.011894959956407549,0.9869800806045532],"name":"Left_ForeArm","children":[10]},{"translation":[0.1713954359292984,0.10384345054626464,-0.02752123959362507],"rotation":[0.021398531273007394,0.05821992829442024,-0.36774152517318728,0.9278570413589478],"name":"Left_Arm","children":[11]},{"translation":[0.0,0.08636689186096192,0.0],"name":"Head"},{"translation":[0.0,0.1748741865158081,0.0],"name":"Neck","children":[13]},{"translation":[-0.04652953147888184,-0.00047212839126586914,-0.000008471310138702393],"rotation":[0.012745858170092106,-0.01938687451183796,0.1682322770357132,0.9854742884635924],"name":"Right_Fingers_Tips"},{"translation":[-0.10515928268432616,0.0,-0.00019729137420654297],"rotation":[-0.013412408530712128,-0.05740887671709061,0.11143635213375092,0.992021381855011],"name":"Right_Fingers","children":[15]},{"translation":[-0.04752430319786072,-0.019289135932922365,0.03901948034763336],"rotation":[0.551201581954956,0.20377357304096226,0.051854901015758517,0.8074430227279663],"name":"Right_Thumb"},{"translation":[-0.23779544234275816,-0.003367185592651367,-0.0015091374516487122],"rotation":[-0.044805824756622317,0.012542708776891232,0.04723263159394264,0.9977996945381165],"name":"Right_Hand","children":[16,17]},{"translation":[-0.2700778841972351,0.002280712127685547,0.03568628430366516],"rotation":[-0.0005170124350115657,0.16537146270275117,0.002289555035531521,0.9862285852432252],"name":"Right_ForeArm","children":[18]},{"translation":[-0.17123883962631226,0.10383975505828856,-0.007188356015831232],"rotation":[0.05874345824122429,-0.06536388397216797,0.3665560185909271,0.9262361526489258],"name":"Right_Arm","children":[19]},{"translation":[0.0,0.15557074546813966,0.0],"name":"Spine1","children":[12,14,20]},{"translation":[0.0,0.2266610860824585,0.0],"name":"Spine","children":[21]},{"translation":[0.0,0.9360297918319702,0.0],"scale":[0.949999988079071,0.949999988079071,0.949999988079071],"name":"Hips","children":[3,6,22]},{"translation":[0.0,-0.40758031606674197,-0.000013835728168487549],"rotation":[-0.02979053556919098,0.11081557720899582,-0.016007909551262857,0.9932654500007628],"name":"Left_Foot.001"},{"translation":[0.0,-0.4117474853992462,-0.000022722873836755754],"rotation":[0.04364164546132088,0.0,-0.000026351735868956898,0.9990472793579102],"name":"Left_Leg.001","children":[24]},{"translation":[0.09469568729400636,-0.028172731399536134,0.0],"rotation":[-0.0044478485360741619,-0.0020161960273981096,0.04727707430720329,0.9988698959350586],"name":"Left_UpLeg.001","children":[25]},{"translation":[0.00000941753387451172,-0.4075794517993927,-0.000012446194887161257],"rotation":[-0.029812024906277658,-0.11063291877508164,0.015894925221800805,0.9932869672775269],"name":"Right_Foot.001"},{"translation":[0.0,-0.4117480516433716,-0.00002268655225634575],"rotation":[0.04366209730505943,0.0,0.00025257348897866905,0.9990463256835938],"name":"Right_Leg.001","children":[27]},{"translation":[-0.09469567984342577,-0.028172671794891359,0.0],"rotation":[-0.004466021899133921,0.001835862873122096,-0.04739907011389733,0.9988644123077392],"name":"Right_UpLeg.001","children":[28]},{"translation":[0.04652947187423706,-0.0004724264144897461,0.000008851289749145508],"rotation":[0.01271661277860403,0.019449828192591668,-0.1699768304824829,0.9851740598678588],"name":"Left_Fingers_Tips.001"},{"translation":[0.10557198524475098,-0.0005199909210205078,0.00004792213439941406],"rotation":[-0.01314267423003912,0.057453930377960208,-0.11143068969249724,0.99202299118042],"name":"Left_Fingers.001","children":[30]},{"translation":[0.04779919981956482,-0.018411874771118165,0.03972170501947403],"rotation":[-0.8169195652008057,0.04690586030483246,-0.20604093372821809,0.5366464853286743],"name":"Left_Thumb.001"},{"translation":[0.2635478079319,0.000125885009765625,0.0003040730953216553],"rotation":[-0.003773951902985573,0.04229523986577988,-0.041249945759773257,0.998246133327484],"name":"Left_Hand.001","children":[31,32]},{"translation":[0.27999961376190188,0.00017881393432617188,0.00008869171142578125],"rotation":[0.00008352195436600596,-0.1431213915348053,-0.00209007877856493,0.9897029399871826],"name":"Left_ForeArm.001","children":[33]},{"translation":[0.171395406126976,0.10384345054626464,-0.02752123959362507],"rotation":[0.005283387843519449,0.01885150745511055,-0.37492403388023379,0.926848828792572],"name":"Left_Arm.001","children":[34]},{"translation":[0.0,0.08636689186096192,0.0],"name":"Head.001"},{"translation":[0.0,0.17487406730651856,0.0],"name":"Neck.001","children":[36]},{"translation":[-0.04652953147888184,-0.0004721879959106446,-0.000008463859558105469],"rotation":[0.012745858170092106,-0.019386878237128256,0.1682322770357132,0.9854742884635924],"name":"Right_Fingers_Tips.001"},{"translation":[-0.10515931248664856,0.0,-0.00019729137420654297],"rotation":[-0.013412408530712128,-0.0574088841676712,0.11143632233142852,0.992021381855011],"name":"Right_Fingers.001","children":[38]},{"translation":[-0.04752430319786072,-0.01928925514221191,0.03901951014995575],"rotation":[0.551201581954956,0.20377351343631745,0.05185490474104881,0.8074430227279663],"name":"Right_Thumb.001"},{"translation":[-0.26298701763153078,-0.0009938478469848633,-0.0008073300123214722],"rotation":[-0.0475001335144043,-0.05330275744199753,0.0443393737077713,0.9964620471000673],"name":"Right_Hand.001","children":[39,40]},{"translation":[-0.2800000309944153,0.0000029802322387695314,0.0],"rotation":[0.0,0.20411741733551024,0.0004310689109843224,0.9789463877677916],"name":"Right_ForeArm.001","children":[41]},{"translation":[-0.17123880982398988,0.10383963584899903,-0.007188355550169945],"rotation":[0.053971342742443088,-0.05212106555700302,0.36976996064186098,0.9260889291763306],"name":"Right_Arm.001","children":[42]},{"translation":[0.0,0.15557074546813966,0.0],"name":"Spine1.001","children":[35,37,43]},{"translation":[0.0,0.22666102647781373,0.0],"name":"Spine.001","children":[44]},{"translation":[0.0,0.9830955266952516,0.0],"name":"Hips.001","children":[26,29,45]}],"scene":0,"scenes":[{"nodes":[0,23,46],"name":"Scene"}],"textures":[{"extensions":{"MSFT_texture_dds":{"source":0}}},{"extensions":{"MSFT_texture_dds":{"source":1}}},{"extensions":{"MSFT_texture_dds":{"source":2}}}],"buffers":[{"byteLength":8805246,"uri":"Neoflywreckedplane1.bin"}],"images":[{"uri":"TEX_0.JPG.DDS","name":"tex_0","extras":"ASOBO_image_converted_meta"},{"uri":"TEX_1.JPG.DDS","name":"tex_1","extras":"ASOBO_image_converted_meta"},{"uri":"TEX_2.JPG.DDS","name":"tex_2","extras":"ASOBO_image_converted_meta"}]}
