{"accessors":[{"bufferView":0,"componentType":5126,"count":17613,"min":[-617.374755859375,-27.061790466308595,-384.78228759765627],"max":[584.591552734375,296.8547058105469,472.5711669921875],"type":"VEC3","name":"Mesh.003_vertices#0_POSITION"},{"bufferView":0,"byteOffset":12,"componentType":5120,"count":17613,"type":"VEC4","name":"Mesh.003_vertices#0_TANGENT"},{"bufferView":0,"byteOffset":16,"componentType":5120,"count":17613,"type":"VEC4","name":"Mesh.003_vertices#0_NORMAL"},{"bufferView":0,"byteOffset":20,"componentType":5122,"count":17613,"type":"VEC2","name":"Mesh.003_vertices#0_TEXCOORD_0"},{"bufferView":0,"byteOffset":24,"componentType":5122,"count":17613,"type":"VEC2","name":"Mesh.003_vertices#0_TEXCOORD_1"},{"bufferView":0,"byteOffset":28,"componentType":5123,"count":17613,"type":"VEC4","name":"Mesh.003_vertices#0_COLOR_0"},{"bufferView":1,"componentType":5123,"count":70791,"type":"SCALAR","name":"Mesh.003_indices#6"},{"bufferView":0,"byteOffset":634068,"componentType":5126,"count":584,"min":[-125.7138671875,99.22799682617188,-450.62677001953127],"max":[108.51431274414063,134.78631591796876,-366.6116027832031],"type":"VEC3","name":"Mesh.004_vertices#0_POSITION"},{"bufferView":0,"byteOffset":634080,"componentType":5120,"count":584,"type":"VEC4","name":"Mesh.004_vertices#0_TANGENT"},{"bufferView":0,"byteOffset":634084,"componentType":5120,"count":584,"type":"VEC4","name":"Mesh.004_vertices#0_NORMAL"},{"bufferView":0,"byteOffset":634088,"componentType":5122,"count":584,"type":"VEC2","name":"Mesh.004_vertices#0_TEXCOORD_0"},{"bufferView":0,"byteOffset":634092,"componentType":5122,"count":584,"type":"VEC2","name":"Mesh.004_vertices#0_TEXCOORD_1"},{"bufferView":0,"byteOffset":634096,"componentType":5123,"count":584,"type":"VEC4","name":"Mesh.004_vertices#0_COLOR_0"},{"bufferView":1,"byteOffset":141582,"componentType":5123,"count":1920,"type":"SCALAR","name":"Mesh.004_indices#0"},{"bufferView":0,"byteOffset":655092,"componentType":5126,"count":2626,"min":[-63.3394775390625,58.436920166015628,-415.872802734375],"max":[63.36474609375,165.3657989501953,-302.01751708984377],"type":"VEC3","name":"Mesh.005_vertices#0_POSITION"},{"bufferView":0,"byteOffset":655104,"componentType":5120,"count":2626,"type":"VEC4","name":"Mesh.005_vertices#0_TANGENT"},{"bufferView":0,"byteOffset":655108,"componentType":5120,"count":2626,"type":"VEC4","name":"Mesh.005_vertices#0_NORMAL"},{"bufferView":0,"byteOffset":655112,"componentType":5122,"count":2626,"type":"VEC2","name":"Mesh.005_vertices#0_TEXCOORD_0"},{"bufferView":0,"byteOffset":655116,"componentType":5122,"count":2626,"type":"VEC2","name":"Mesh.005_vertices#0_TEXCOORD_1"},{"bufferView":0,"byteOffset":655120,"componentType":5123,"count":2626,"type":"VEC4","name":"Mesh.005_vertices#0_COLOR_0"},{"bufferView":1,"byteOffset":145422,"componentType":5123,"count":11673,"type":"SCALAR","name":"Mesh.005_indices#0"},{"bufferView":0,"byteOffset":749628,"componentType":5126,"count":63,"min":[60.419403076171878,71.62753295898438,-239.40567016601563],"max":[296.61846923828127,191.20904541015626,-165.44064331054688],"type":"VEC3","name":"Mesh.006_vertices#0_POSITION"},{"bufferView":0,"byteOffset":749640,"componentType":5120,"count":63,"type":"VEC4","name":"Mesh.006_vertices#0_TANGENT"},{"bufferView":0,"byteOffset":749644,"componentType":5120,"count":63,"type":"VEC4","name":"Mesh.006_vertices#0_NORMAL"},{"bufferView":0,"byteOffset":749648,"componentType":5122,"count":63,"type":"VEC2","name":"Mesh.006_vertices#0_TEXCOORD_0"},{"bufferView":0,"byteOffset":749652,"componentType":5122,"count":63,"type":"VEC2","name":"Mesh.006_vertices#0_TEXCOORD_1"},{"bufferView":0,"byteOffset":749656,"componentType":5123,"count":63,"type":"VEC4","name":"Mesh.006_vertices#0_COLOR_0"},{"bufferView":1,"byteOffset":168768,"componentType":5123,"count":252,"type":"SCALAR","name":"Mesh.006_indices#0"}],"asset":{"generator":"Extended Khronos glTF Blender I/O v1.0.0","version":"2.0","extensions":{"ASOBO_asset_optimized":{"BoundingBoxMax":[584.591552734375,296.8547058105469,472.5711669921875],"BoundingBoxMin":[-617.374755859375,-27.061790466308595,-450.62677001953127],"MajorVersion":4,"MinorVersion":2},"ASOBO_normal_map_convention":{"tangent_space_convention":"DirectX"}}},"bufferViews":[{"buffer":0,"byteLength":751896,"byteStride":36,"target":34962,"name":"BufferViewVertexND"},{"buffer":0,"byteLength":169272,"byteOffset":751896,"target":34963,"name":"BufferViewIndex"}],"extensionsUsed":["ASOBO_normal_map_convention","MSFT_texture_dds","ASOBO_asset_optimized"],"extensionsRequired":["MSFT_texture_dds"],"materials":[{"name":"Altbody","normalTexture":{"index":0},"occlusionTexture":{"index":1},"pbrMetallicRoughness":{"baseColorTexture":{"index":2},"metallicRoughnessTexture":{"index":1}}},{"name":"Material.002","normalTexture":{"index":3},"pbrMetallicRoughness":{"metallicFactor":0.0,"roughnessFactor":0.5,"baseColorTexture":{"index":4}}},{"name":"Material.004","alphaMode":"BLEND","pbrMetallicRoughness":{"baseColorFactor":[0.800000011920929,0.800000011920929,0.800000011920929,0.05000000074505806],"metallicFactor":0.0,"roughnessFactor":0.05000000074505806},"extras":{"ASOBO_material_code":"Windshield"}},{"name":"Material.003","normalTexture":{"index":5},"occlusionTexture":{"index":6},"pbrMetallicRoughness":{"baseColorTexture":{"index":7},"metallicRoughnessTexture":{"index":6}}},{"name":"Material.001","pbrMetallicRoughness":{"metallicFactor":0.0,"roughnessFactor":0.5,"baseColorTexture":{"index":8}}},{"name":"Material.005","normalTexture":{"index":9},"pbrMetallicRoughness":{"metallicFactor":0.0,"roughnessFactor":0.5,"baseColorTexture":{"index":10}}},{"name":"Material.006","normalTexture":{"index":12},"emissiveTexture":{"index":11},"pbrMetallicRoughness":{"metallicFactor":0.0,"roughnessFactor":0.5,"baseColorTexture":{"index":13}}},{"name":"Material.008","pbrMetallicRoughness":{"metallicFactor":0.0,"roughnessFactor":0.5,"baseColorTexture":{"index":14}}}],"meshes":[{"primitives":[{"attributes":{"COLOR_0":5,"NORMAL":2,"POSITION":0,"TANGENT":1,"TEXCOORD_0":3,"TEXCOORD_1":4},"indices":6,"material":0,"mode":4,"extras":{"ASOBO_primitive":{"PrimitiveCount":1472,"VertexType":"VTX","VertexVersion":2}}},{"attributes":{"COLOR_0":5,"NORMAL":2,"POSITION":0,"TANGENT":1,"TEXCOORD_0":3,"TEXCOORD_1":4},"indices":6,"material":1,"mode":4,"extras":{"ASOBO_primitive":{"PrimitiveCount":4008,"StartIndex":4416,"VertexType":"VTX","VertexVersion":2}}},{"attributes":{"COLOR_0":5,"NORMAL":2,"POSITION":0,"TANGENT":1,"TEXCOORD_0":3,"TEXCOORD_1":4},"indices":6,"material":2,"mode":4,"extras":{"ASOBO_primitive":{"PrimitiveCount":3232,"StartIndex":16440,"VertexType":"VTX","VertexVersion":2}}},{"attributes":{"COLOR_0":5,"NORMAL":2,"POSITION":0,"TANGENT":1,"TEXCOORD_0":3,"TEXCOORD_1":4},"indices":6,"material":3,"mode":4,"extras":{"ASOBO_primitive":{"PrimitiveCount":7424,"StartIndex":26136,"VertexType":"VTX","VertexVersion":2}}},{"attributes":{"COLOR_0":5,"NORMAL":2,"POSITION":0,"TANGENT":1,"TEXCOORD_0":3,"TEXCOORD_1":4},"indices":6,"material":4,"mode":4,"extras":{"ASOBO_primitive":{"PrimitiveCount":2473,"StartIndex":48408,"VertexType":"VTX","VertexVersion":2}}},{"attributes":{"COLOR_0":5,"NORMAL":2,"POSITION":0,"TANGENT":1,"TEXCOORD_0":3,"TEXCOORD_1":4},"indices":6,"material":5,"mode":4,"extras":{"ASOBO_primitive":{"PrimitiveCount":2180,"StartIndex":55827,"VertexType":"VTX","VertexVersion":2}}},{"attributes":{"COLOR_0":5,"NORMAL":2,"POSITION":0,"TANGENT":1,"TEXCOORD_0":3,"TEXCOORD_1":4},"indices":6,"material":6,"mode":4,"extras":{"ASOBO_primitive":{"PrimitiveCount":2808,"StartIndex":62367,"VertexType":"VTX","VertexVersion":2}}}],"name":"Mesh.003"},{"primitives":[{"attributes":{"COLOR_0":12,"NORMAL":9,"POSITION":7,"TANGENT":8,"TEXCOORD_0":10,"TEXCOORD_1":11},"indices":13,"material":7,"mode":4,"extras":{"ASOBO_primitive":{"PrimitiveCount":640,"VertexType":"VTX","VertexVersion":2}}}],"name":"Mesh.004"},{"primitives":[{"attributes":{"COLOR_0":19,"NORMAL":16,"POSITION":14,"TANGENT":15,"TEXCOORD_0":17,"TEXCOORD_1":18},"indices":20,"material":0,"mode":4,"extras":{"ASOBO_primitive":{"PrimitiveCount":3891,"VertexType":"VTX","VertexVersion":2}}}],"name":"Mesh.005"},{"primitives":[{"attributes":{"COLOR_0":26,"NORMAL":23,"POSITION":21,"TANGENT":22,"TEXCOORD_0":24,"TEXCOORD_1":25},"indices":27,"material":4,"mode":4,"extras":{"ASOBO_primitive":{"PrimitiveCount":84,"VertexType":"VTX","VertexVersion":2}}}],"name":"Mesh.006"}],"nodes":[{"translation":[-0.007992744445800782,2.3055012226104738,-0.005854213610291481],"rotation":[-0.9966212511062622,0.0,0.0,0.08213432133197785],"scale":[0.009999990463256836,0.009999990463256836,0.009999990463256836],"mesh":0,"name":"haleror_2"},{"translation":[-0.012488126754760743,2.722682476043701,-0.02590378560125828],"rotation":[-0.9966212511062622,0.0,0.0,0.08213432133197785],"scale":[0.009999990463256836,0.009999990463256836,0.009999990463256836],"mesh":1,"name":"xtras_3"},{"translation":[-0.008690118789672852,2.7229926586151125,-0.027773702517151834],"rotation":[-0.9966212511062622,0.0,0.0,0.08213432133197785],"scale":[0.009999990463256836,0.009999990463256836,0.009999990463256836],"mesh":2,"name":"xtras_4"},{"translation":[-0.4830174446105957,0.6325021982192993,2.2170135974884035],"rotation":[-0.9087022542953492,-0.2097002863883972,0.3263348340988159,0.15424516797065736],"scale":[0.009999990463256836,0.009999990463256836,0.009999990463256836],"mesh":3,"name":"xtras_2.001"}],"scene":0,"scenes":[{"nodes":[0,1,2,3],"name":"Scene"}],"textures":[{"extensions":{"MSFT_texture_dds":{"source":0}}},{"extensions":{"MSFT_texture_dds":{"source":1}}},{"extensions":{"MSFT_texture_dds":{"source":2}}},{"extensions":{"MSFT_texture_dds":{"source":3}}},{"extensions":{"MSFT_texture_dds":{"source":4}}},{"extensions":{"MSFT_texture_dds":{"source":5}}},{"extensions":{"MSFT_texture_dds":{"source":6}}},{"extensions":{"MSFT_texture_dds":{"source":7}}},{"extensions":{"MSFT_texture_dds":{"source":2}}},{"extensions":{"MSFT_texture_dds":{"source":8}}},{"extensions":{"MSFT_texture_dds":{"source":9}}},{"extensions":{"MSFT_texture_dds":{"source":10}}},{"extensions":{"MSFT_texture_dds":{"source":11}}},{"extensions":{"MSFT_texture_dds":{"source":12}}},{"extensions":{"MSFT_texture_dds":{"source":13}}}],"buffers":[{"byteLength":921168,"uri":"Neoflycrashedplane3.bin"}],"images":[{"uri":"ALTBODY_NORMAL_DIRECTX.JPG.DDS","name":"Altbody_Normal_DirectX","extras":"ASOBO_image_converted_meta"},{"uri":"ALTBODY_ROUGHNESS.JPG.DDS","name":"Altbody_Roughness","extras":"ASOBO_image_converted_meta"},{"uri":"ALTBODY_BASE_COLOR.JPG.DDS","name":"Altbody_Base_Color","extras":"ASOBO_image_converted_meta"},{"uri":"XTRA_NORMAL_DIRECTX.JPG.DDS","name":"xtra_Normal_DirectX","extras":"ASOBO_image_converted_meta"},{"uri":"XTRA_BASE_COLOR.JPG.DDS","name":"xtra_Base_Color","extras":"ASOBO_image_converted_meta"},{"uri":"MAIN_NORMAL_DIRECTX.JPG.DDS","name":"Main_Normal_DirectX","extras":"ASOBO_image_converted_meta"},{"uri":"MAIN_METALLIC.JPG.DDS","name":"Main_Metallic","extras":"ASOBO_image_converted_meta"},{"uri":"MAIN_BASE_COLOR.JPG.DDS","name":"Main_Base_Color","extras":"ASOBO_image_converted_meta"},{"uri":"INTERIOR_NORMAL_DIRECTX.JPG.DDS","name":"interior_Normal_DirectX","extras":"ASOBO_image_converted_meta"},{"uri":"INTERIOR_BASE_COLOR.JPG.DDS","name":"interior_Base_Color","extras":"ASOBO_image_converted_meta"},{"uri":"SEATS_AND_STUFF_ROUGHNESS.JPG.DDS","name":"seats_and_stuff_Roughness","extras":"ASOBO_image_converted_meta"},{"uri":"SEATS_AND_STUFF_NORMAL_DIRECTX.JPG.DDS","name":"seats_and_stuff_Normal_DirectX","extras":"ASOBO_image_converted_meta"},{"uri":"SEATS_AND_STUFF_BASE_COLOR.JPG.DDS","name":"seats_and_stuff_Base_Color","extras":"ASOBO_image_converted_meta"},{"uri":"XTRA_BASE_COLOR-1.JPG.DDS","name":"xtra_Base_Color","extras":"ASOBO_image_converted_meta"}]}
