{"accessors":[{"bufferView":0,"componentType":5126,"count":2002,"min":[0.0],"max":[83.375],"type":"SCALAR"},{"bufferView":1,"componentType":5126,"count":2002,"type":"VEC3"},{"bufferView":2,"componentType":5126,"count":2001,"min":[0.0],"max":[83.33333333333333],"type":"SCALAR"},{"bufferView":3,"componentType":5126,"count":2001,"type":"VEC3"},{"bufferView":4,"componentType":5126,"count":2000,"min":[0.0],"max":[83.29166666666667],"type":"SCALAR"},{"bufferView":5,"componentType":5126,"count":2000,"type":"VEC3"},{"bufferView":6,"componentType":5126,"count":2000,"type":"VEC3"},{"bufferView":7,"componentType":5126,"count":670,"min":[-0.6424797177314758,-0.02811548113822937,1.0906031131744385],"max":[0.64248126745224,0.18248648941516877,2.309396505355835],"type":"VEC3","name":"Cube.052_vertices#0_POSITION"},{"bufferView":7,"byteOffset":12,"componentType":5120,"count":670,"type":"VEC4","name":"Cube.052_vertices#0_TANGENT"},{"bufferView":7,"byteOffset":16,"componentType":5120,"count":670,"type":"VEC4","name":"Cube.052_vertices#0_NORMAL"},{"bufferView":7,"byteOffset":20,"componentType":5122,"count":670,"type":"VEC2","name":"Cube.052_vertices#0_TEXCOORD_0"},{"bufferView":7,"byteOffset":24,"componentType":5122,"count":670,"type":"VEC2","name":"Cube.052_vertices#0_TEXCOORD_1"},{"bufferView":7,"byteOffset":28,"componentType":5123,"count":670,"type":"VEC4","name":"Cube.052_vertices#0_COLOR_0"},{"bufferView":8,"componentType":5123,"count":1080,"type":"SCALAR","name":"Cube.052_indices#0"},{"bufferView":7,"byteOffset":24120,"componentType":5126,"count":5552,"min":[-1.3745887279510499,-0.8181818723678589,-5.947938919067383],"max":[4.279306411743164,0.8251108527183533,0.8190383315086365],"type":"VEC3","name":"Cube.023_vertices#0_POSITION"},{"bufferView":7,"byteOffset":24132,"componentType":5120,"count":5552,"type":"VEC4","name":"Cube.023_vertices#0_TANGENT"},{"bufferView":7,"byteOffset":24136,"componentType":5120,"count":5552,"type":"VEC4","name":"Cube.023_vertices#0_NORMAL"},{"bufferView":7,"byteOffset":24140,"componentType":5122,"count":5552,"type":"VEC2","name":"Cube.023_vertices#0_TEXCOORD_0"},{"bufferView":7,"byteOffset":24144,"componentType":5122,"count":5552,"type":"VEC2","name":"Cube.023_vertices#0_TEXCOORD_1"},{"bufferView":7,"byteOffset":24148,"componentType":5123,"count":5552,"type":"VEC4","name":"Cube.023_vertices#0_COLOR_0"},{"bufferView":8,"byteOffset":2160,"componentType":5123,"count":13200,"type":"SCALAR","name":"Cube.023_indices#3"},{"bufferView":7,"byteOffset":223992,"componentType":5126,"count":5552,"min":[-1.3745887279510499,-0.8181818723678589,-5.947938919067383],"max":[4.279306411743164,0.8251108527183533,0.8190383315086365],"type":"VEC3","name":"Cube.281_vertices#0_POSITION"},{"bufferView":7,"byteOffset":224004,"componentType":5120,"count":5552,"type":"VEC4","name":"Cube.281_vertices#0_TANGENT"},{"bufferView":7,"byteOffset":224008,"componentType":5120,"count":5552,"type":"VEC4","name":"Cube.281_vertices#0_NORMAL"},{"bufferView":7,"byteOffset":224012,"componentType":5122,"count":5552,"type":"VEC2","name":"Cube.281_vertices#0_TEXCOORD_0"},{"bufferView":7,"byteOffset":224016,"componentType":5122,"count":5552,"type":"VEC2","name":"Cube.281_vertices#0_TEXCOORD_1"},{"bufferView":7,"byteOffset":224020,"componentType":5123,"count":5552,"type":"VEC4","name":"Cube.281_vertices#0_COLOR_0"},{"bufferView":8,"byteOffset":28560,"componentType":5123,"count":13200,"type":"SCALAR","name":"Cube.281_indices#3"},{"bufferView":7,"byteOffset":423864,"componentType":5126,"count":5552,"min":[-1.3745887279510499,-0.8181818723678589,-5.947938919067383],"max":[4.279306411743164,0.8251108527183533,0.8190383315086365],"type":"VEC3","name":"Cube.282_vertices#0_POSITION"},{"bufferView":7,"byteOffset":423876,"componentType":5120,"count":5552,"type":"VEC4","name":"Cube.282_vertices#0_TANGENT"},{"bufferView":7,"byteOffset":423880,"componentType":5120,"count":5552,"type":"VEC4","name":"Cube.282_vertices#0_NORMAL"},{"bufferView":7,"byteOffset":423884,"componentType":5122,"count":5552,"type":"VEC2","name":"Cube.282_vertices#0_TEXCOORD_0"},{"bufferView":7,"byteOffset":423888,"componentType":5122,"count":5552,"type":"VEC2","name":"Cube.282_vertices#0_TEXCOORD_1"},{"bufferView":7,"byteOffset":423892,"componentType":5123,"count":5552,"type":"VEC4","name":"Cube.282_vertices#0_COLOR_0"},{"bufferView":8,"byteOffset":54960,"componentType":5123,"count":13200,"type":"SCALAR","name":"Cube.282_indices#3"},{"bufferView":7,"byteOffset":623736,"componentType":5126,"count":5552,"min":[-1.3745887279510499,-0.8181818723678589,-5.947938919067383],"max":[4.279306411743164,0.8251108527183533,0.8190383315086365],"type":"VEC3","name":"Cube.283_vertices#0_POSITION"},{"bufferView":7,"byteOffset":623748,"componentType":5120,"count":5552,"type":"VEC4","name":"Cube.283_vertices#0_TANGENT"},{"bufferView":7,"byteOffset":623752,"componentType":5120,"count":5552,"type":"VEC4","name":"Cube.283_vertices#0_NORMAL"},{"bufferView":7,"byteOffset":623756,"componentType":5122,"count":5552,"type":"VEC2","name":"Cube.283_vertices#0_TEXCOORD_0"},{"bufferView":7,"byteOffset":623760,"componentType":5122,"count":5552,"type":"VEC2","name":"Cube.283_vertices#0_TEXCOORD_1"},{"bufferView":7,"byteOffset":623764,"componentType":5123,"count":5552,"type":"VEC4","name":"Cube.283_vertices#0_COLOR_0"},{"bufferView":8,"byteOffset":81360,"componentType":5123,"count":13200,"type":"SCALAR","name":"Cube.283_indices#3"}],"animations":[{"name":"Neoflycargo_urgent_u_4","channels":[{"sampler":0,"target":{"node":1,"path":"translation"}},{"sampler":1,"target":{"node":2,"path":"translation"}},{"sampler":2,"target":{"node":3,"path":"translation"}},{"sampler":3,"target":{"node":4,"path":"translation"}}],"samplers":[{"input":0,"output":1,"interpolation":"LINEAR"},{"input":2,"output":3,"interpolation":"LINEAR"},{"input":4,"output":5,"interpolation":"LINEAR"},{"input":4,"output":6,"interpolation":"LINEAR"}]}],"asset":{"generator":"Khronos glTF Blender I/O v1.8.19 and Asobo Studio MSFS Blender I/O v1.1.6","version":"2.0","extensions":{"ASOBO_asset_optimized":{"BoundingBoxMax":[5.835417747497559,0.6750907301902771,2.309396505355835],"BoundingBoxMin":[-1.8744392395019532,-0.6694215536117554,-4.866495609283447],"MajorVersion":4,"MinorVersion":4,"UseCheckerboardMaterialForMissingTextures":true,"UseOnlyFilenameForImageURI":true},"ASOBO_normal_map_convention":{"tangent_space_convention":"DirectX"}}},"bufferViews":[{"buffer":0,"byteLength":8008},{"buffer":0,"byteLength":24024,"byteOffset":8008},{"buffer":0,"byteLength":8004,"byteOffset":32032},{"buffer":0,"byteLength":24012,"byteOffset":40036},{"buffer":0,"byteLength":8000,"byteOffset":64048},{"buffer":0,"byteLength":24000,"byteOffset":72048},{"buffer":0,"byteLength":24000,"byteOffset":96048},{"buffer":0,"byteLength":823608,"byteStride":36,"byteOffset":120048,"target":34962,"name":"BufferViewVertexND"},{"buffer":0,"byteLength":107760,"byteOffset":943656,"target":34963,"name":"BufferViewIndex"}],"extensionsRequired":["MSFT_texture_dds"],"materials":[{"name":"cargo0A","normalTexture":{"index":0},"occlusionTexture":{"index":1},"pbrMetallicRoughness":{"baseColorFactor":[0.9999988079071044,0.9999989867210388,1.0,1.0],"baseColorTexture":{"index":2},"metallicRoughnessTexture":{"index":1}}},{"name":"Cargeo4b.001","pbrMetallicRoughness":{"baseColorTexture":{"index":3}}},{"name":"Cargo4a.001","normalTexture":{"index":5},"pbrMetallicRoughness":{"baseColorTexture":{"index":6}}},{"name":"Cargo4c.001","alphaMode":"BLEND","pbrMetallicRoughness":{"baseColorTexture":{"index":8}},"extensions":{"ASOBO_material_blend_gbuffer":{},"ASOBO_material_draw_order":{"drawOrderOffset":2}}},{"name":"Cargo4d","alphaMode":"BLEND","pbrMetallicRoughness":{"baseColorTexture":{"index":9}},"extensions":{"ASOBO_material_blend_gbuffer":{}}}],"meshes":[{"primitives":[{"attributes":{"COLOR_0":12,"NORMAL":9,"POSITION":7,"TANGENT":8,"TEXCOORD_0":10,"TEXCOORD_1":11},"indices":13,"material":0,"mode":4,"extras":{"ASOBO_primitive":{"PrimitiveCount":360,"VertexType":"VTX","VertexVersion":2}}}],"name":"Cube.052"},{"primitives":[{"attributes":{"COLOR_0":19,"NORMAL":16,"POSITION":14,"TANGENT":15,"TEXCOORD_0":17,"TEXCOORD_1":18},"indices":20,"material":1,"mode":4,"extras":{"ASOBO_primitive":{"PrimitiveCount":896,"VertexType":"VTX","VertexVersion":2}}},{"attributes":{"COLOR_0":19,"NORMAL":16,"POSITION":14,"TANGENT":15,"TEXCOORD_0":17,"TEXCOORD_1":18},"indices":20,"material":2,"mode":4,"extras":{"ASOBO_primitive":{"PrimitiveCount":3328,"StartIndex":2688,"VertexType":"VTX","VertexVersion":2}}},{"attributes":{"COLOR_0":19,"NORMAL":16,"POSITION":14,"TANGENT":15,"TEXCOORD_0":17,"TEXCOORD_1":18},"indices":20,"material":3,"mode":4,"extras":{"ASOBO_primitive":{"PrimitiveCount":48,"StartIndex":12672,"VertexType":"VTX","VertexVersion":2}}},{"attributes":{"COLOR_0":19,"NORMAL":16,"POSITION":14,"TANGENT":15,"TEXCOORD_0":17,"TEXCOORD_1":18},"indices":20,"material":4,"mode":4,"extras":{"ASOBO_primitive":{"PrimitiveCount":128,"StartIndex":12816,"VertexType":"VTX","VertexVersion":2}}}],"name":"Cube.023"},{"primitives":[{"attributes":{"COLOR_0":26,"NORMAL":23,"POSITION":21,"TANGENT":22,"TEXCOORD_0":24,"TEXCOORD_1":25},"indices":27,"material":1,"mode":4,"extras":{"ASOBO_primitive":{"PrimitiveCount":896,"VertexType":"VTX","VertexVersion":2}}},{"attributes":{"COLOR_0":26,"NORMAL":23,"POSITION":21,"TANGENT":22,"TEXCOORD_0":24,"TEXCOORD_1":25},"indices":27,"material":2,"mode":4,"extras":{"ASOBO_primitive":{"PrimitiveCount":3328,"StartIndex":2688,"VertexType":"VTX","VertexVersion":2}}},{"attributes":{"COLOR_0":26,"NORMAL":23,"POSITION":21,"TANGENT":22,"TEXCOORD_0":24,"TEXCOORD_1":25},"indices":27,"material":3,"mode":4,"extras":{"ASOBO_primitive":{"PrimitiveCount":48,"StartIndex":12672,"VertexType":"VTX","VertexVersion":2}}},{"attributes":{"COLOR_0":26,"NORMAL":23,"POSITION":21,"TANGENT":22,"TEXCOORD_0":24,"TEXCOORD_1":25},"indices":27,"material":4,"mode":4,"extras":{"ASOBO_primitive":{"PrimitiveCount":128,"StartIndex":12816,"VertexType":"VTX","VertexVersion":2}}}],"name":"Cube.281"},{"primitives":[{"attributes":{"COLOR_0":33,"NORMAL":30,"POSITION":28,"TANGENT":29,"TEXCOORD_0":31,"TEXCOORD_1":32},"indices":34,"material":1,"mode":4,"extras":{"ASOBO_primitive":{"PrimitiveCount":896,"VertexType":"VTX","VertexVersion":2}}},{"attributes":{"COLOR_0":33,"NORMAL":30,"POSITION":28,"TANGENT":29,"TEXCOORD_0":31,"TEXCOORD_1":32},"indices":34,"material":2,"mode":4,"extras":{"ASOBO_primitive":{"PrimitiveCount":3328,"StartIndex":2688,"VertexType":"VTX","VertexVersion":2}}},{"attributes":{"COLOR_0":33,"NORMAL":30,"POSITION":28,"TANGENT":29,"TEXCOORD_0":31,"TEXCOORD_1":32},"indices":34,"material":3,"mode":4,"extras":{"ASOBO_primitive":{"PrimitiveCount":48,"StartIndex":12672,"VertexType":"VTX","VertexVersion":2}}},{"attributes":{"COLOR_0":33,"NORMAL":30,"POSITION":28,"TANGENT":29,"TEXCOORD_0":31,"TEXCOORD_1":32},"indices":34,"material":4,"mode":4,"extras":{"ASOBO_primitive":{"PrimitiveCount":128,"StartIndex":12816,"VertexType":"VTX","VertexVersion":2}}}],"name":"Cube.282"},{"primitives":[{"attributes":{"COLOR_0":40,"NORMAL":37,"POSITION":35,"TANGENT":36,"TEXCOORD_0":38,"TEXCOORD_1":39},"indices":41,"material":1,"mode":4,"extras":{"ASOBO_primitive":{"PrimitiveCount":896,"VertexType":"VTX","VertexVersion":2}}},{"attributes":{"COLOR_0":40,"NORMAL":37,"POSITION":35,"TANGENT":36,"TEXCOORD_0":38,"TEXCOORD_1":39},"indices":41,"material":2,"mode":4,"extras":{"ASOBO_primitive":{"PrimitiveCount":3328,"StartIndex":2688,"VertexType":"VTX","VertexVersion":2}}},{"attributes":{"COLOR_0":40,"NORMAL":37,"POSITION":35,"TANGENT":36,"TEXCOORD_0":38,"TEXCOORD_1":39},"indices":41,"material":3,"mode":4,"extras":{"ASOBO_primitive":{"PrimitiveCount":48,"StartIndex":12672,"VertexType":"VTX","VertexVersion":2}}},{"attributes":{"COLOR_0":40,"NORMAL":37,"POSITION":35,"TANGENT":36,"TEXCOORD_0":38,"TEXCOORD_1":39},"indices":41,"material":4,"mode":4,"extras":{"ASOBO_primitive":{"PrimitiveCount":128,"StartIndex":12816,"VertexType":"VTX","VertexVersion":2}}}],"name":"Cube.283"}],"nodes":[{"mesh":0,"name":"Neoflycargo00"},{"translation":[-0.4757155478000641,-199.6687469482422,1.4347301721572877],"rotation":[0.0,-0.7071068286895752,0.0,0.7071068286895752],"scale":[0.25,0.15000000596046449,0.15000000596046449],"mesh":1,"name":"Neoflycargo06 x1.001"},{"translation":[-0.4757155478000641,-199.36961364746098,1.4347301721572877],"rotation":[0.0,-0.7071068286895752,0.0,0.7071068286895752],"scale":[0.25,0.15000000596046449,0.15000000596046449],"mesh":2,"name":"Neoflycargo06 x1.002"},{"translation":[-0.4757155478000641,-199.0691375732422,1.4347301721572877],"rotation":[0.0,-0.7071068286895752,0.0,0.7071068286895752],"scale":[0.25,0.15000000596046449,0.15000000596046449],"mesh":3,"name":"Neoflycargo06 x1.003"},{"translation":[-0.4757155478000641,-198.77000427246098,1.4347301721572877],"rotation":[0.0,-0.7071068286895752,0.0,0.7071068286895752],"scale":[0.25,0.15000000596046449,0.15000000596046449],"mesh":4,"name":"Neoflycargo06 x1.004"}],"scene":0,"scenes":[{"nodes":[0,1,2,3,4],"name":"Scene"}],"textures":[{"extensions":{"MSFT_texture_dds":{"source":0}}},{"extensions":{"MSFT_texture_dds":{"source":1}}},{"extensions":{"MSFT_texture_dds":{"source":2}}},{"extensions":{"MSFT_texture_dds":{"source":3}}},{"sampler":0,"source":4},{"extensions":{"MSFT_texture_dds":{"source":5}}},{"extensions":{"MSFT_texture_dds":{"source":6}}},{"sampler":0,"source":4},{"extensions":{"MSFT_texture_dds":{"source":7}}},{"extensions":{"MSFT_texture_dds":{"source":8}}}],"samplers":[{"magFilter":9729,"minFilter":9987,"wrapS":10497,"wrapT":10497}],"extensionsUsed":["ASOBO_normal_map_convention","ASOBO_material_blend_gbuffer","ASOBO_material_draw_order","MSFT_texture_dds","ASOBO_asset_optimized"],"buffers":[{"byteLength":1051416,"uri":"Neoflycargo_urgent_u_4.bin"}],"images":[{"uri":"NEOFLY_CARGO0A_NORM.PNG.DDS","name":"neofly_cargo0a_norm","extras":"ASOBO_image_converted_meta"},{"uri":"NEOFLY_CARGO0A_COMP.PNG.DDS","name":"neofly_cargo0a_comp","extras":"ASOBO_image_converted_meta"},{"uri":"NEOFLY_CARGO0A_ALBD.PNG.DDS","name":"neofly_cargo0a_albd","extras":"ASOBO_image_converted_meta"},{"uri":"NEOFLY_CARGO4B_ALBD.PNG.DDS","name":"neofly_cargo4b_albd","extras":"ASOBO_image_converted_meta"},{"uri":"neofly_cargo4a_comp.png","name":"neofly_cargo4a_comp"},{"uri":"NEOFLY_CARGO4A_NORM.PNG.DDS","name":"neofly_cargo4a_norm","extras":"ASOBO_image_converted_meta"},{"uri":"NEOFLY_CARGO4A_ALBD.PNG.DDS","name":"neofly_cargo4a_albd","extras":"ASOBO_image_converted_meta"},{"uri":"NEOFLY_CARGO4C_ALBD.PNG.DDS","name":"neofly_cargo4c_albd","extras":"ASOBO_image_converted_meta"},{"uri":"NEOFLY_URGENT_ALBD.PNG.DDS","name":"neofly_urgent_albd","extras":"ASOBO_image_converted_meta"}]}
