{"accessors":[{"bufferView":0,"componentType":5126,"count":2002,"min":[0.0],"max":[83.375],"type":"SCALAR"},{"bufferView":1,"componentType":5126,"count":2002,"type":"VEC3"},{"bufferView":2,"componentType":5126,"count":2002,"type":"VEC3"},{"bufferView":3,"componentType":5126,"count":2000,"min":[0.0],"max":[83.29166666666667],"type":"SCALAR"},{"bufferView":4,"componentType":5126,"count":2000,"type":"VEC3"},{"bufferView":5,"componentType":5126,"count":2001,"min":[0.0],"max":[83.33333333333333],"type":"SCALAR"},{"bufferView":6,"componentType":5126,"count":2001,"type":"VEC3"},{"bufferView":7,"componentType":5126,"count":670,"min":[-0.6424797177314758,-0.02811548113822937,1.0906031131744385],"max":[0.64248126745224,0.18248648941516877,2.309396505355835],"type":"VEC3","name":"Cube.052_vertices#0_POSITION"},{"bufferView":7,"byteOffset":12,"componentType":5120,"count":670,"type":"VEC4","name":"Cube.052_vertices#0_TANGENT"},{"bufferView":7,"byteOffset":16,"componentType":5120,"count":670,"type":"VEC4","name":"Cube.052_vertices#0_NORMAL"},{"bufferView":7,"byteOffset":20,"componentType":5122,"count":670,"type":"VEC2","name":"Cube.052_vertices#0_TEXCOORD_0"},{"bufferView":7,"byteOffset":24,"componentType":5122,"count":670,"type":"VEC2","name":"Cube.052_vertices#0_TEXCOORD_1"},{"bufferView":7,"byteOffset":28,"componentType":5123,"count":670,"type":"VEC4","name":"Cube.052_vertices#0_COLOR_0"},{"bufferView":8,"componentType":5123,"count":1080,"type":"SCALAR","name":"Cube.052_indices#0"},{"bufferView":7,"byteOffset":24120,"componentType":5126,"count":5690,"min":[-0.5419038534164429,0.001979704713448882,-0.4574311375617981],"max":[1.9471951723098755,0.8036282658576965,0.45743048191070559],"type":"VEC3","name":"Sci-Fi_Case_vertices#0_POSITION"},{"bufferView":7,"byteOffset":24132,"componentType":5120,"count":5690,"type":"VEC4","name":"Sci-Fi_Case_vertices#0_TANGENT"},{"bufferView":7,"byteOffset":24136,"componentType":5120,"count":5690,"type":"VEC4","name":"Sci-Fi_Case_vertices#0_NORMAL"},{"bufferView":7,"byteOffset":24140,"componentType":5122,"count":5690,"type":"VEC2","name":"Sci-Fi_Case_vertices#0_TEXCOORD_0"},{"bufferView":7,"byteOffset":24144,"componentType":5122,"count":5690,"type":"VEC2","name":"Sci-Fi_Case_vertices#0_TEXCOORD_1"},{"bufferView":7,"byteOffset":24148,"componentType":5123,"count":5690,"type":"VEC4","name":"Sci-Fi_Case_vertices#0_COLOR_0"},{"bufferView":8,"byteOffset":2160,"componentType":5123,"count":14796,"type":"SCALAR","name":"Sci-Fi_Case_indices#0"},{"bufferView":7,"byteOffset":228960,"componentType":5126,"count":5690,"min":[-0.5419038534164429,0.001979704713448882,-0.457430899143219],"max":[1.9471951723098755,0.8036282658576965,0.45743048191070559],"type":"VEC3","name":"Sci-Fi_Case.004_vertices#0_POSITION"},{"bufferView":7,"byteOffset":228972,"componentType":5120,"count":5690,"type":"VEC4","name":"Sci-Fi_Case.004_vertices#0_TANGENT"},{"bufferView":7,"byteOffset":228976,"componentType":5120,"count":5690,"type":"VEC4","name":"Sci-Fi_Case.004_vertices#0_NORMAL"},{"bufferView":7,"byteOffset":228980,"componentType":5122,"count":5690,"type":"VEC2","name":"Sci-Fi_Case.004_vertices#0_TEXCOORD_0"},{"bufferView":7,"byteOffset":228984,"componentType":5122,"count":5690,"type":"VEC2","name":"Sci-Fi_Case.004_vertices#0_TEXCOORD_1"},{"bufferView":7,"byteOffset":228988,"componentType":5123,"count":5690,"type":"VEC4","name":"Sci-Fi_Case.004_vertices#0_COLOR_0"},{"bufferView":8,"byteOffset":31752,"componentType":5123,"count":14796,"type":"SCALAR","name":"Sci-Fi_Case.004_indices#0"},{"bufferView":7,"byteOffset":433800,"componentType":5126,"count":5690,"min":[-0.5419038534164429,0.001979704713448882,-0.4574311375617981],"max":[1.9471951723098755,0.8036283850669861,0.45743048191070559],"type":"VEC3","name":"Sci-Fi_Case.001_vertices#0_POSITION"},{"bufferView":7,"byteOffset":433812,"componentType":5120,"count":5690,"type":"VEC4","name":"Sci-Fi_Case.001_vertices#0_TANGENT"},{"bufferView":7,"byteOffset":433816,"componentType":5120,"count":5690,"type":"VEC4","name":"Sci-Fi_Case.001_vertices#0_NORMAL"},{"bufferView":7,"byteOffset":433820,"componentType":5122,"count":5690,"type":"VEC2","name":"Sci-Fi_Case.001_vertices#0_TEXCOORD_0"},{"bufferView":7,"byteOffset":433824,"componentType":5122,"count":5690,"type":"VEC2","name":"Sci-Fi_Case.001_vertices#0_TEXCOORD_1"},{"bufferView":7,"byteOffset":433828,"componentType":5123,"count":5690,"type":"VEC4","name":"Sci-Fi_Case.001_vertices#0_COLOR_0"},{"bufferView":8,"byteOffset":61344,"componentType":5123,"count":14796,"type":"SCALAR","name":"Sci-Fi_Case.001_indices#0"},{"bufferView":7,"byteOffset":638640,"componentType":5126,"count":5690,"min":[-0.5419038534164429,0.001979704713448882,-0.457430899143219],"max":[1.9471951723098755,0.8036283850669861,0.45743048191070559],"type":"VEC3","name":"Sci-Fi_Case.006_vertices#0_POSITION"},{"bufferView":7,"byteOffset":638652,"componentType":5120,"count":5690,"type":"VEC4","name":"Sci-Fi_Case.006_vertices#0_TANGENT"},{"bufferView":7,"byteOffset":638656,"componentType":5120,"count":5690,"type":"VEC4","name":"Sci-Fi_Case.006_vertices#0_NORMAL"},{"bufferView":7,"byteOffset":638660,"componentType":5122,"count":5690,"type":"VEC2","name":"Sci-Fi_Case.006_vertices#0_TEXCOORD_0"},{"bufferView":7,"byteOffset":638664,"componentType":5122,"count":5690,"type":"VEC2","name":"Sci-Fi_Case.006_vertices#0_TEXCOORD_1"},{"bufferView":7,"byteOffset":638668,"componentType":5123,"count":5690,"type":"VEC4","name":"Sci-Fi_Case.006_vertices#0_COLOR_0"},{"bufferView":8,"byteOffset":90936,"componentType":5123,"count":14796,"type":"SCALAR","name":"Sci-Fi_Case.006_indices#0"}],"animations":[{"name":"Neoflycargo_hazardous_l_4","channels":[{"sampler":0,"target":{"node":1,"path":"translation"}},{"sampler":1,"target":{"node":2,"path":"translation"}},{"sampler":2,"target":{"node":3,"path":"translation"}},{"sampler":3,"target":{"node":4,"path":"translation"}}],"samplers":[{"input":0,"output":1,"interpolation":"LINEAR"},{"input":0,"output":2,"interpolation":"LINEAR"},{"input":3,"output":4,"interpolation":"LINEAR"},{"input":5,"output":6,"interpolation":"LINEAR"}]}],"asset":{"generator":"Khronos glTF Blender I/O v1.8.19 and Asobo Studio MSFS Blender I/O v1.1.6","version":"2.0","extensions":{"ASOBO_asset_optimized":{"BoundingBoxMax":[1.9471951723098755,0.8036283850669861,2.309396505355835],"BoundingBoxMin":[-0.6424797177314758,-0.02811548113822937,-0.4574311375617981],"MajorVersion":4,"MinorVersion":4,"UseCheckerboardMaterialForMissingTextures":true,"UseOnlyFilenameForImageURI":true},"ASOBO_normal_map_convention":{"tangent_space_convention":"DirectX"}}},"bufferViews":[{"buffer":0,"byteLength":8008},{"buffer":0,"byteLength":24024,"byteOffset":8008},{"buffer":0,"byteLength":24024,"byteOffset":32032},{"buffer":0,"byteLength":8000,"byteOffset":56056},{"buffer":0,"byteLength":24000,"byteOffset":64056},{"buffer":0,"byteLength":8004,"byteOffset":88056},{"buffer":0,"byteLength":24012,"byteOffset":96060},{"buffer":0,"byteLength":843480,"byteStride":36,"byteOffset":120072,"target":34962,"name":"BufferViewVertexND"},{"buffer":0,"byteLength":120528,"byteOffset":963552,"target":34963,"name":"BufferViewIndex"}],"extensionsRequired":["MSFT_texture_dds"],"materials":[{"name":"cargo0A","normalTexture":{"index":0},"occlusionTexture":{"index":1},"pbrMetallicRoughness":{"baseColorFactor":[0.9999988079071044,0.9999989867210388,1.0,1.0],"baseColorTexture":{"index":2},"metallicRoughnessTexture":{"index":1}}},{"name":"Sci-Fi_Case","normalTexture":{"index":4},"occlusionTexture":{"index":5},"emissiveTexture":{"index":3},"emissiveFactor":[1.0,0.0,0.0],"pbrMetallicRoughness":{"baseColorTexture":{"index":6},"metallicRoughnessTexture":{"index":5}}}],"meshes":[{"primitives":[{"attributes":{"COLOR_0":12,"NORMAL":9,"POSITION":7,"TANGENT":8,"TEXCOORD_0":10,"TEXCOORD_1":11},"indices":13,"material":0,"mode":4,"extras":{"ASOBO_primitive":{"PrimitiveCount":360,"VertexType":"VTX","VertexVersion":2}}}],"name":"Cube.052"},{"primitives":[{"attributes":{"COLOR_0":19,"NORMAL":16,"POSITION":14,"TANGENT":15,"TEXCOORD_0":17,"TEXCOORD_1":18},"indices":20,"material":1,"mode":4,"extras":{"ASOBO_primitive":{"PrimitiveCount":4932,"VertexType":"VTX","VertexVersion":2}}}],"name":"Sci-Fi_Case"},{"primitives":[{"attributes":{"COLOR_0":26,"NORMAL":23,"POSITION":21,"TANGENT":22,"TEXCOORD_0":24,"TEXCOORD_1":25},"indices":27,"material":1,"mode":4,"extras":{"ASOBO_primitive":{"PrimitiveCount":4932,"VertexType":"VTX","VertexVersion":2}}}],"name":"Sci-Fi_Case.004"},{"primitives":[{"attributes":{"COLOR_0":33,"NORMAL":30,"POSITION":28,"TANGENT":29,"TEXCOORD_0":31,"TEXCOORD_1":32},"indices":34,"material":1,"mode":4,"extras":{"ASOBO_primitive":{"PrimitiveCount":4932,"VertexType":"VTX","VertexVersion":2}}}],"name":"Sci-Fi_Case.001"},{"primitives":[{"attributes":{"COLOR_0":40,"NORMAL":37,"POSITION":35,"TANGENT":36,"TEXCOORD_0":38,"TEXCOORD_1":39},"indices":41,"material":1,"mode":4,"extras":{"ASOBO_primitive":{"PrimitiveCount":4932,"VertexType":"VTX","VertexVersion":2}}}],"name":"Sci-Fi_Case.006"}],"nodes":[{"mesh":0,"name":"Neoflycargo00"},{"translation":[0.28141483664512637,0.18144842982292176,1.4185173511505128],"rotation":[0.0,-1.0,0.0,-1.6292068494294657e-7],"scale":[0.3999999761581421,0.3999999761581421,0.3999999761581421],"mesh":1,"name":"Sci-Fi_Case.001"},{"translation":[0.28141483664512637,0.18144842982292176,1.9785206317901612],"rotation":[0.0,-1.0,0.0,-1.6292068494294657e-7],"scale":[0.3999999761581421,0.3999999761581421,0.3999999761581421],"mesh":2,"name":"Sci-Fi_Case.003"},{"translation":[0.28141483664512637,0.4792042672634125,1.4185173511505128],"rotation":[0.0,-1.0,0.0,-1.6292068494294657e-7],"scale":[0.3999999761581421,0.3999999761581421,0.3999999761581421],"mesh":3,"name":"Sci-Fi_Case.006"},{"translation":[0.28141483664512637,0.4792042672634125,1.9785206317901612],"rotation":[0.0,-1.0,0.0,-1.6292068494294657e-7],"scale":[0.3999999761581421,0.3999999761581421,0.3999999761581421],"mesh":4,"name":"Sci-Fi_Case.008"}],"scene":0,"scenes":[{"nodes":[0,1,2,3,4],"name":"Scene"}],"textures":[{"extensions":{"MSFT_texture_dds":{"source":0}}},{"extensions":{"MSFT_texture_dds":{"source":1}}},{"extensions":{"MSFT_texture_dds":{"source":2}}},{"extensions":{"MSFT_texture_dds":{"source":3}}},{"extensions":{"MSFT_texture_dds":{"source":4}}},{"extensions":{"MSFT_texture_dds":{"source":5}}},{"extensions":{"MSFT_texture_dds":{"source":6}}}],"samplers":[{"magFilter":9729,"minFilter":9987,"wrapS":10497,"wrapT":10497}],"extensionsUsed":["ASOBO_normal_map_convention","MSFT_texture_dds","ASOBO_asset_optimized"],"buffers":[{"byteLength":1084080,"uri":"Neoflycargo_hazardous_l_4.bin"}],"images":[{"uri":"NEOFLY_CARGO0A_NORM.PNG.DDS","name":"neofly_cargo0a_norm","extras":"ASOBO_image_converted_meta"},{"uri":"NEOFLY_CARGO0A_COMP.PNG.DDS","name":"neofly_cargo0a_comp","extras":"ASOBO_image_converted_meta"},{"uri":"NEOFLY_CARGO0A_ALBD.PNG.DDS","name":"neofly_cargo0a_albd","extras":"ASOBO_image_converted_meta"},{"uri":"NEOFLY_CARGO24_EMIS.PNG.DDS","name":"neofly_cargo24_Emis","extras":"ASOBO_image_converted_meta"},{"uri":"NEOFLY_CARGO24_NORM.PNG.DDS","name":"neofly_cargo24_norm","extras":"ASOBO_image_converted_meta"},{"uri":"NEOFLY_CARGO24_COMP.PNG.DDS","name":"neofly_cargo24_comp","extras":"ASOBO_image_converted_meta"},{"uri":"NEOFLY_CARGO24_ALBD.PNG.DDS","name":"neofly_cargo24_albd","extras":"ASOBO_image_converted_meta"}]}
