{"accessors":[{"bufferView":0,"componentType":5126,"count":2002,"min":[0.0],"max":[83.375],"type":"SCALAR"},{"bufferView":1,"componentType":5126,"count":2002,"type":"VEC3"},{"bufferView":2,"componentType":5126,"count":2002,"type":"VEC3"},{"bufferView":3,"componentType":5126,"count":670,"min":[-0.6424797177314758,-0.02811548113822937,1.0906031131744385],"max":[0.64248126745224,0.18248648941516877,2.309396505355835],"type":"VEC3","name":"Cube.052_vertices#0_POSITION"},{"bufferView":3,"byteOffset":12,"componentType":5120,"count":670,"type":"VEC4","name":"Cube.052_vertices#0_TANGENT"},{"bufferView":3,"byteOffset":16,"componentType":5120,"count":670,"type":"VEC4","name":"Cube.052_vertices#0_NORMAL"},{"bufferView":3,"byteOffset":20,"componentType":5122,"count":670,"type":"VEC2","name":"Cube.052_vertices#0_TEXCOORD_0"},{"bufferView":3,"byteOffset":24,"componentType":5122,"count":670,"type":"VEC2","name":"Cube.052_vertices#0_TEXCOORD_1"},{"bufferView":3,"byteOffset":28,"componentType":5123,"count":670,"type":"VEC4","name":"Cube.052_vertices#0_COLOR_0"},{"bufferView":4,"componentType":5123,"count":1080,"type":"SCALAR","name":"Cube.052_indices#0"},{"bufferView":3,"byteOffset":24120,"componentType":5126,"count":3149,"min":[-0.509468674659729,0.18237480521202088,1.2801991701126099],"max":[0.5092052221298218,0.3946685791015625,2.1197476387023927],"type":"VEC3","name":"Cube.070_vertices#0_POSITION"},{"bufferView":3,"byteOffset":24132,"componentType":5120,"count":3149,"type":"VEC4","name":"Cube.070_vertices#0_TANGENT"},{"bufferView":3,"byteOffset":24136,"componentType":5120,"count":3149,"type":"VEC4","name":"Cube.070_vertices#0_NORMAL"},{"bufferView":3,"byteOffset":24140,"componentType":5122,"count":3149,"type":"VEC2","name":"Cube.070_vertices#0_TEXCOORD_0"},{"bufferView":3,"byteOffset":24144,"componentType":5122,"count":3149,"type":"VEC2","name":"Cube.070_vertices#0_TEXCOORD_1"},{"bufferView":3,"byteOffset":24148,"componentType":5123,"count":3149,"type":"VEC4","name":"Cube.070_vertices#0_COLOR_0"},{"bufferView":4,"byteOffset":2160,"componentType":5123,"count":8304,"type":"SCALAR","name":"Cube.070_indices#1"},{"bufferView":3,"byteOffset":137484,"componentType":5126,"count":3143,"min":[-0.509468674659729,0.3951224982738495,1.2801991701126099],"max":[0.5092052221298218,0.6074163317680359,2.1197476387023927],"type":"VEC3","name":"Cube.099_vertices#0_POSITION"},{"bufferView":3,"byteOffset":137496,"componentType":5120,"count":3143,"type":"VEC4","name":"Cube.099_vertices#0_TANGENT"},{"bufferView":3,"byteOffset":137500,"componentType":5120,"count":3143,"type":"VEC4","name":"Cube.099_vertices#0_NORMAL"},{"bufferView":3,"byteOffset":137504,"componentType":5122,"count":3143,"type":"VEC2","name":"Cube.099_vertices#0_TEXCOORD_0"},{"bufferView":3,"byteOffset":137508,"componentType":5122,"count":3143,"type":"VEC2","name":"Cube.099_vertices#0_TEXCOORD_1"},{"bufferView":3,"byteOffset":137512,"componentType":5123,"count":3143,"type":"VEC4","name":"Cube.099_vertices#0_COLOR_0"},{"bufferView":4,"byteOffset":18768,"componentType":5123,"count":8304,"type":"SCALAR","name":"Cube.099_indices#1"}],"animations":[{"name":"Neoflycargo_standard_u_2","channels":[{"sampler":0,"target":{"node":1,"path":"translation"}},{"sampler":1,"target":{"node":2,"path":"translation"}}],"samplers":[{"input":0,"output":1,"interpolation":"LINEAR"},{"input":0,"output":2,"interpolation":"LINEAR"}]}],"asset":{"generator":"Khronos glTF Blender I/O v1.8.19 and Asobo Studio MSFS Blender I/O v1.1.6","version":"2.0","extensions":{"ASOBO_asset_optimized":{"BoundingBoxMax":[0.64248126745224,0.6074163317680359,2.309396505355835],"BoundingBoxMin":[-0.6424797177314758,-0.02811548113822937,1.0906031131744385],"MajorVersion":4,"MinorVersion":4,"UseCheckerboardMaterialForMissingTextures":true,"UseOnlyFilenameForImageURI":true},"ASOBO_normal_map_convention":{"tangent_space_convention":"DirectX"}}},"bufferViews":[{"buffer":0,"byteLength":8008},{"buffer":0,"byteLength":24024,"byteOffset":8008},{"buffer":0,"byteLength":24024,"byteOffset":32032},{"buffer":0,"byteLength":250632,"byteStride":36,"byteOffset":56056,"target":34962,"name":"BufferViewVertexND"},{"buffer":0,"byteLength":35376,"byteOffset":306688,"target":34963,"name":"BufferViewIndex"}],"extensionsRequired":["MSFT_texture_dds"],"materials":[{"name":"cargo0A","normalTexture":{"index":0},"occlusionTexture":{"index":1},"pbrMetallicRoughness":{"baseColorFactor":[0.9999988079071044,0.9999989867210388,1.0,1.0],"baseColorTexture":{"index":2},"metallicRoughnessTexture":{"index":1}}},{"name":"cargo12a.003","normalTexture":{"index":3},"pbrMetallicRoughness":{"baseColorTexture":{"index":4}}},{"name":"cargo12c","alphaMode":"BLEND","pbrMetallicRoughness":{"baseColorTexture":{"index":6}},"extensions":{"ASOBO_material_blend_gbuffer":{}}}],"meshes":[{"primitives":[{"attributes":{"COLOR_0":8,"NORMAL":5,"POSITION":3,"TANGENT":4,"TEXCOORD_0":6,"TEXCOORD_1":7},"indices":9,"material":0,"mode":4,"extras":{"ASOBO_primitive":{"PrimitiveCount":360,"VertexType":"VTX","VertexVersion":2}}}],"name":"Cube.052"},{"primitives":[{"attributes":{"COLOR_0":15,"NORMAL":12,"POSITION":10,"TANGENT":11,"TEXCOORD_0":13,"TEXCOORD_1":14},"indices":16,"material":1,"mode":4,"extras":{"ASOBO_primitive":{"PrimitiveCount":2640,"VertexType":"VTX","VertexVersion":2}}},{"attributes":{"COLOR_0":15,"NORMAL":12,"POSITION":10,"TANGENT":11,"TEXCOORD_0":13,"TEXCOORD_1":14},"indices":16,"material":2,"mode":4,"extras":{"ASOBO_primitive":{"PrimitiveCount":128,"StartIndex":7920,"VertexType":"VTX","VertexVersion":2}}}],"name":"Cube.070"},{"primitives":[{"attributes":{"COLOR_0":22,"NORMAL":19,"POSITION":17,"TANGENT":18,"TEXCOORD_0":20,"TEXCOORD_1":21},"indices":23,"material":1,"mode":4,"extras":{"ASOBO_primitive":{"PrimitiveCount":2640,"VertexType":"VTX","VertexVersion":2}}},{"attributes":{"COLOR_0":22,"NORMAL":19,"POSITION":17,"TANGENT":18,"TEXCOORD_0":20,"TEXCOORD_1":21},"indices":23,"material":2,"mode":4,"extras":{"ASOBO_primitive":{"PrimitiveCount":128,"StartIndex":7920,"VertexType":"VTX","VertexVersion":2}}}],"name":"Cube.099"}],"nodes":[{"mesh":0,"name":"Neoflycargo00"},{"translation":[0.0,-200.0,0.0],"mesh":1,"name":"Neoflycargo-standard.001"},{"translation":[0.0,-200.0,0.0],"mesh":2,"name":"Neoflycargo-standard.002"}],"scene":0,"scenes":[{"nodes":[0,1,2],"name":"Scene"}],"textures":[{"extensions":{"MSFT_texture_dds":{"source":0}}},{"extensions":{"MSFT_texture_dds":{"source":1}}},{"extensions":{"MSFT_texture_dds":{"source":2}}},{"extensions":{"MSFT_texture_dds":{"source":3}}},{"extensions":{"MSFT_texture_dds":{"source":4}}},{"sampler":0,"source":5},{"extensions":{"MSFT_texture_dds":{"source":6}}}],"samplers":[{"magFilter":9729,"minFilter":9987,"wrapS":10497,"wrapT":10497}],"extensionsUsed":["ASOBO_normal_map_convention","ASOBO_material_blend_gbuffer","MSFT_texture_dds","ASOBO_asset_optimized"],"buffers":[{"byteLength":342064,"uri":"Neoflycargo_standard_u_2.bin"}],"images":[{"uri":"NEOFLY_CARGO0A_NORM.PNG.DDS","name":"neofly_cargo0a_norm","extras":"ASOBO_image_converted_meta"},{"uri":"NEOFLY_CARGO0A_COMP.PNG.DDS","name":"neofly_cargo0a_comp","extras":"ASOBO_image_converted_meta"},{"uri":"NEOFLY_CARGO0A_ALBD.PNG.DDS","name":"neofly_cargo0a_albd","extras":"ASOBO_image_converted_meta"},{"uri":"NEOFLY_CARGO12A_NORM.PNG.DDS","name":"neofly_cargo12a_norm","extras":"ASOBO_image_converted_meta"},{"uri":"NEOFLY_CARGO12A_ALBD.PNG.DDS","name":"neofly_cargo12a_albd","extras":"ASOBO_image_converted_meta"},{"uri":"neofly_cargo12a_comp.png","name":"neofly_cargo12a_comp"},{"uri":"NEOFLY_STANDARD_ALBD.PNG.DDS","name":"neofly_standard_albd","extras":"ASOBO_image_converted_meta"}]}
