{"accessors":[{"bufferView":0,"componentType":5126,"count":40951,"min":[-26.848499298095704,-67.13858795166016,-2.462958574295044],"max":[67.212890625,61.40107727050781,18.10845184326172],"type":"VEC3","name":"Mesh_vertices#0_POSITION"},{"bufferView":0,"byteOffset":12,"componentType":5120,"count":40951,"type":"VEC4","name":"Mesh_vertices#0_TANGENT"},{"bufferView":0,"byteOffset":16,"componentType":5120,"count":40951,"type":"VEC4","name":"Mesh_vertices#0_NORMAL"},{"bufferView":0,"byteOffset":20,"componentType":5122,"count":40951,"type":"VEC2","name":"Mesh_vertices#0_TEXCOORD_0"},{"bufferView":0,"byteOffset":24,"componentType":5122,"count":40951,"type":"VEC2","name":"Mesh_vertices#0_TEXCOORD_1"},{"bufferView":0,"byteOffset":28,"componentType":5123,"count":40951,"type":"VEC4","name":"Mesh_vertices#0_COLOR_0"},{"bufferView":1,"componentType":5123,"count":206802,"type":"SCALAR","name":"Mesh_indices#14"},{"bufferView":0,"byteOffset":1474236,"componentType":5126,"count":13910,"min":[-26.572465896606447,0.19200599193572999,9.809429168701172],"max":[-18.18690299987793,15.257884979248047,18.970687866210939],"type":"VEC3","name":"Mesh.001_vertices#0_POSITION"},{"bufferView":0,"byteOffset":1474248,"componentType":5120,"count":13910,"type":"VEC4","name":"Mesh.001_vertices#0_TANGENT"},{"bufferView":0,"byteOffset":1474252,"componentType":5120,"count":13910,"type":"VEC4","name":"Mesh.001_vertices#0_NORMAL"},{"bufferView":0,"byteOffset":1474256,"componentType":5122,"count":13910,"type":"VEC2","name":"Mesh.001_vertices#0_TEXCOORD_0"},{"bufferView":0,"byteOffset":1474260,"componentType":5122,"count":13910,"type":"VEC2","name":"Mesh.001_vertices#0_TEXCOORD_1"},{"bufferView":0,"byteOffset":1474264,"componentType":5123,"count":13910,"type":"VEC4","name":"Mesh.001_vertices#0_COLOR_0"},{"bufferView":1,"byteOffset":413604,"componentType":5123,"count":73296,"type":"SCALAR","name":"Mesh.001_indices#5"},{"bufferView":0,"byteOffset":1974996,"componentType":5126,"count":95,"min":[4.903041839599609,-57.41810607910156,3.617753028869629],"max":[24.817350387573243,-50.255435943603519,7.638018608093262],"type":"VEC3","name":"Mesh.002_vertices#0_POSITION"},{"bufferView":0,"byteOffset":1975008,"componentType":5120,"count":95,"type":"VEC4","name":"Mesh.002_vertices#0_TANGENT"},{"bufferView":0,"byteOffset":1975012,"componentType":5120,"count":95,"type":"VEC4","name":"Mesh.002_vertices#0_NORMAL"},{"bufferView":0,"byteOffset":1975016,"componentType":5122,"count":95,"type":"VEC2","name":"Mesh.002_vertices#0_TEXCOORD_0"},{"bufferView":0,"byteOffset":1975020,"componentType":5122,"count":95,"type":"VEC2","name":"Mesh.002_vertices#0_TEXCOORD_1"},{"bufferView":0,"byteOffset":1975024,"componentType":5123,"count":95,"type":"VEC4","name":"Mesh.002_vertices#0_COLOR_0"},{"bufferView":1,"byteOffset":560196,"componentType":5123,"count":336,"type":"SCALAR","name":"Mesh.002_indices#0"},{"bufferView":0,"byteOffset":1978416,"componentType":5126,"count":2289,"min":[-66.67036437988281,-19.738117218017579,6.995389938354492],"max":[-23.79745101928711,8.988722801208496,11.612548828125],"type":"VEC3","name":"Mesh.003_vertices#0_POSITION"},{"bufferView":0,"byteOffset":1978428,"componentType":5120,"count":2289,"type":"VEC4","name":"Mesh.003_vertices#0_TANGENT"},{"bufferView":0,"byteOffset":1978432,"componentType":5120,"count":2289,"type":"VEC4","name":"Mesh.003_vertices#0_NORMAL"},{"bufferView":0,"byteOffset":1978436,"componentType":5122,"count":2289,"type":"VEC2","name":"Mesh.003_vertices#0_TEXCOORD_0"},{"bufferView":0,"byteOffset":1978440,"componentType":5122,"count":2289,"type":"VEC2","name":"Mesh.003_vertices#0_TEXCOORD_1"},{"bufferView":0,"byteOffset":1978444,"componentType":5123,"count":2289,"type":"VEC4","name":"Mesh.003_vertices#0_COLOR_0"},{"bufferView":1,"byteOffset":560868,"componentType":5123,"count":10950,"type":"SCALAR","name":"Mesh.003_indices#1"}],"asset":{"generator":"Extended Khronos glTF Blender I/O v1.0.0","version":"2.0","extensions":{"ASOBO_asset_optimized":{"BoundingBoxMax":[67.212890625,61.40107727050781,18.970687866210939],"BoundingBoxMin":[-66.67036437988281,-67.13858795166016,-2.462958574295044],"MajorVersion":4,"MinorVersion":2},"ASOBO_normal_map_convention":{"tangent_space_convention":"DirectX"}}},"bufferViews":[{"buffer":0,"byteLength":2060820,"byteStride":36,"target":34962,"name":"BufferViewVertexND"},{"buffer":0,"byteLength":582768,"byteOffset":2060820,"target":34963,"name":"BufferViewIndex"}],"extensionsUsed":["ASOBO_normal_map_convention","MSFT_texture_dds","ASOBO_asset_optimized"],"extensionsRequired":["MSFT_texture_dds"],"materials":[{"name":"Material.004","pbrMetallicRoughness":{"baseColorFactor":[0.0,0.0,0.0,1.0],"metallicFactor":0.0,"roughnessFactor":0.5}},{"name":"Material.005","pbrMetallicRoughness":{"baseColorFactor":[0.22658422589302064,0.22009055316448213,0.22009055316448213,1.0],"metallicFactor":0.0,"roughnessFactor":0.5}},{"name":"Material.006","pbrMetallicRoughness":{"baseColorFactor":[0.800000011920929,0.800000011920929,0.800000011920929,1.0],"metallicFactor":0.0,"roughnessFactor":0.5}},{"name":"Material.007","pbrMetallicRoughness":{"metallicFactor":0.0,"roughnessFactor":0.5,"baseColorTexture":{"index":0}}},{"name":"Material.008","pbrMetallicRoughness":{"baseColorFactor":[0.06372073292732239,0.06372073292732239,0.06372073292732239,1.0],"metallicFactor":0.0,"roughnessFactor":0.5}},{"name":"Material.009","pbrMetallicRoughness":{"metallicFactor":0.0,"roughnessFactor":0.5,"baseColorTexture":{"index":1}}},{"name":"Material.010","pbrMetallicRoughness":{"metallicFactor":0.0,"roughnessFactor":0.5,"baseColorTexture":{"index":2}}},{"name":"Material.011","pbrMetallicRoughness":{"metallicFactor":0.0,"roughnessFactor":0.5,"baseColorTexture":{"index":3}}},{"name":"Material.012","pbrMetallicRoughness":{"metallicFactor":0.0,"roughnessFactor":0.5,"baseColorTexture":{"index":4}}},{"name":"Material.013","pbrMetallicRoughness":{"metallicFactor":0.0,"roughnessFactor":0.5,"baseColorTexture":{"index":5}}},{"name":"Material.014","pbrMetallicRoughness":{"metallicFactor":0.0,"roughnessFactor":0.5,"baseColorTexture":{"index":6}}},{"name":"Material.003","alphaMode":"BLEND","pbrMetallicRoughness":{"baseColorFactor":[0.036299873143434528,0.4667554199695587,1.0,1.0],"metallicFactor":0.0,"roughnessFactor":0.5}},{"name":"Material.001","pbrMetallicRoughness":{"metallicFactor":0.0,"roughnessFactor":0.5,"baseColorTexture":{"index":7}}},{"name":"Material.002","pbrMetallicRoughness":{"metallicFactor":0.0,"roughnessFactor":0.5,"baseColorTexture":{"index":8}}},{"name":"Material.015","pbrMetallicRoughness":{"metallicFactor":0.0,"roughnessFactor":0.5,"baseColorTexture":{"index":9}}}],"meshes":[{"primitives":[{"attributes":{"COLOR_0":5,"NORMAL":2,"POSITION":0,"TANGENT":1,"TEXCOORD_0":3,"TEXCOORD_1":4},"indices":6,"material":0,"mode":4,"extras":{"ASOBO_primitive":{"PrimitiveCount":19000,"VertexType":"VTX","VertexVersion":2}}},{"attributes":{"COLOR_0":5,"NORMAL":2,"POSITION":0,"TANGENT":1,"TEXCOORD_0":3,"TEXCOORD_1":4},"indices":6,"material":1,"mode":4,"extras":{"ASOBO_primitive":{"PrimitiveCount":1240,"StartIndex":57000,"VertexType":"VTX","VertexVersion":2}}},{"attributes":{"COLOR_0":5,"NORMAL":2,"POSITION":0,"TANGENT":1,"TEXCOORD_0":3,"TEXCOORD_1":4},"indices":6,"material":2,"mode":4,"extras":{"ASOBO_primitive":{"PrimitiveCount":760,"StartIndex":60720,"VertexType":"VTX","VertexVersion":2}}},{"attributes":{"COLOR_0":5,"NORMAL":2,"POSITION":0,"TANGENT":1,"TEXCOORD_0":3,"TEXCOORD_1":4},"indices":6,"material":3,"mode":4,"extras":{"ASOBO_primitive":{"PrimitiveCount":1904,"StartIndex":63000,"VertexType":"VTX","VertexVersion":2}}},{"attributes":{"COLOR_0":5,"NORMAL":2,"POSITION":0,"TANGENT":1,"TEXCOORD_0":3,"TEXCOORD_1":4},"indices":6,"material":4,"mode":4,"extras":{"ASOBO_primitive":{"PrimitiveCount":1120,"StartIndex":68712,"VertexType":"VTX","VertexVersion":2}}},{"attributes":{"COLOR_0":5,"NORMAL":2,"POSITION":0,"TANGENT":1,"TEXCOORD_0":3,"TEXCOORD_1":4},"indices":6,"material":5,"mode":4,"extras":{"ASOBO_primitive":{"PrimitiveCount":480,"StartIndex":72072,"VertexType":"VTX","VertexVersion":2}}},{"attributes":{"COLOR_0":5,"NORMAL":2,"POSITION":0,"TANGENT":1,"TEXCOORD_0":3,"TEXCOORD_1":4},"indices":6,"material":6,"mode":4,"extras":{"ASOBO_primitive":{"PrimitiveCount":200,"StartIndex":73512,"VertexType":"VTX","VertexVersion":2}}},{"attributes":{"COLOR_0":5,"NORMAL":2,"POSITION":0,"TANGENT":1,"TEXCOORD_0":3,"TEXCOORD_1":4},"indices":6,"material":7,"mode":4,"extras":{"ASOBO_primitive":{"PrimitiveCount":760,"StartIndex":74112,"VertexType":"VTX","VertexVersion":2}}},{"attributes":{"COLOR_0":5,"NORMAL":2,"POSITION":0,"TANGENT":1,"TEXCOORD_0":3,"TEXCOORD_1":4},"indices":6,"material":8,"mode":4,"extras":{"ASOBO_primitive":{"PrimitiveCount":26572,"StartIndex":76392,"VertexType":"VTX","VertexVersion":2}}},{"attributes":{"COLOR_0":5,"NORMAL":2,"POSITION":0,"TANGENT":1,"TEXCOORD_0":3,"TEXCOORD_1":4},"indices":6,"material":9,"mode":4,"extras":{"ASOBO_primitive":{"PrimitiveCount":848,"StartIndex":156108,"VertexType":"VTX","VertexVersion":2}}},{"attributes":{"COLOR_0":5,"NORMAL":2,"POSITION":0,"TANGENT":1,"TEXCOORD_0":3,"TEXCOORD_1":4},"indices":6,"material":10,"mode":4,"extras":{"ASOBO_primitive":{"PrimitiveCount":2180,"StartIndex":158652,"VertexType":"VTX","VertexVersion":2}}},{"attributes":{"COLOR_0":5,"NORMAL":2,"POSITION":0,"TANGENT":1,"TEXCOORD_0":3,"TEXCOORD_1":4},"indices":6,"material":11,"mode":4,"extras":{"ASOBO_primitive":{"PrimitiveCount":4768,"StartIndex":165192,"VertexType":"VTX","VertexVersion":2}}},{"attributes":{"COLOR_0":5,"NORMAL":2,"POSITION":0,"TANGENT":1,"TEXCOORD_0":3,"TEXCOORD_1":4},"indices":6,"material":12,"mode":4,"extras":{"ASOBO_primitive":{"PrimitiveCount":2910,"StartIndex":179496,"VertexType":"VTX","VertexVersion":2}}},{"attributes":{"COLOR_0":5,"NORMAL":2,"POSITION":0,"TANGENT":1,"TEXCOORD_0":3,"TEXCOORD_1":4},"indices":6,"material":13,"mode":4,"extras":{"ASOBO_primitive":{"PrimitiveCount":1008,"StartIndex":188226,"VertexType":"VTX","VertexVersion":2}}},{"attributes":{"COLOR_0":5,"NORMAL":2,"POSITION":0,"TANGENT":1,"TEXCOORD_0":3,"TEXCOORD_1":4},"indices":6,"material":14,"mode":4,"extras":{"ASOBO_primitive":{"PrimitiveCount":5184,"StartIndex":191250,"VertexType":"VTX","VertexVersion":2}}}],"name":"Mesh"},{"primitives":[{"attributes":{"COLOR_0":12,"NORMAL":9,"POSITION":7,"TANGENT":8,"TEXCOORD_0":10,"TEXCOORD_1":11},"indices":13,"material":0,"mode":4,"extras":{"ASOBO_primitive":{"PrimitiveCount":19000,"VertexType":"VTX","VertexVersion":2}}},{"attributes":{"COLOR_0":12,"NORMAL":9,"POSITION":7,"TANGENT":8,"TEXCOORD_0":10,"TEXCOORD_1":11},"indices":13,"material":1,"mode":4,"extras":{"ASOBO_primitive":{"PrimitiveCount":1240,"StartIndex":57000,"VertexType":"VTX","VertexVersion":2}}},{"attributes":{"COLOR_0":12,"NORMAL":9,"POSITION":7,"TANGENT":8,"TEXCOORD_0":10,"TEXCOORD_1":11},"indices":13,"material":2,"mode":4,"extras":{"ASOBO_primitive":{"PrimitiveCount":760,"StartIndex":60720,"VertexType":"VTX","VertexVersion":2}}},{"attributes":{"COLOR_0":12,"NORMAL":9,"POSITION":7,"TANGENT":8,"TEXCOORD_0":10,"TEXCOORD_1":11},"indices":13,"material":3,"mode":4,"extras":{"ASOBO_primitive":{"PrimitiveCount":1832,"StartIndex":63000,"VertexType":"VTX","VertexVersion":2}}},{"attributes":{"COLOR_0":12,"NORMAL":9,"POSITION":7,"TANGENT":8,"TEXCOORD_0":10,"TEXCOORD_1":11},"indices":13,"material":4,"mode":4,"extras":{"ASOBO_primitive":{"PrimitiveCount":1120,"StartIndex":68496,"VertexType":"VTX","VertexVersion":2}}},{"attributes":{"COLOR_0":12,"NORMAL":9,"POSITION":7,"TANGENT":8,"TEXCOORD_0":10,"TEXCOORD_1":11},"indices":13,"material":5,"mode":4,"extras":{"ASOBO_primitive":{"PrimitiveCount":480,"StartIndex":71856,"VertexType":"VTX","VertexVersion":2}}}],"name":"Mesh.001"},{"primitives":[{"attributes":{"COLOR_0":19,"NORMAL":16,"POSITION":14,"TANGENT":15,"TEXCOORD_0":17,"TEXCOORD_1":18},"indices":20,"material":10,"mode":4,"extras":{"ASOBO_primitive":{"PrimitiveCount":112,"VertexType":"VTX","VertexVersion":2}}}],"name":"Mesh.002"},{"primitives":[{"attributes":{"COLOR_0":26,"NORMAL":23,"POSITION":21,"TANGENT":22,"TEXCOORD_0":24,"TEXCOORD_1":25},"indices":27,"material":12,"mode":4,"extras":{"ASOBO_primitive":{"PrimitiveCount":1490,"VertexType":"VTX","VertexVersion":2}}},{"attributes":{"COLOR_0":26,"NORMAL":23,"POSITION":21,"TANGENT":22,"TEXCOORD_0":24,"TEXCOORD_1":25},"indices":27,"material":14,"mode":4,"extras":{"ASOBO_primitive":{"PrimitiveCount":2160,"StartIndex":4470,"VertexType":"VTX","VertexVersion":2}}}],"name":"Mesh.003"}],"nodes":[{"translation":[7.966127395629883,-0.08109140396118164,-0.9624921083450316],"rotation":[0.05554929003119469,0.7049214243888855,0.7049214839935303,0.05554928258061409],"scale":[0.5,0.5,0.5],"mesh":0,"name":"SM_Aeroplane_Smooth"},{"translation":[8.732516288757325,-4.0616583824157719,-54.92934036254883],"rotation":[0.08615462481975556,0.706670343875885,0.7018386125564575,0.024838829413056378],"scale":[0.5,0.5000000596046448,0.5],"mesh":1,"name":"SM_Aeroplane_Smooth.001"},{"translation":[7.950079441070557,-1.083647608757019,-14.764872550964356],"rotation":[-0.06879758834838867,0.7037519812583923,0.7037520408630371,-0.06879757344722748],"scale":[0.5,0.5,0.5],"mesh":2,"name":"SM_Aeroplane_Smooth.002"},{"translation":[20.425884246826173,-2.130302906036377,-25.03847312927246],"rotation":[0.14744026958942414,0.7103496789932251,0.6820278167724609,-0.09221040457487107],"scale":[0.5,0.5,0.5],"mesh":3,"name":"SM_Aeroplane_Smooth.003"}],"scene":0,"scenes":[{"nodes":[0,1,2,3],"name":"Scene"}],"textures":[{"extensions":{"MSFT_texture_dds":{"source":0}}},{"extensions":{"MSFT_texture_dds":{"source":1}}},{"extensions":{"MSFT_texture_dds":{"source":2}}},{"extensions":{"MSFT_texture_dds":{"source":3}}},{"extensions":{"MSFT_texture_dds":{"source":4}}},{"extensions":{"MSFT_texture_dds":{"source":5}}},{"extensions":{"MSFT_texture_dds":{"source":6}}},{"extensions":{"MSFT_texture_dds":{"source":7}}},{"extensions":{"MSFT_texture_dds":{"source":8}}},{"extensions":{"MSFT_texture_dds":{"source":9}}}],"buffers":[{"byteLength":2643588,"uri":"Neoflycrashedplane6.bin"}],"images":[{"uri":"AUROPLANE_SMOOTH_M_ENGINE_BASECOLOR.PNG.DDS","name":"Auroplane_Smooth_M_Engine_BaseColor","extras":"ASOBO_image_converted_meta"},{"uri":"AUROPLANE_SMOOTH_M_ENGINE_RIM_BASECOLOR.PNG.DDS","name":"Auroplane_Smooth_M_Engine_Rim_BaseColor","extras":"ASOBO_image_converted_meta"},{"uri":"AUROPLANE_SMOOTH_M_FINS_BASECOLOR.PNG.DDS","name":"Auroplane_Smooth_M_Fins_BaseColor","extras":"ASOBO_image_converted_meta"},{"uri":"AUROPLANE_SMOOTH_M_EXHAUST_BASECOLOR.PNG.DDS","name":"Auroplane_Smooth_M_Exhaust_BaseColor","extras":"ASOBO_image_converted_meta"},{"uri":"AUROPLANE_SMOOTH_M_FUSEL_LODGE_BASECOLOR.PNG.DDS","name":"Auroplane_Smooth_M_Fusel_Lodge_BaseColor","extras":"ASOBO_image_converted_meta"},{"uri":"AUROPLANE_SMOOTH_M_TAIL_BASECOLOR.PNG.DDS","name":"Auroplane_Smooth_M_Tail_BaseColor","extras":"ASOBO_image_converted_meta"},{"uri":"AUROPLANE_SMOOTH_M_TAIL_WINGS_BASECOLOR.PNG.DDS","name":"Auroplane_Smooth_M_Tail_Wings_BaseColor","extras":"ASOBO_image_converted_meta"},{"uri":"AUROPLANE_SMOOTH_M_WINGS_BASECOLOR.PNG.DDS","name":"Auroplane_Smooth_M_Wings_BaseColor","extras":"ASOBO_image_converted_meta"},{"uri":"AUROPLANE_SMOOTH_M_WINDOWFRAME_BASECOLOR.PNG.DDS","name":"Auroplane_Smooth_M_Windowframe_BaseColor","extras":"ASOBO_image_converted_meta"},{"uri":"AUROPLANE_SMOOTH_M_FLAPS_BASECOLOR.PNG.DDS","name":"Auroplane_Smooth_M_Flaps_BaseColor","extras":"ASOBO_image_converted_meta"}]}
