{"accessors":[{"bufferView":0,"componentType":5126,"count":25566,"min":[-24.852378845214845,-58.751007080078128,-28.957294464111329],"max":[64.70957946777344,60.19142532348633,12.95448112487793],"type":"VEC3","name":"Mesh_vertices#0_POSITION"},{"bufferView":0,"byteOffset":12,"componentType":5120,"count":25566,"type":"VEC4","name":"Mesh_vertices#0_TANGENT"},{"bufferView":0,"byteOffset":16,"componentType":5120,"count":25566,"type":"VEC4","name":"Mesh_vertices#0_NORMAL"},{"bufferView":0,"byteOffset":20,"componentType":5122,"count":25566,"type":"VEC2","name":"Mesh_vertices#0_TEXCOORD_0"},{"bufferView":0,"byteOffset":24,"componentType":5122,"count":25566,"type":"VEC2","name":"Mesh_vertices#0_TEXCOORD_1"},{"bufferView":0,"byteOffset":28,"componentType":5123,"count":25566,"type":"VEC4","name":"Mesh_vertices#0_COLOR_0"},{"bufferView":1,"componentType":5123,"count":126405,"type":"SCALAR","name":"Mesh_indices#9"},{"bufferView":0,"byteOffset":920376,"componentType":5126,"count":505,"min":[7.39909553527832,-55.31013488769531,-8.025016784667969],"max":[26.747949600219728,-41.852134704589847,0.17972534894943238],"type":"VEC3","name":"Mesh.001_vertices#0_POSITION"},{"bufferView":0,"byteOffset":920388,"componentType":5120,"count":505,"type":"VEC4","name":"Mesh.001_vertices#0_TANGENT"},{"bufferView":0,"byteOffset":920392,"componentType":5120,"count":505,"type":"VEC4","name":"Mesh.001_vertices#0_NORMAL"},{"bufferView":0,"byteOffset":920396,"componentType":5122,"count":505,"type":"VEC2","name":"Mesh.001_vertices#0_TEXCOORD_0"},{"bufferView":0,"byteOffset":920400,"componentType":5122,"count":505,"type":"VEC2","name":"Mesh.001_vertices#0_TEXCOORD_1"},{"bufferView":0,"byteOffset":920404,"componentType":5123,"count":505,"type":"VEC4","name":"Mesh.001_vertices#0_COLOR_0"},{"bufferView":1,"byteOffset":252810,"componentType":5123,"count":2034,"type":"SCALAR","name":"Mesh.001_indices#0"},{"bufferView":0,"byteOffset":938556,"componentType":5126,"count":17596,"min":[-64.70957946777344,-16.23008155822754,-1.6943435668945313],"max":[-5.988414764404297,16.475692749023439,21.93459701538086],"type":"VEC3","name":"Mesh.002_vertices#0_POSITION"},{"bufferView":0,"byteOffset":938568,"componentType":5120,"count":17596,"type":"VEC4","name":"Mesh.002_vertices#0_TANGENT"},{"bufferView":0,"byteOffset":938572,"componentType":5120,"count":17596,"type":"VEC4","name":"Mesh.002_vertices#0_NORMAL"},{"bufferView":0,"byteOffset":938576,"componentType":5122,"count":17596,"type":"VEC2","name":"Mesh.002_vertices#0_TEXCOORD_0"},{"bufferView":0,"byteOffset":938580,"componentType":5122,"count":17596,"type":"VEC2","name":"Mesh.002_vertices#0_TEXCOORD_1"},{"bufferView":0,"byteOffset":938584,"componentType":5123,"count":17596,"type":"VEC4","name":"Mesh.002_vertices#0_COLOR_0"},{"bufferView":1,"byteOffset":256878,"componentType":5123,"count":91359,"type":"SCALAR","name":"Mesh.002_indices#7"},{"bufferView":0,"byteOffset":1572012,"componentType":5126,"count":13910,"min":[18.067508697509767,0.19200599193572999,9.809429168701172],"max":[26.453075408935548,15.257884979248047,18.970687866210939],"type":"VEC3","name":"Mesh.003_vertices#0_POSITION"},{"bufferView":0,"byteOffset":1572024,"componentType":5120,"count":13910,"type":"VEC4","name":"Mesh.003_vertices#0_TANGENT"},{"bufferView":0,"byteOffset":1572028,"componentType":5120,"count":13910,"type":"VEC4","name":"Mesh.003_vertices#0_NORMAL"},{"bufferView":0,"byteOffset":1572032,"componentType":5122,"count":13910,"type":"VEC2","name":"Mesh.003_vertices#0_TEXCOORD_0"},{"bufferView":0,"byteOffset":1572036,"componentType":5122,"count":13910,"type":"VEC2","name":"Mesh.003_vertices#0_TEXCOORD_1"},{"bufferView":0,"byteOffset":1572040,"componentType":5123,"count":13910,"type":"VEC4","name":"Mesh.003_vertices#0_COLOR_0"},{"bufferView":1,"byteOffset":439596,"componentType":5123,"count":73296,"type":"SCALAR","name":"Mesh.003_indices#5"}],"asset":{"generator":"Extended Khronos glTF Blender I/O v1.0.0","version":"2.0","extensions":{"ASOBO_asset_optimized":{"BoundingBoxMax":[64.70957946777344,60.19142532348633,21.93459701538086],"BoundingBoxMin":[-64.70957946777344,-58.751007080078128,-28.957294464111329],"MajorVersion":4,"MinorVersion":2},"ASOBO_normal_map_convention":{"tangent_space_convention":"DirectX"}}},"bufferViews":[{"buffer":0,"byteLength":2072772,"byteStride":36,"target":34962,"name":"BufferViewVertexND"},{"buffer":0,"byteLength":586188,"byteOffset":2072772,"target":34963,"name":"BufferViewIndex"}],"extensionsUsed":["ASOBO_normal_map_convention","MSFT_texture_dds","ASOBO_asset_optimized"],"extensionsRequired":["MSFT_texture_dds"],"materials":[{"name":"Material.007","pbrMetallicRoughness":{"metallicFactor":0.0,"roughnessFactor":0.5,"baseColorTexture":{"index":0}}},{"name":"Material.010","pbrMetallicRoughness":{"metallicFactor":0.0,"roughnessFactor":0.5,"baseColorTexture":{"index":1}}},{"name":"Material.011","pbrMetallicRoughness":{"metallicFactor":0.0,"roughnessFactor":0.5,"baseColorTexture":{"index":2}}},{"name":"Material.012","pbrMetallicRoughness":{"metallicFactor":0.0,"roughnessFactor":0.5,"baseColorTexture":{"index":3}}},{"name":"Material.013","pbrMetallicRoughness":{"metallicFactor":0.0,"roughnessFactor":0.5,"baseColorTexture":{"index":4}}},{"name":"Material.014","pbrMetallicRoughness":{"metallicFactor":0.0,"roughnessFactor":0.5,"baseColorTexture":{"index":5}}},{"name":"Material.003","alphaMode":"BLEND","pbrMetallicRoughness":{"baseColorFactor":[0.036299873143434528,0.4667554199695587,1.0,1.0],"metallicFactor":0.0,"roughnessFactor":0.5}},{"name":"Material.001","pbrMetallicRoughness":{"metallicFactor":0.0,"roughnessFactor":0.5,"baseColorTexture":{"index":6}}},{"name":"Material.002","pbrMetallicRoughness":{"metallicFactor":0.0,"roughnessFactor":0.5,"baseColorTexture":{"index":7}}},{"name":"Material.015","pbrMetallicRoughness":{"metallicFactor":0.0,"roughnessFactor":0.5,"baseColorTexture":{"index":8}}},{"name":"Material.004","pbrMetallicRoughness":{"baseColorFactor":[0.0,0.0,0.0,1.0],"metallicFactor":0.0,"roughnessFactor":0.5}},{"name":"Material.005","pbrMetallicRoughness":{"baseColorFactor":[0.22658422589302064,0.22009055316448213,0.22009055316448213,1.0],"metallicFactor":0.0,"roughnessFactor":0.5}},{"name":"Material.006","pbrMetallicRoughness":{"baseColorFactor":[0.800000011920929,0.800000011920929,0.800000011920929,1.0],"metallicFactor":0.0,"roughnessFactor":0.5}},{"name":"Material.008","pbrMetallicRoughness":{"baseColorFactor":[0.06372073292732239,0.06372073292732239,0.06372073292732239,1.0],"metallicFactor":0.0,"roughnessFactor":0.5}},{"name":"Material.009","pbrMetallicRoughness":{"metallicFactor":0.0,"roughnessFactor":0.5,"baseColorTexture":{"index":9}}}],"meshes":[{"primitives":[{"attributes":{"COLOR_0":5,"NORMAL":2,"POSITION":0,"TANGENT":1,"TEXCOORD_0":3,"TEXCOORD_1":4},"indices":6,"material":0,"mode":4,"extras":{"ASOBO_primitive":{"PrimitiveCount":72,"VertexType":"VTX","VertexVersion":2}}},{"attributes":{"COLOR_0":5,"NORMAL":2,"POSITION":0,"TANGENT":1,"TEXCOORD_0":3,"TEXCOORD_1":4},"indices":6,"material":1,"mode":4,"extras":{"ASOBO_primitive":{"PrimitiveCount":200,"StartIndex":216,"VertexType":"VTX","VertexVersion":2}}},{"attributes":{"COLOR_0":5,"NORMAL":2,"POSITION":0,"TANGENT":1,"TEXCOORD_0":3,"TEXCOORD_1":4},"indices":6,"material":2,"mode":4,"extras":{"ASOBO_primitive":{"PrimitiveCount":760,"StartIndex":816,"VertexType":"VTX","VertexVersion":2}}},{"attributes":{"COLOR_0":5,"NORMAL":2,"POSITION":0,"TANGENT":1,"TEXCOORD_0":3,"TEXCOORD_1":4},"indices":6,"material":3,"mode":4,"extras":{"ASOBO_primitive":{"PrimitiveCount":26572,"StartIndex":3096,"VertexType":"VTX","VertexVersion":2}}},{"attributes":{"COLOR_0":5,"NORMAL":2,"POSITION":0,"TANGENT":1,"TEXCOORD_0":3,"TEXCOORD_1":4},"indices":6,"material":4,"mode":4,"extras":{"ASOBO_primitive":{"PrimitiveCount":848,"StartIndex":82812,"VertexType":"VTX","VertexVersion":2}}},{"attributes":{"COLOR_0":5,"NORMAL":2,"POSITION":0,"TANGENT":1,"TEXCOORD_0":3,"TEXCOORD_1":4},"indices":6,"material":5,"mode":4,"extras":{"ASOBO_primitive":{"PrimitiveCount":1705,"StartIndex":85356,"VertexType":"VTX","VertexVersion":2}}},{"attributes":{"COLOR_0":5,"NORMAL":2,"POSITION":0,"TANGENT":1,"TEXCOORD_0":3,"TEXCOORD_1":4},"indices":6,"material":6,"mode":4,"extras":{"ASOBO_primitive":{"PrimitiveCount":4768,"StartIndex":90471,"VertexType":"VTX","VertexVersion":2}}},{"attributes":{"COLOR_0":5,"NORMAL":2,"POSITION":0,"TANGENT":1,"TEXCOORD_0":3,"TEXCOORD_1":4},"indices":6,"material":7,"mode":4,"extras":{"ASOBO_primitive":{"PrimitiveCount":2312,"StartIndex":104775,"VertexType":"VTX","VertexVersion":2}}},{"attributes":{"COLOR_0":5,"NORMAL":2,"POSITION":0,"TANGENT":1,"TEXCOORD_0":3,"TEXCOORD_1":4},"indices":6,"material":8,"mode":4,"extras":{"ASOBO_primitive":{"PrimitiveCount":1008,"StartIndex":111711,"VertexType":"VTX","VertexVersion":2}}},{"attributes":{"COLOR_0":5,"NORMAL":2,"POSITION":0,"TANGENT":1,"TEXCOORD_0":3,"TEXCOORD_1":4},"indices":6,"material":9,"mode":4,"extras":{"ASOBO_primitive":{"PrimitiveCount":3890,"StartIndex":114735,"VertexType":"VTX","VertexVersion":2}}}],"name":"Mesh"},{"primitives":[{"attributes":{"COLOR_0":12,"NORMAL":9,"POSITION":7,"TANGENT":8,"TEXCOORD_0":10,"TEXCOORD_1":11},"indices":13,"material":5,"mode":4,"extras":{"ASOBO_primitive":{"PrimitiveCount":678,"VertexType":"VTX","VertexVersion":2}}}],"name":"Mesh.001"},{"primitives":[{"attributes":{"COLOR_0":19,"NORMAL":16,"POSITION":14,"TANGENT":15,"TEXCOORD_0":17,"TEXCOORD_1":18},"indices":20,"material":10,"mode":4,"extras":{"ASOBO_primitive":{"PrimitiveCount":19000,"VertexType":"VTX","VertexVersion":2}}},{"attributes":{"COLOR_0":19,"NORMAL":16,"POSITION":14,"TANGENT":15,"TEXCOORD_0":17,"TEXCOORD_1":18},"indices":20,"material":11,"mode":4,"extras":{"ASOBO_primitive":{"PrimitiveCount":1240,"StartIndex":57000,"VertexType":"VTX","VertexVersion":2}}},{"attributes":{"COLOR_0":19,"NORMAL":16,"POSITION":14,"TANGENT":15,"TEXCOORD_0":17,"TEXCOORD_1":18},"indices":20,"material":12,"mode":4,"extras":{"ASOBO_primitive":{"PrimitiveCount":760,"StartIndex":60720,"VertexType":"VTX","VertexVersion":2}}},{"attributes":{"COLOR_0":19,"NORMAL":16,"POSITION":14,"TANGENT":15,"TEXCOORD_0":17,"TEXCOORD_1":18},"indices":20,"material":0,"mode":4,"extras":{"ASOBO_primitive":{"PrimitiveCount":1904,"StartIndex":63000,"VertexType":"VTX","VertexVersion":2}}},{"attributes":{"COLOR_0":19,"NORMAL":16,"POSITION":14,"TANGENT":15,"TEXCOORD_0":17,"TEXCOORD_1":18},"indices":20,"material":13,"mode":4,"extras":{"ASOBO_primitive":{"PrimitiveCount":1120,"StartIndex":68712,"VertexType":"VTX","VertexVersion":2}}},{"attributes":{"COLOR_0":19,"NORMAL":16,"POSITION":14,"TANGENT":15,"TEXCOORD_0":17,"TEXCOORD_1":18},"indices":20,"material":14,"mode":4,"extras":{"ASOBO_primitive":{"PrimitiveCount":480,"StartIndex":72072,"VertexType":"VTX","VertexVersion":2}}},{"attributes":{"COLOR_0":19,"NORMAL":16,"POSITION":14,"TANGENT":15,"TEXCOORD_0":17,"TEXCOORD_1":18},"indices":20,"material":7,"mode":4,"extras":{"ASOBO_primitive":{"PrimitiveCount":2060,"StartIndex":73512,"VertexType":"VTX","VertexVersion":2}}},{"attributes":{"COLOR_0":19,"NORMAL":16,"POSITION":14,"TANGENT":15,"TEXCOORD_0":17,"TEXCOORD_1":18},"indices":20,"material":9,"mode":4,"extras":{"ASOBO_primitive":{"PrimitiveCount":3889,"StartIndex":79692,"VertexType":"VTX","VertexVersion":2}}}],"name":"Mesh.002"},{"primitives":[{"attributes":{"COLOR_0":26,"NORMAL":23,"POSITION":21,"TANGENT":22,"TEXCOORD_0":24,"TEXCOORD_1":25},"indices":27,"material":10,"mode":4,"extras":{"ASOBO_primitive":{"PrimitiveCount":19000,"VertexType":"VTX","VertexVersion":2}}},{"attributes":{"COLOR_0":26,"NORMAL":23,"POSITION":21,"TANGENT":22,"TEXCOORD_0":24,"TEXCOORD_1":25},"indices":27,"material":11,"mode":4,"extras":{"ASOBO_primitive":{"PrimitiveCount":1240,"StartIndex":57000,"VertexType":"VTX","VertexVersion":2}}},{"attributes":{"COLOR_0":26,"NORMAL":23,"POSITION":21,"TANGENT":22,"TEXCOORD_0":24,"TEXCOORD_1":25},"indices":27,"material":12,"mode":4,"extras":{"ASOBO_primitive":{"PrimitiveCount":760,"StartIndex":60720,"VertexType":"VTX","VertexVersion":2}}},{"attributes":{"COLOR_0":26,"NORMAL":23,"POSITION":21,"TANGENT":22,"TEXCOORD_0":24,"TEXCOORD_1":25},"indices":27,"material":0,"mode":4,"extras":{"ASOBO_primitive":{"PrimitiveCount":1832,"StartIndex":63000,"VertexType":"VTX","VertexVersion":2}}},{"attributes":{"COLOR_0":26,"NORMAL":23,"POSITION":21,"TANGENT":22,"TEXCOORD_0":24,"TEXCOORD_1":25},"indices":27,"material":13,"mode":4,"extras":{"ASOBO_primitive":{"PrimitiveCount":1120,"StartIndex":68496,"VertexType":"VTX","VertexVersion":2}}},{"attributes":{"COLOR_0":26,"NORMAL":23,"POSITION":21,"TANGENT":22,"TEXCOORD_0":24,"TEXCOORD_1":25},"indices":27,"material":14,"mode":4,"extras":{"ASOBO_primitive":{"PrimitiveCount":480,"StartIndex":71856,"VertexType":"VTX","VertexVersion":2}}}],"name":"Mesh.003"}],"nodes":[{"translation":[-6.589604377746582,5.81989049911499,13.94211196899414],"rotation":[0.7063760161399841,-0.032139990478754047,-0.03213999420404434,0.7063758969306946],"scale":[0.5,0.5,0.5],"mesh":0,"name":"SM_Aeroplane_Smooth"},{"translation":[7.472333908081055,9.288785934448243,-0.8170356750488281],"rotation":[0.532174825668335,0.07734502106904984,-0.100732259452343,0.8370547890663147],"scale":[0.5000000596046448,0.5,0.5],"mesh":1,"name":"SM_Aeroplane_Smooth.001"},{"translation":[-20.45827865600586,8.657262802124024,-28.76061630249023],"rotation":[0.8912182450294495,0.1209280863404274,0.3993130922317505,0.17792004346847535],"scale":[0.5,0.5,0.5],"mesh":2,"name":"SM_Aeroplane_Smooth.002"},{"translation":[16.680837631225587,-4.304497241973877,-12.433013916015624],"rotation":[0.1341218799352646,0.6191123127937317,0.7661358714103699,-0.10838405787944794],"scale":[0.5,0.5,0.5000000596046448],"mesh":3,"name":"SM_Aeroplane_Smooth.003"}],"scene":0,"scenes":[{"nodes":[0,1,2,3],"name":"Scene"}],"textures":[{"extensions":{"MSFT_texture_dds":{"source":0}}},{"extensions":{"MSFT_texture_dds":{"source":1}}},{"extensions":{"MSFT_texture_dds":{"source":2}}},{"extensions":{"MSFT_texture_dds":{"source":3}}},{"extensions":{"MSFT_texture_dds":{"source":4}}},{"extensions":{"MSFT_texture_dds":{"source":5}}},{"extensions":{"MSFT_texture_dds":{"source":6}}},{"extensions":{"MSFT_texture_dds":{"source":7}}},{"extensions":{"MSFT_texture_dds":{"source":8}}},{"extensions":{"MSFT_texture_dds":{"source":9}}}],"buffers":[{"byteLength":2658960,"uri":"Neoflycrashedplane7.bin"}],"images":[{"uri":"AUROPLANE_SMOOTH_M_ENGINE_BASECOLOR.PNG.DDS","name":"Auroplane_Smooth_M_Engine_BaseColor","extras":"ASOBO_image_converted_meta"},{"uri":"AUROPLANE_SMOOTH_M_FINS_BASECOLOR.PNG.DDS","name":"Auroplane_Smooth_M_Fins_BaseColor","extras":"ASOBO_image_converted_meta"},{"uri":"AUROPLANE_SMOOTH_M_EXHAUST_BASECOLOR.PNG.DDS","name":"Auroplane_Smooth_M_Exhaust_BaseColor","extras":"ASOBO_image_converted_meta"},{"uri":"AUROPLANE_SMOOTH_M_FUSEL_LODGE_BASECOLOR.PNG.DDS","name":"Auroplane_Smooth_M_Fusel_Lodge_BaseColor","extras":"ASOBO_image_converted_meta"},{"uri":"AUROPLANE_SMOOTH_M_TAIL_BASECOLOR.PNG.DDS","name":"Auroplane_Smooth_M_Tail_BaseColor","extras":"ASOBO_image_converted_meta"},{"uri":"AUROPLANE_SMOOTH_M_TAIL_WINGS_BASECOLOR.PNG.DDS","name":"Auroplane_Smooth_M_Tail_Wings_BaseColor","extras":"ASOBO_image_converted_meta"},{"uri":"AUROPLANE_SMOOTH_M_WINGS_BASECOLOR.PNG.DDS","name":"Auroplane_Smooth_M_Wings_BaseColor","extras":"ASOBO_image_converted_meta"},{"uri":"AUROPLANE_SMOOTH_M_WINDOWFRAME_BASECOLOR.PNG.DDS","name":"Auroplane_Smooth_M_Windowframe_BaseColor","extras":"ASOBO_image_converted_meta"},{"uri":"AUROPLANE_SMOOTH_M_FLAPS_BASECOLOR.PNG.DDS","name":"Auroplane_Smooth_M_Flaps_BaseColor","extras":"ASOBO_image_converted_meta"},{"uri":"AUROPLANE_SMOOTH_M_ENGINE_RIM_BASECOLOR.PNG.DDS","name":"Auroplane_Smooth_M_Engine_Rim_BaseColor","extras":"ASOBO_image_converted_meta"}]}
