{"accessors":[{"bufferView":0,"componentType":5126,"count":2004,"min":[0.0],"max":[83.45833333333333],"type":"SCALAR"},{"bufferView":1,"componentType":5126,"count":2004,"type":"VEC3"},{"bufferView":2,"componentType":5126,"count":670,"min":[-0.6424797177314758,-0.02811548113822937,1.0906031131744385],"max":[0.64248126745224,0.18248648941516877,2.309396505355835],"type":"VEC3","name":"Cube.052_vertices#0_POSITION"},{"bufferView":2,"byteOffset":12,"componentType":5120,"count":670,"type":"VEC4","name":"Cube.052_vertices#0_TANGENT"},{"bufferView":2,"byteOffset":16,"componentType":5120,"count":670,"type":"VEC4","name":"Cube.052_vertices#0_NORMAL"},{"bufferView":2,"byteOffset":20,"componentType":5122,"count":670,"type":"VEC2","name":"Cube.052_vertices#0_TEXCOORD_0"},{"bufferView":2,"byteOffset":24,"componentType":5122,"count":670,"type":"VEC2","name":"Cube.052_vertices#0_TEXCOORD_1"},{"bufferView":2,"byteOffset":28,"componentType":5123,"count":670,"type":"VEC4","name":"Cube.052_vertices#0_COLOR_0"},{"bufferView":3,"componentType":5123,"count":1080,"type":"SCALAR","name":"Cube.052_indices#0"},{"bufferView":2,"byteOffset":24120,"componentType":5126,"count":1904,"min":[0.06153721362352371,0.18166455626487733,1.213149070739746],"max":[0.37113723158836367,0.6085641384124756,1.5227491855621338],"type":"VEC3","name":"Cube.002_vertices#0_POSITION"},{"bufferView":2,"byteOffset":24132,"componentType":5120,"count":1904,"type":"VEC4","name":"Cube.002_vertices#0_TANGENT"},{"bufferView":2,"byteOffset":24136,"componentType":5120,"count":1904,"type":"VEC4","name":"Cube.002_vertices#0_NORMAL"},{"bufferView":2,"byteOffset":24140,"componentType":5122,"count":1904,"type":"VEC2","name":"Cube.002_vertices#0_TEXCOORD_0"},{"bufferView":2,"byteOffset":24144,"componentType":5122,"count":1904,"type":"VEC2","name":"Cube.002_vertices#0_TEXCOORD_1"},{"bufferView":2,"byteOffset":24148,"componentType":5123,"count":1904,"type":"VEC4","name":"Cube.002_vertices#0_COLOR_0"},{"bufferView":3,"byteOffset":2160,"componentType":5123,"count":5712,"type":"SCALAR","name":"Cube.002_indices#1"}],"animations":[{"name":"Neoflycargo_flammable_l_1","channels":[{"sampler":0,"target":{"node":1,"path":"translation"}}],"samplers":[{"input":0,"output":1,"interpolation":"LINEAR"}]}],"asset":{"generator":"Khronos glTF Blender I/O v1.8.19 and Asobo Studio MSFS Blender I/O v1.1.6","version":"2.0","extensions":{"ASOBO_asset_optimized":{"BoundingBoxMax":[0.64248126745224,0.6085641384124756,2.309396505355835],"BoundingBoxMin":[-0.6424797177314758,-0.02811548113822937,1.0906031131744385],"MajorVersion":4,"MinorVersion":4,"UseCheckerboardMaterialForMissingTextures":true,"UseOnlyFilenameForImageURI":true},"ASOBO_normal_map_convention":{"tangent_space_convention":"DirectX"}}},"bufferViews":[{"buffer":0,"byteLength":8016},{"buffer":0,"byteLength":24048,"byteOffset":8016},{"buffer":0,"byteLength":92664,"byteStride":36,"byteOffset":32064,"target":34962,"name":"BufferViewVertexND"},{"buffer":0,"byteLength":13584,"byteOffset":124728,"target":34963,"name":"BufferViewIndex"}],"extensionsRequired":["MSFT_texture_dds"],"materials":[{"name":"cargo0A","normalTexture":{"index":0},"occlusionTexture":{"index":1},"pbrMetallicRoughness":{"baseColorFactor":[0.9999988079071044,0.9999989867210388,1.0,1.0],"baseColorTexture":{"index":2},"metallicRoughnessTexture":{"index":1}}},{"name":"cargo_tank_3a.001","normalTexture":{"index":3},"pbrMetallicRoughness":{"baseColorTexture":{"index":4}}},{"name":"cargo_tank_0","alphaMode":"BLEND","pbrMetallicRoughness":{"baseColorTexture":{"index":6}},"extensions":{"ASOBO_material_blend_gbuffer":{}}}],"meshes":[{"primitives":[{"attributes":{"COLOR_0":7,"NORMAL":4,"POSITION":2,"TANGENT":3,"TEXCOORD_0":5,"TEXCOORD_1":6},"indices":8,"material":0,"mode":4,"extras":{"ASOBO_primitive":{"PrimitiveCount":360,"VertexType":"VTX","VertexVersion":2}}}],"name":"Cube.052"},{"primitives":[{"attributes":{"COLOR_0":14,"NORMAL":11,"POSITION":9,"TANGENT":10,"TEXCOORD_0":12,"TEXCOORD_1":13},"indices":15,"material":1,"mode":4,"extras":{"ASOBO_primitive":{"PrimitiveCount":1882,"VertexType":"VTX","VertexVersion":2}}},{"attributes":{"COLOR_0":14,"NORMAL":11,"POSITION":9,"TANGENT":10,"TEXCOORD_0":12,"TEXCOORD_1":13},"indices":15,"material":2,"mode":4,"extras":{"ASOBO_primitive":{"PrimitiveCount":22,"StartIndex":5646,"VertexType":"VTX","VertexVersion":2}}}],"name":"Cube.002"}],"nodes":[{"mesh":0,"name":"Neoflycargo00"},{"mesh":1,"name":"Neoflycargo04.001"}],"scene":0,"scenes":[{"nodes":[0,1],"name":"Scene"}],"textures":[{"extensions":{"MSFT_texture_dds":{"source":0}}},{"extensions":{"MSFT_texture_dds":{"source":1}}},{"extensions":{"MSFT_texture_dds":{"source":2}}},{"extensions":{"MSFT_texture_dds":{"source":3}}},{"extensions":{"MSFT_texture_dds":{"source":4}}},{"sampler":0,"source":5},{"extensions":{"MSFT_texture_dds":{"source":6}}}],"samplers":[{"magFilter":9729,"minFilter":9987,"wrapS":10497,"wrapT":10497}],"extensionsUsed":["ASOBO_normal_map_convention","ASOBO_material_blend_gbuffer","MSFT_texture_dds","ASOBO_asset_optimized"],"buffers":[{"byteLength":138312,"uri":"Neoflycargo_flammable_l_1.bin"}],"images":[{"uri":"NEOFLY_CARGO0A_NORM.PNG.DDS","name":"neofly_cargo0a_norm","extras":"ASOBO_image_converted_meta"},{"uri":"NEOFLY_CARGO0A_COMP.PNG.DDS","name":"neofly_cargo0a_comp","extras":"ASOBO_image_converted_meta"},{"uri":"NEOFLY_CARGO0A_ALBD.PNG.DDS","name":"neofly_cargo0a_albd","extras":"ASOBO_image_converted_meta"},{"uri":"NEOFLY_CARGO7C_NORM.PNG.DDS","name":"neofly_cargo7c_norm","extras":"ASOBO_image_converted_meta"},{"uri":"NEOFLY_CARGO7C_ALBD.PNG.DDS","name":"neofly_cargo7c_albd","extras":"ASOBO_image_converted_meta"},{"uri":"neofly_cargo7c_comp.png","name":"neofly_cargo7c_comp"},{"uri":"NEOFLY_CARGO4D_ALBD.PNG.DDS","name":"neofly_cargo4d_albd","extras":"ASOBO_image_converted_meta"}]}
