{"accessors":[{"bufferView":0,"componentType":5126,"count":1999,"min":[0.08333333333333333],"max":[83.33333333333333],"type":"SCALAR"},{"bufferView":1,"componentType":5126,"count":1999,"type":"VEC3"},{"bufferView":2,"componentType":5126,"count":670,"min":[-0.6424797177314758,-0.02811548113822937,1.0906031131744385],"max":[0.64248126745224,0.18248648941516877,2.309396505355835],"type":"VEC3","name":"Cube.052_vertices#0_POSITION"},{"bufferView":2,"byteOffset":12,"componentType":5120,"count":670,"type":"VEC4","name":"Cube.052_vertices#0_TANGENT"},{"bufferView":2,"byteOffset":16,"componentType":5120,"count":670,"type":"VEC4","name":"Cube.052_vertices#0_NORMAL"},{"bufferView":2,"byteOffset":20,"componentType":5122,"count":670,"type":"VEC2","name":"Cube.052_vertices#0_TEXCOORD_0"},{"bufferView":2,"byteOffset":24,"componentType":5122,"count":670,"type":"VEC2","name":"Cube.052_vertices#0_TEXCOORD_1"},{"bufferView":2,"byteOffset":28,"componentType":5123,"count":670,"type":"VEC4","name":"Cube.052_vertices#0_COLOR_0"},{"bufferView":3,"componentType":5123,"count":1080,"type":"SCALAR","name":"Cube.052_indices#0"},{"bufferView":2,"byteOffset":24120,"componentType":5126,"count":5552,"min":[-1.3745887279510499,-0.8181818723678589,-5.947938919067383],"max":[4.279306411743164,0.8251108527183533,0.8190383315086365],"type":"VEC3","name":"Cube.023_vertices#0_POSITION"},{"bufferView":2,"byteOffset":24132,"componentType":5120,"count":5552,"type":"VEC4","name":"Cube.023_vertices#0_TANGENT"},{"bufferView":2,"byteOffset":24136,"componentType":5120,"count":5552,"type":"VEC4","name":"Cube.023_vertices#0_NORMAL"},{"bufferView":2,"byteOffset":24140,"componentType":5122,"count":5552,"type":"VEC2","name":"Cube.023_vertices#0_TEXCOORD_0"},{"bufferView":2,"byteOffset":24144,"componentType":5122,"count":5552,"type":"VEC2","name":"Cube.023_vertices#0_TEXCOORD_1"},{"bufferView":2,"byteOffset":24148,"componentType":5123,"count":5552,"type":"VEC4","name":"Cube.023_vertices#0_COLOR_0"},{"bufferView":3,"byteOffset":2160,"componentType":5123,"count":13200,"type":"SCALAR","name":"Cube.023_indices#3"}],"animations":[{"name":"Neoflycargo_urgent_l_1","channels":[{"sampler":0,"target":{"node":1,"path":"translation"}}],"samplers":[{"input":0,"output":1,"interpolation":"LINEAR"}]}],"asset":{"generator":"Khronos glTF Blender I/O v1.8.19 and Asobo Studio MSFS Blender I/O v1.1.6","version":"2.0","extensions":{"ASOBO_asset_optimized":{"BoundingBoxMax":[5.835417747497559,0.6750907301902771,2.309396505355835],"BoundingBoxMin":[-1.8744392395019532,-0.6694215536117554,-4.866495609283447],"MajorVersion":4,"MinorVersion":4,"UseCheckerboardMaterialForMissingTextures":true,"UseOnlyFilenameForImageURI":true},"ASOBO_normal_map_convention":{"tangent_space_convention":"DirectX"}}},"bufferViews":[{"buffer":0,"byteLength":7996},{"buffer":0,"byteLength":23988,"byteOffset":7996},{"buffer":0,"byteLength":223992,"byteStride":36,"byteOffset":31984,"target":34962,"name":"BufferViewVertexND"},{"buffer":0,"byteLength":28560,"byteOffset":255976,"target":34963,"name":"BufferViewIndex"}],"extensionsRequired":["MSFT_texture_dds"],"materials":[{"name":"cargo0A","normalTexture":{"index":0},"occlusionTexture":{"index":1},"pbrMetallicRoughness":{"baseColorFactor":[0.9999988079071044,0.9999989867210388,1.0,1.0],"baseColorTexture":{"index":2},"metallicRoughnessTexture":{"index":1}}},{"name":"Cargeo4b.001","pbrMetallicRoughness":{"baseColorTexture":{"index":3}}},{"name":"Cargo4a.001","normalTexture":{"index":5},"pbrMetallicRoughness":{"baseColorTexture":{"index":6}}},{"name":"Cargo4c.001","alphaMode":"BLEND","pbrMetallicRoughness":{"baseColorTexture":{"index":8}},"extensions":{"ASOBO_material_blend_gbuffer":{},"ASOBO_material_draw_order":{"drawOrderOffset":2}}},{"name":"Cargo4d","alphaMode":"BLEND","pbrMetallicRoughness":{"baseColorTexture":{"index":9}},"extensions":{"ASOBO_material_blend_gbuffer":{}}}],"meshes":[{"primitives":[{"attributes":{"COLOR_0":7,"NORMAL":4,"POSITION":2,"TANGENT":3,"TEXCOORD_0":5,"TEXCOORD_1":6},"indices":8,"material":0,"mode":4,"extras":{"ASOBO_primitive":{"PrimitiveCount":360,"VertexType":"VTX","VertexVersion":2}}}],"name":"Cube.052"},{"primitives":[{"attributes":{"COLOR_0":14,"NORMAL":11,"POSITION":9,"TANGENT":10,"TEXCOORD_0":12,"TEXCOORD_1":13},"indices":15,"material":1,"mode":4,"extras":{"ASOBO_primitive":{"PrimitiveCount":896,"VertexType":"VTX","VertexVersion":2}}},{"attributes":{"COLOR_0":14,"NORMAL":11,"POSITION":9,"TANGENT":10,"TEXCOORD_0":12,"TEXCOORD_1":13},"indices":15,"material":2,"mode":4,"extras":{"ASOBO_primitive":{"PrimitiveCount":3328,"StartIndex":2688,"VertexType":"VTX","VertexVersion":2}}},{"attributes":{"COLOR_0":14,"NORMAL":11,"POSITION":9,"TANGENT":10,"TEXCOORD_0":12,"TEXCOORD_1":13},"indices":15,"material":3,"mode":4,"extras":{"ASOBO_primitive":{"PrimitiveCount":48,"StartIndex":12672,"VertexType":"VTX","VertexVersion":2}}},{"attributes":{"COLOR_0":14,"NORMAL":11,"POSITION":9,"TANGENT":10,"TEXCOORD_0":12,"TEXCOORD_1":13},"indices":15,"material":4,"mode":4,"extras":{"ASOBO_primitive":{"PrimitiveCount":128,"StartIndex":12816,"VertexType":"VTX","VertexVersion":2}}}],"name":"Cube.023"}],"nodes":[{"mesh":0,"name":"Neoflycargo00"},{"translation":[-0.4757155478000641,0.33125120401382449,1.4347301721572877],"rotation":[0.0,-0.7071068286895752,0.0,0.7071068286895752],"scale":[0.25,0.15000000596046449,0.15000000596046449],"mesh":1,"name":"Neoflycargo06 x1.001"}],"scene":0,"scenes":[{"nodes":[0,1],"name":"Scene"}],"textures":[{"extensions":{"MSFT_texture_dds":{"source":0}}},{"extensions":{"MSFT_texture_dds":{"source":1}}},{"extensions":{"MSFT_texture_dds":{"source":2}}},{"extensions":{"MSFT_texture_dds":{"source":3}}},{"sampler":0,"source":4},{"extensions":{"MSFT_texture_dds":{"source":5}}},{"extensions":{"MSFT_texture_dds":{"source":6}}},{"sampler":0,"source":4},{"extensions":{"MSFT_texture_dds":{"source":7}}},{"extensions":{"MSFT_texture_dds":{"source":8}}}],"samplers":[{"magFilter":9729,"minFilter":9987,"wrapS":10497,"wrapT":10497}],"extensionsUsed":["ASOBO_normal_map_convention","ASOBO_material_blend_gbuffer","ASOBO_material_draw_order","MSFT_texture_dds","ASOBO_asset_optimized"],"buffers":[{"byteLength":284536,"uri":"Neoflycargo_urgent_l_1.bin"}],"images":[{"uri":"NEOFLY_CARGO0A_NORM.PNG.DDS","name":"neofly_cargo0a_norm","extras":"ASOBO_image_converted_meta"},{"uri":"NEOFLY_CARGO0A_COMP.PNG.DDS","name":"neofly_cargo0a_comp","extras":"ASOBO_image_converted_meta"},{"uri":"NEOFLY_CARGO0A_ALBD.PNG.DDS","name":"neofly_cargo0a_albd","extras":"ASOBO_image_converted_meta"},{"uri":"NEOFLY_CARGO4B_ALBD.PNG.DDS","name":"neofly_cargo4b_albd","extras":"ASOBO_image_converted_meta"},{"uri":"neofly_cargo4a_comp.png","name":"neofly_cargo4a_comp"},{"uri":"NEOFLY_CARGO4A_NORM.PNG.DDS","name":"neofly_cargo4a_norm","extras":"ASOBO_image_converted_meta"},{"uri":"NEOFLY_CARGO4A_ALBD.PNG.DDS","name":"neofly_cargo4a_albd","extras":"ASOBO_image_converted_meta"},{"uri":"NEOFLY_CARGO4C_ALBD.PNG.DDS","name":"neofly_cargo4c_albd","extras":"ASOBO_image_converted_meta"},{"uri":"NEOFLY_URGENT_ALBD.PNG.DDS","name":"neofly_urgent_albd","extras":"ASOBO_image_converted_meta"}]}
