{"accessors":[{"bufferView":0,"componentType":5126,"count":5527,"min":[-4.867499828338623,-1.6216000318527222,-2.4251999855041506],"max":[3.5017900466918947,1.5887000560760499,0.1405281126499176],"type":"VEC3","name":"Airplane_Damage_vertices#0_POSITION"},{"bufferView":0,"byteOffset":12,"componentType":5120,"count":5527,"type":"VEC4","name":"Airplane_Damage_vertices#0_TANGENT"},{"bufferView":0,"byteOffset":16,"componentType":5120,"count":5527,"type":"VEC4","name":"Airplane_Damage_vertices#0_NORMAL"},{"bufferView":0,"byteOffset":20,"componentType":5122,"count":5527,"type":"VEC2","name":"Airplane_Damage_vertices#0_TEXCOORD_0"},{"bufferView":0,"byteOffset":24,"componentType":5122,"count":5527,"type":"VEC2","name":"Airplane_Damage_vertices#0_TEXCOORD_1"},{"bufferView":0,"byteOffset":28,"componentType":5123,"count":5527,"type":"VEC4","name":"Airplane_Damage_vertices#0_COLOR_0"},{"bufferView":1,"componentType":5123,"count":13668,"type":"SCALAR","name":"Airplane_Damage_indices#3"},{"bufferView":0,"byteOffset":198972,"componentType":5126,"count":431,"min":[-1.7065999507904053,-1.8176000118255616,-0.5928000211715698],"max":[-0.25110000371932986,1.146399974822998,-0.00009999999747378752],"type":"VEC3","name":"Airplane_Damage.001_vertices#0_POSITION"},{"bufferView":0,"byteOffset":198984,"componentType":5120,"count":431,"type":"VEC4","name":"Airplane_Damage.001_vertices#0_TANGENT"},{"bufferView":0,"byteOffset":198988,"componentType":5120,"count":431,"type":"VEC4","name":"Airplane_Damage.001_vertices#0_NORMAL"},{"bufferView":0,"byteOffset":198992,"componentType":5122,"count":431,"type":"VEC2","name":"Airplane_Damage.001_vertices#0_TEXCOORD_0"},{"bufferView":0,"byteOffset":198996,"componentType":5122,"count":431,"type":"VEC2","name":"Airplane_Damage.001_vertices#0_TEXCOORD_1"},{"bufferView":0,"byteOffset":199000,"componentType":5123,"count":431,"type":"VEC4","name":"Airplane_Damage.001_vertices#0_COLOR_0"},{"bufferView":1,"byteOffset":27336,"componentType":5123,"count":1002,"type":"SCALAR","name":"Airplane_Damage.001_indices#1"},{"bufferView":0,"byteOffset":214488,"componentType":5126,"count":431,"min":[-1.7065999507904053,-1.8176000118255616,-0.5928000211715698],"max":[-0.25110000371932986,1.146399974822998,-0.00009999999747378752],"type":"VEC3","name":"Airplane_Damage.002_vertices#0_POSITION"},{"bufferView":0,"byteOffset":214500,"componentType":5120,"count":431,"type":"VEC4","name":"Airplane_Damage.002_vertices#0_TANGENT"},{"bufferView":0,"byteOffset":214504,"componentType":5120,"count":431,"type":"VEC4","name":"Airplane_Damage.002_vertices#0_NORMAL"},{"bufferView":0,"byteOffset":214508,"componentType":5122,"count":431,"type":"VEC2","name":"Airplane_Damage.002_vertices#0_TEXCOORD_0"},{"bufferView":0,"byteOffset":214512,"componentType":5122,"count":431,"type":"VEC2","name":"Airplane_Damage.002_vertices#0_TEXCOORD_1"},{"bufferView":0,"byteOffset":214516,"componentType":5123,"count":431,"type":"VEC4","name":"Airplane_Damage.002_vertices#0_COLOR_0"},{"bufferView":1,"byteOffset":29340,"componentType":5123,"count":1002,"type":"SCALAR","name":"Airplane_Damage.002_indices#1"}],"asset":{"generator":"Extended Khronos glTF Blender I/O v1.0.0","version":"2.0","extensions":{"ASOBO_asset_optimized":{"BoundingBoxMax":[3.5017900466918947,1.5887000560760499,0.1405281126499176],"BoundingBoxMin":[-4.867499828338623,-1.8176000118255616,-2.4251999855041506],"MajorVersion":4,"MinorVersion":2},"ASOBO_normal_map_convention":{"tangent_space_convention":"DirectX"}}},"bufferViews":[{"buffer":0,"byteLength":230004,"byteStride":36,"target":34962,"name":"BufferViewVertexND"},{"buffer":0,"byteLength":31344,"byteOffset":230004,"target":34963,"name":"BufferViewIndex"}],"extensionsUsed":["ASOBO_normal_map_convention","MSFT_texture_dds","ASOBO_asset_optimized"],"extensionsRequired":["MSFT_texture_dds"],"materials":[{"name":"Material.001","pbrMetallicRoughness":{"metallicFactor":0.0,"roughnessFactor":0.5,"baseColorTexture":{"index":0}}},{"name":"Material.002","pbrMetallicRoughness":{"metallicFactor":0.0,"roughnessFactor":0.5,"baseColorTexture":{"index":1}}},{"name":"Material.003","pbrMetallicRoughness":{"metallicFactor":0.0,"roughnessFactor":0.5,"baseColorTexture":{"index":2}}},{"name":"Material.004","pbrMetallicRoughness":{"metallicFactor":0.0,"roughnessFactor":0.5,"baseColorTexture":{"index":3}}}],"meshes":[{"primitives":[{"attributes":{"COLOR_0":5,"NORMAL":2,"POSITION":0,"TANGENT":1,"TEXCOORD_0":3,"TEXCOORD_1":4},"indices":6,"material":0,"mode":4,"extras":{"ASOBO_primitive":{"PrimitiveCount":2486,"VertexType":"VTX","VertexVersion":2}}},{"attributes":{"COLOR_0":5,"NORMAL":2,"POSITION":0,"TANGENT":1,"TEXCOORD_0":3,"TEXCOORD_1":4},"indices":6,"material":1,"mode":4,"extras":{"ASOBO_primitive":{"PrimitiveCount":24,"StartIndex":7458,"VertexType":"VTX","VertexVersion":2}}},{"attributes":{"COLOR_0":5,"NORMAL":2,"POSITION":0,"TANGENT":1,"TEXCOORD_0":3,"TEXCOORD_1":4},"indices":6,"material":2,"mode":4,"extras":{"ASOBO_primitive":{"PrimitiveCount":1014,"StartIndex":7530,"VertexType":"VTX","VertexVersion":2}}},{"attributes":{"COLOR_0":5,"NORMAL":2,"POSITION":0,"TANGENT":1,"TEXCOORD_0":3,"TEXCOORD_1":4},"indices":6,"material":3,"mode":4,"extras":{"ASOBO_primitive":{"PrimitiveCount":1032,"StartIndex":10572,"VertexType":"VTX","VertexVersion":2}}}],"name":"Airplane_Damage"},{"primitives":[{"attributes":{"COLOR_0":12,"NORMAL":9,"POSITION":7,"TANGENT":8,"TEXCOORD_0":10,"TEXCOORD_1":11},"indices":13,"material":0,"mode":4,"extras":{"ASOBO_primitive":{"PrimitiveCount":324,"VertexType":"VTX","VertexVersion":2}}},{"attributes":{"COLOR_0":12,"NORMAL":9,"POSITION":7,"TANGENT":8,"TEXCOORD_0":10,"TEXCOORD_1":11},"indices":13,"material":3,"mode":4,"extras":{"ASOBO_primitive":{"PrimitiveCount":10,"StartIndex":972,"VertexType":"VTX","VertexVersion":2}}}],"name":"Airplane_Damage.001"},{"primitives":[{"attributes":{"COLOR_0":19,"NORMAL":16,"POSITION":14,"TANGENT":15,"TEXCOORD_0":17,"TEXCOORD_1":18},"indices":20,"material":0,"mode":4,"extras":{"ASOBO_primitive":{"PrimitiveCount":324,"VertexType":"VTX","VertexVersion":2}}},{"attributes":{"COLOR_0":19,"NORMAL":16,"POSITION":14,"TANGENT":15,"TEXCOORD_0":17,"TEXCOORD_1":18},"indices":20,"material":3,"mode":4,"extras":{"ASOBO_primitive":{"PrimitiveCount":10,"StartIndex":972,"VertexType":"VTX","VertexVersion":2}}}],"name":"Airplane_Damage.002"}],"nodes":[{"translation":[-18.080297470092775,-1.6630423069000245,-4.698546409606934],"rotation":[0.9401600956916808,0.0013515370665118099,0.003729451447725296,0.34070995450019839],"scale":[5.0,5.0,5.0],"mesh":0,"name":"Airplane_Damage"},{"translation":[-43.143218994140628,2.9522194862365724,8.916877746582032],"rotation":[-0.3641376495361328,-0.8521875143051148,0.18496663868427277,-0.32705891132354739],"scale":[5.0,5.0,5.0],"mesh":1,"name":"Airplane_Damage.001"},{"translation":[-47.26515197753906,-0.45516782999038699,-17.794099807739259],"rotation":[0.5052497386932373,-0.489502489566803,0.5442417860031128,0.45706769824028017],"scale":[5.0,-4.999999523162842,5.000000476837158],"mesh":2,"name":"Airplane_Damage.002"}],"scene":0,"scenes":[{"nodes":[0,1,2],"name":"Scene"}],"textures":[{"extensions":{"MSFT_texture_dds":{"source":0}}},{"extensions":{"MSFT_texture_dds":{"source":1}}},{"extensions":{"MSFT_texture_dds":{"source":2}}},{"extensions":{"MSFT_texture_dds":{"source":3}}}],"buffers":[{"byteLength":261348,"uri":"Neoflywreckedplane6.bin"}],"images":[{"uri":"TEX_01.JPG.DDS","name":"tex_01","extras":"ASOBO_image_converted_meta"},{"uri":"TEX_02.JPG.DDS","name":"tex_02","extras":"ASOBO_image_converted_meta"},{"uri":"TEX_03.JPG.DDS","name":"tex_03","extras":"ASOBO_image_converted_meta"},{"uri":"TEX_04.JPG.DDS","name":"tex_04","extras":"ASOBO_image_converted_meta"}]}
