{"accessors":[{"bufferView":0,"componentType":5126,"count":5041,"min":[3.7349202632904054,5.583435535430908,-3.982353448867798],"max":[5.198145866394043,9.417667388916016,-0.1481054723262787],"type":"VEC3","name":"Mesh.002_vertices#0_POSITION"},{"bufferView":0,"byteOffset":12,"componentType":5120,"count":5041,"type":"VEC4","name":"Mesh.002_vertices#0_TANGENT"},{"bufferView":0,"byteOffset":16,"componentType":5120,"count":5041,"type":"VEC4","name":"Mesh.002_vertices#0_NORMAL"},{"bufferView":0,"byteOffset":20,"componentType":5122,"count":5041,"type":"VEC2","name":"Mesh.002_vertices#0_TEXCOORD_0"},{"bufferView":0,"byteOffset":24,"componentType":5122,"count":5041,"type":"VEC2","name":"Mesh.002_vertices#0_TEXCOORD_1"},{"bufferView":0,"byteOffset":28,"componentType":5123,"count":5041,"type":"VEC4","name":"Mesh.002_vertices#0_COLOR_0"},{"bufferView":1,"componentType":5123,"count":20196,"type":"SCALAR","name":"Mesh.002_indices#0"},{"bufferView":0,"byteOffset":181476,"componentType":5126,"count":27639,"min":[-5.672032833099365,-12.868735313415528,-9.424718856811524],"max":[5.598075866699219,14.968154907226563,-1.104968547821045],"type":"VEC3","name":"Mesh_vertices#0_POSITION"},{"bufferView":0,"byteOffset":181488,"componentType":5120,"count":27639,"type":"VEC4","name":"Mesh_vertices#0_TANGENT"},{"bufferView":0,"byteOffset":181492,"componentType":5120,"count":27639,"type":"VEC4","name":"Mesh_vertices#0_NORMAL"},{"bufferView":0,"byteOffset":181496,"componentType":5122,"count":27639,"type":"VEC2","name":"Mesh_vertices#0_TEXCOORD_0"},{"bufferView":0,"byteOffset":181500,"componentType":5122,"count":27639,"type":"VEC2","name":"Mesh_vertices#0_TEXCOORD_1"},{"bufferView":0,"byteOffset":181504,"componentType":5123,"count":27639,"type":"VEC4","name":"Mesh_vertices#0_COLOR_0"},{"bufferView":1,"byteOffset":40392,"componentType":5123,"count":108678,"type":"SCALAR","name":"Mesh_indices#2"},{"bufferView":0,"byteOffset":1176480,"componentType":5126,"count":5041,"min":[-5.198145866394043,5.583435535430908,-3.982353448867798],"max":[-3.7349202632904054,9.417667388916016,-0.1481054723262787],"type":"VEC3","name":"Mesh.003_vertices#0_POSITION"},{"bufferView":0,"byteOffset":1176492,"componentType":5120,"count":5041,"type":"VEC4","name":"Mesh.003_vertices#0_TANGENT"},{"bufferView":0,"byteOffset":1176496,"componentType":5120,"count":5041,"type":"VEC4","name":"Mesh.003_vertices#0_NORMAL"},{"bufferView":0,"byteOffset":1176500,"componentType":5122,"count":5041,"type":"VEC2","name":"Mesh.003_vertices#0_TEXCOORD_0"},{"bufferView":0,"byteOffset":1176504,"componentType":5122,"count":5041,"type":"VEC2","name":"Mesh.003_vertices#0_TEXCOORD_1"},{"bufferView":0,"byteOffset":1176508,"componentType":5123,"count":5041,"type":"VEC4","name":"Mesh.003_vertices#0_COLOR_0"},{"bufferView":1,"byteOffset":257748,"componentType":5123,"count":20196,"type":"SCALAR","name":"Mesh.003_indices#0"},{"bufferView":0,"byteOffset":1357956,"componentType":5126,"count":5041,"min":[3.2690963745117189,-9.82467269897461,-3.982353448867798],"max":[5.497650146484375,-5.869204044342041,-0.1481054723262787],"type":"VEC3","name":"Mesh.001_vertices#0_POSITION"},{"bufferView":0,"byteOffset":1357968,"componentType":5120,"count":5041,"type":"VEC4","name":"Mesh.001_vertices#0_TANGENT"},{"bufferView":0,"byteOffset":1357972,"componentType":5120,"count":5041,"type":"VEC4","name":"Mesh.001_vertices#0_NORMAL"},{"bufferView":0,"byteOffset":1357976,"componentType":5122,"count":5041,"type":"VEC2","name":"Mesh.001_vertices#0_TEXCOORD_0"},{"bufferView":0,"byteOffset":1357980,"componentType":5122,"count":5041,"type":"VEC2","name":"Mesh.001_vertices#0_TEXCOORD_1"},{"bufferView":0,"byteOffset":1357984,"componentType":5123,"count":5041,"type":"VEC4","name":"Mesh.001_vertices#0_COLOR_0"},{"bufferView":1,"byteOffset":298140,"componentType":5123,"count":20196,"type":"SCALAR","name":"Mesh.001_indices#0"},{"bufferView":0,"byteOffset":1539432,"componentType":5126,"count":5041,"min":[-5.456502437591553,-10.220471382141114,-3.982353448867798],"max":[-3.323697566986084,-6.265246391296387,-0.1481054723262787],"type":"VEC3","name":"Mesh.004_vertices#0_POSITION"},{"bufferView":0,"byteOffset":1539444,"componentType":5120,"count":5041,"type":"VEC4","name":"Mesh.004_vertices#0_TANGENT"},{"bufferView":0,"byteOffset":1539448,"componentType":5120,"count":5041,"type":"VEC4","name":"Mesh.004_vertices#0_NORMAL"},{"bufferView":0,"byteOffset":1539452,"componentType":5122,"count":5041,"type":"VEC2","name":"Mesh.004_vertices#0_TEXCOORD_0"},{"bufferView":0,"byteOffset":1539456,"componentType":5122,"count":5041,"type":"VEC2","name":"Mesh.004_vertices#0_TEXCOORD_1"},{"bufferView":0,"byteOffset":1539460,"componentType":5123,"count":5041,"type":"VEC4","name":"Mesh.004_vertices#0_COLOR_0"},{"bufferView":1,"byteOffset":338532,"componentType":5123,"count":20196,"type":"SCALAR","name":"Mesh.004_indices#0"}],"asset":{"generator":"Extended Khronos glTF Blender I/O v1.0.0","version":"2.0","extensions":{"ASOBO_asset_optimized":{"BoundingBoxMax":[5.598075866699219,14.968154907226563,-0.1481054723262787],"BoundingBoxMin":[-5.672032833099365,-12.868735313415528,-9.424718856811524],"MajorVersion":4,"MinorVersion":2},"ASOBO_normal_map_convention":{"tangent_space_convention":"DirectX"}}},"bufferViews":[{"buffer":0,"byteLength":1720908,"byteStride":36,"target":34962,"name":"BufferViewVertexND"},{"buffer":0,"byteLength":378924,"byteOffset":1720908,"target":34963,"name":"BufferViewIndex"}],"extensionsUsed":["ASOBO_normal_map_convention","ASOBO_material_glass","ASOBO_material_kitty_glass","MSFT_texture_dds","ASOBO_asset_optimized"],"extensionsRequired":["MSFT_texture_dds"],"materials":[{"name":"plastic","doubleSided":true,"pbrMetallicRoughness":{"baseColorFactor":[0.19480518996715544,0.19480518996715544,0.19480518996715544,1.0],"metallicFactor":0.0,"roughnessFactor":0.5527864098548889}},{"name":"lambert","normalTexture":{"index":0},"pbrMetallicRoughness":{"metallicFactor":0.0,"roughnessFactor":0.5,"baseColorTexture":{"index":1}}},{"name":"plastic.001","normalTexture":{"index":2},"pbrMetallicRoughness":{"metallicFactor":0.0,"roughnessFactor":0.5,"baseColorTexture":{"index":3}}},{"name":"glass","alphaMode":"BLEND","pbrMetallicRoughness":{"baseColorFactor":[0.800000011920929,0.800000011920929,0.800000011920929,0.05000000074505806],"metallicFactor":0.0,"roughnessFactor":0.05000000074505806},"extensions":{"ASOBO_material_kitty_glass":{"glassReflectionMaskFactor":1.0}}}],"meshes":[{"primitives":[{"attributes":{"COLOR_0":5,"NORMAL":2,"POSITION":0,"TANGENT":1,"TEXCOORD_0":3,"TEXCOORD_1":4},"indices":6,"material":0,"mode":4,"extras":{"ASOBO_primitive":{"PrimitiveCount":6732,"VertexType":"VTX","VertexVersion":2}}}],"name":"Mesh.002"},{"primitives":[{"attributes":{"COLOR_0":12,"NORMAL":9,"POSITION":7,"TANGENT":8,"TEXCOORD_0":10,"TEXCOORD_1":11},"indices":13,"material":1,"mode":4,"extras":{"ASOBO_primitive":{"PrimitiveCount":22116,"VertexType":"VTX","VertexVersion":2}}},{"attributes":{"COLOR_0":12,"NORMAL":9,"POSITION":7,"TANGENT":8,"TEXCOORD_0":10,"TEXCOORD_1":11},"indices":13,"material":2,"mode":4,"extras":{"ASOBO_primitive":{"PrimitiveCount":12970,"StartIndex":66348,"VertexType":"VTX","VertexVersion":2}}},{"attributes":{"COLOR_0":12,"NORMAL":9,"POSITION":7,"TANGENT":8,"TEXCOORD_0":10,"TEXCOORD_1":11},"indices":13,"material":3,"mode":4,"extras":{"ASOBO_primitive":{"PrimitiveCount":1140,"StartIndex":105258,"VertexType":"VTX","VertexVersion":2}}}],"name":"Mesh"},{"primitives":[{"attributes":{"COLOR_0":19,"NORMAL":16,"POSITION":14,"TANGENT":15,"TEXCOORD_0":17,"TEXCOORD_1":18},"indices":20,"material":0,"mode":4,"extras":{"ASOBO_primitive":{"PrimitiveCount":6732,"VertexType":"VTX","VertexVersion":2}}}],"name":"Mesh.003"},{"primitives":[{"attributes":{"COLOR_0":26,"NORMAL":23,"POSITION":21,"TANGENT":22,"TEXCOORD_0":24,"TEXCOORD_1":25},"indices":27,"material":0,"mode":4,"extras":{"ASOBO_primitive":{"PrimitiveCount":6732,"VertexType":"VTX","VertexVersion":2}}}],"name":"Mesh.001"},{"primitives":[{"attributes":{"COLOR_0":33,"NORMAL":30,"POSITION":28,"TANGENT":29,"TEXCOORD_0":31,"TEXCOORD_1":32},"indices":34,"material":0,"mode":4,"extras":{"ASOBO_primitive":{"PrimitiveCount":6732,"VertexType":"VTX","VertexVersion":2}}}],"name":"Mesh.004"}],"nodes":[{"mesh":0,"name":"UVset3_Volant_low"},{"mesh":1,"name":"UVset4_PlastiqueTemoin_low"},{"mesh":2,"name":"UVset5_Airbag_low"},{"mesh":3,"name":"UVset6_Frein_low"},{"mesh":4,"name":"UVset7_Airbag_low"},{"translation":[-0.5406000018119812,0.9746049642562866,0.0],"rotation":[0.4398794174194336,-0.5536299347877502,-0.5536299347877502,0.4398794174194336],"scale":[0.16999997198581696,0.17000000178813935,0.16999997198581696],"name":"SMNISSAN1","children":[0,1,2,3,4]}],"scene":0,"scenes":[{"nodes":[5],"name":"Scene"}],"textures":[{"extensions":{"MSFT_texture_dds":{"source":0}}},{"extensions":{"MSFT_texture_dds":{"source":1}}},{"extensions":{"MSFT_texture_dds":{"source":2}}},{"extensions":{"MSFT_texture_dds":{"source":3}}}],"buffers":[{"byteLength":2099832,"uri":"Neoflycrashedcar3.bin"}],"images":[{"uri":"NISSAN1LOWFIX_LAMBERT1_NORMAL.PNG.DDS","name":"Nissan1LOWfix_lambert1_Normal","extras":"ASOBO_image_converted_meta"},{"uri":"NISSAN1LOWFIX_LAMBERT1_BASECOLOR.PNG.DDS","name":"Nissan1LOWfix_lambert1_BaseColor","extras":"ASOBO_image_converted_meta"},{"uri":"NISSAN1LOWFIX_PLASTIC_NORMAL.PNG.DDS","name":"Nissan1LOWfix_plastic_Normal","extras":"ASOBO_image_converted_meta"},{"uri":"NISSAN1LOWFIX_PLASTIC_BASECOLOR.PNG.DDS","name":"Nissan1LOWfix_plastic_BaseColor","extras":"ASOBO_image_converted_meta"}]}
