{"accessors":[{"bufferView":0,"componentType":5126,"count":201,"min":[0.0],"max":[6.666666666666667],"type":"SCALAR"},{"bufferView":1,"componentType":5126,"count":201,"type":"VEC3"},{"bufferView":2,"componentType":5126,"count":201,"type":"VEC4"},{"bufferView":3,"componentType":5126,"count":746712,"min":[-1.689747929573059,-5.930780410766602,-14.717911720275879],"max":[1.9438320398330689,6.2974395751953129,3.107292413711548],"type":"VEC3","name":"Default.001_vertices#0_POSITION"},{"bufferView":3,"byteOffset":12,"componentType":5120,"count":746712,"type":"VEC4","name":"Default.001_vertices#0_TANGENT"},{"bufferView":3,"byteOffset":16,"componentType":5120,"count":746712,"type":"VEC4","name":"Default.001_vertices#0_NORMAL"},{"bufferView":3,"byteOffset":20,"componentType":5122,"count":746712,"type":"VEC2","name":"Default.001_vertices#0_TEXCOORD_0"},{"bufferView":3,"byteOffset":24,"componentType":5122,"count":746712,"type":"VEC2","name":"Default.001_vertices#0_TEXCOORD_1"},{"bufferView":3,"byteOffset":28,"componentType":5123,"count":746712,"type":"VEC4","name":"Default.001_vertices#0_COLOR_0"},{"bufferView":4,"componentType":5123,"count":2696289,"type":"SCALAR","name":"Default.001_indices#20"}],"animations":[{"name":"Neoflysinkingboat5nla1a","channels":[{"sampler":0,"target":{"node":0,"path":"translation"}},{"sampler":1,"target":{"node":0,"path":"rotation"}}],"samplers":[{"input":0,"output":1,"interpolation":"LINEAR"},{"input":0,"output":2,"interpolation":"LINEAR"}]}],"asset":{"generator":"Extended Khronos glTF Blender I/O v1.0.0","version":"2.0","extensions":{"ASOBO_asset_optimized":{"BoundingBoxMax":[1.9438320398330689,6.2974395751953129,3.107292413711548],"BoundingBoxMin":[-1.689747929573059,-5.930780410766602,-14.717911720275879],"MajorVersion":4,"MinorVersion":2},"ASOBO_normal_map_convention":{"tangent_space_convention":"DirectX"}}},"bufferViews":[{"buffer":0,"byteLength":804},{"buffer":0,"byteLength":2412,"byteOffset":804},{"buffer":0,"byteLength":3216,"byteOffset":3216},{"buffer":0,"byteLength":26881632,"byteStride":36,"byteOffset":6432,"target":34962,"name":"BufferViewVertexND"},{"buffer":0,"byteLength":5392578,"byteOffset":26888064,"target":34963,"name":"BufferViewIndex"}],"extensionsUsed":["ASOBO_normal_map_convention","MSFT_texture_dds","ASOBO_asset_optimized"],"extensionsRequired":["MSFT_texture_dds"],"materials":[{"name":"mirror","pbrMetallicRoughness":{"baseColorFactor":[0.800000011920929,0.800000011920929,0.800000011920929,1.0],"metallicFactor":0.0,"roughnessFactor":0.05000000074505806}},{"name":"wood1","pbrMetallicRoughness":{"metallicFactor":0.0,"roughnessFactor":0.5,"baseColorTexture":{"index":0}}},{"name":"woodother","normalTexture":{"index":1},"pbrMetallicRoughness":{"metallicFactor":0.0,"roughnessFactor":0.5,"baseColorTexture":{"index":2}}},{"name":"wood4","occlusionTexture":{"index":3},"pbrMetallicRoughness":{"baseColorTexture":{"index":4},"metallicRoughnessTexture":{"index":3}}},{"name":"reg","pbrMetallicRoughness":{"metallicFactor":0.0,"roughnessFactor":0.5,"baseColorTexture":{"index":5}}},{"name":"clear glass","pbrMetallicRoughness":{"baseColorFactor":[0.11457493901252748,1.0,0.9430294632911682,1.0],"metallicFactor":0.0,"roughnessFactor":0.05000000074505806}},{"name":"wood2","pbrMetallicRoughness":{"metallicFactor":0.0,"roughnessFactor":0.5,"baseColorTexture":{"index":6}}},{"name":"wood3","occlusionTexture":{"index":7},"pbrMetallicRoughness":{"baseColorTexture":{"index":8},"metallicRoughnessTexture":{"index":7}}},{"name":"dark glass","pbrMetallicRoughness":{"baseColorFactor":[0.02197911962866783,0.02197911962866783,0.02197911962866783,1.0],"metallicFactor":0.0,"roughnessFactor":0.05000000074505806}},{"name":"base","normalTexture":{"index":9},"occlusionTexture":{"index":10},"pbrMetallicRoughness":{"baseColorTexture":{"index":11},"metallicRoughnessTexture":{"index":10}}}],"meshes":[{"primitives":[{"attributes":{"COLOR_0":8,"NORMAL":5,"POSITION":3,"TANGENT":4,"TEXCOORD_0":6,"TEXCOORD_1":7},"indices":9,"material":0,"mode":4,"extras":{"ASOBO_primitive":{"PrimitiveCount":32,"VertexType":"VTX","VertexVersion":2}}},{"attributes":{"COLOR_0":8,"NORMAL":5,"POSITION":3,"TANGENT":4,"TEXCOORD_0":6,"TEXCOORD_1":7},"indices":9,"material":1,"mode":4,"extras":{"ASOBO_primitive":{"PrimitiveCount":90247,"StartIndex":96,"VertexType":"VTX","VertexVersion":2}}},{"attributes":{"COLOR_0":8,"NORMAL":5,"POSITION":3,"TANGENT":4,"TEXCOORD_0":6,"TEXCOORD_1":7},"indices":9,"material":2,"mode":4,"extras":{"ASOBO_primitive":{"PrimitiveCount":11561,"StartIndex":270837,"VertexType":"VTX","VertexVersion":2}}},{"attributes":{"COLOR_0":8,"NORMAL":5,"POSITION":3,"TANGENT":4,"TEXCOORD_0":6,"TEXCOORD_1":7},"indices":9,"material":2,"mode":4,"extras":{"ASOBO_primitive":{"BaseVertexIndex":65530,"PrimitiveCount":13193,"StartIndex":305520,"VertexType":"VTX","VertexVersion":2}}},{"attributes":{"COLOR_0":8,"NORMAL":5,"POSITION":3,"TANGENT":4,"TEXCOORD_0":6,"TEXCOORD_1":7},"indices":9,"material":3,"mode":4,"extras":{"ASOBO_primitive":{"BaseVertexIndex":65530,"PrimitiveCount":5640,"StartIndex":345099,"VertexType":"VTX","VertexVersion":2}}},{"attributes":{"COLOR_0":8,"NORMAL":5,"POSITION":3,"TANGENT":4,"TEXCOORD_0":6,"TEXCOORD_1":7},"indices":9,"material":4,"mode":4,"extras":{"ASOBO_primitive":{"BaseVertexIndex":65530,"PrimitiveCount":1136,"StartIndex":362019,"VertexType":"VTX","VertexVersion":2}}},{"attributes":{"COLOR_0":8,"NORMAL":5,"POSITION":3,"TANGENT":4,"TEXCOORD_0":6,"TEXCOORD_1":7},"indices":9,"material":5,"mode":4,"extras":{"ASOBO_primitive":{"BaseVertexIndex":65530,"PrimitiveCount":464,"StartIndex":365427,"VertexType":"VTX","VertexVersion":2}}},{"attributes":{"COLOR_0":8,"NORMAL":5,"POSITION":3,"TANGENT":4,"TEXCOORD_0":6,"TEXCOORD_1":7},"indices":9,"material":6,"mode":4,"extras":{"ASOBO_primitive":{"BaseVertexIndex":65530,"PrimitiveCount":29707,"StartIndex":366819,"VertexType":"VTX","VertexVersion":2}}},{"attributes":{"COLOR_0":8,"NORMAL":5,"POSITION":3,"TANGENT":4,"TEXCOORD_0":6,"TEXCOORD_1":7},"indices":9,"material":7,"mode":4,"extras":{"ASOBO_primitive":{"BaseVertexIndex":65530,"PrimitiveCount":744,"StartIndex":455940,"VertexType":"VTX","VertexVersion":2}}},{"attributes":{"COLOR_0":8,"NORMAL":5,"POSITION":3,"TANGENT":4,"TEXCOORD_0":6,"TEXCOORD_1":7},"indices":9,"material":8,"mode":4,"extras":{"ASOBO_primitive":{"BaseVertexIndex":65530,"PrimitiveCount":128,"StartIndex":458172,"VertexType":"VTX","VertexVersion":2}}},{"attributes":{"COLOR_0":8,"NORMAL":5,"POSITION":3,"TANGENT":4,"TEXCOORD_0":6,"TEXCOORD_1":7},"indices":9,"material":9,"mode":4,"extras":{"ASOBO_primitive":{"BaseVertexIndex":65530,"PrimitiveCount":32521,"StartIndex":458556,"VertexType":"VTX","VertexVersion":2}}},{"attributes":{"COLOR_0":8,"NORMAL":5,"POSITION":3,"TANGENT":4,"TEXCOORD_0":6,"TEXCOORD_1":7},"indices":9,"material":9,"mode":4,"extras":{"ASOBO_primitive":{"BaseVertexIndex":131059,"PrimitiveCount":66577,"StartIndex":556119,"VertexType":"VTX","VertexVersion":2}}},{"attributes":{"COLOR_0":8,"NORMAL":5,"POSITION":3,"TANGENT":4,"TEXCOORD_0":6,"TEXCOORD_1":7},"indices":9,"material":9,"mode":4,"extras":{"ASOBO_primitive":{"BaseVertexIndex":196589,"PrimitiveCount":70191,"StartIndex":755850,"VertexType":"VTX","VertexVersion":2}}},{"attributes":{"COLOR_0":8,"NORMAL":5,"POSITION":3,"TANGENT":4,"TEXCOORD_0":6,"TEXCOORD_1":7},"indices":9,"material":9,"mode":4,"extras":{"ASOBO_primitive":{"BaseVertexIndex":262119,"PrimitiveCount":85826,"StartIndex":966423,"VertexType":"VTX","VertexVersion":2}}},{"attributes":{"COLOR_0":8,"NORMAL":5,"POSITION":3,"TANGENT":4,"TEXCOORD_0":6,"TEXCOORD_1":7},"indices":9,"material":9,"mode":4,"extras":{"ASOBO_primitive":{"BaseVertexIndex":327648,"PrimitiveCount":89930,"StartIndex":1223901,"VertexType":"VTX","VertexVersion":2}}},{"attributes":{"COLOR_0":8,"NORMAL":5,"POSITION":3,"TANGENT":4,"TEXCOORD_0":6,"TEXCOORD_1":7},"indices":9,"material":9,"mode":4,"extras":{"ASOBO_primitive":{"BaseVertexIndex":393177,"PrimitiveCount":66817,"StartIndex":1493691,"VertexType":"VTX","VertexVersion":2}}},{"attributes":{"COLOR_0":8,"NORMAL":5,"POSITION":3,"TANGENT":4,"TEXCOORD_0":6,"TEXCOORD_1":7},"indices":9,"material":9,"mode":4,"extras":{"ASOBO_primitive":{"BaseVertexIndex":458707,"PrimitiveCount":75180,"StartIndex":1694142,"VertexType":"VTX","VertexVersion":2}}},{"attributes":{"COLOR_0":8,"NORMAL":5,"POSITION":3,"TANGENT":4,"TEXCOORD_0":6,"TEXCOORD_1":7},"indices":9,"material":9,"mode":4,"extras":{"ASOBO_primitive":{"BaseVertexIndex":524237,"PrimitiveCount":58338,"StartIndex":1919682,"VertexType":"VTX","VertexVersion":2}}},{"attributes":{"COLOR_0":8,"NORMAL":5,"POSITION":3,"TANGENT":4,"TEXCOORD_0":6,"TEXCOORD_1":7},"indices":9,"material":9,"mode":4,"extras":{"ASOBO_primitive":{"BaseVertexIndex":589766,"PrimitiveCount":79210,"StartIndex":2094696,"VertexType":"VTX","VertexVersion":2}}},{"attributes":{"COLOR_0":8,"NORMAL":5,"POSITION":3,"TANGENT":4,"TEXCOORD_0":6,"TEXCOORD_1":7},"indices":9,"material":9,"mode":4,"extras":{"ASOBO_primitive":{"BaseVertexIndex":655296,"PrimitiveCount":82609,"StartIndex":2332326,"VertexType":"VTX","VertexVersion":2}}},{"attributes":{"COLOR_0":8,"NORMAL":5,"POSITION":3,"TANGENT":4,"TEXCOORD_0":6,"TEXCOORD_1":7},"indices":9,"material":9,"mode":4,"extras":{"ASOBO_primitive":{"BaseVertexIndex":720826,"PrimitiveCount":38712,"StartIndex":2580153,"VertexType":"VTX","VertexVersion":2}}}],"name":"Default.001"}],"nodes":[{"translation":[5.489552974700928,0.4520992338657379,-0.03635208308696747],"rotation":[0.48007285594940188,-0.5191629528999329,-0.5191629528999329,0.4800727665424347],"mesh":0,"name":"Default.001"}],"scene":0,"scenes":[{"nodes":[0],"name":"Scene"}],"textures":[{"extensions":{"MSFT_texture_dds":{"source":0}}},{"extensions":{"MSFT_texture_dds":{"source":1}}},{"extensions":{"MSFT_texture_dds":{"source":2}}},{"extensions":{"MSFT_texture_dds":{"source":3}}},{"extensions":{"MSFT_texture_dds":{"source":4}}},{"extensions":{"MSFT_texture_dds":{"source":5}}},{"extensions":{"MSFT_texture_dds":{"source":6}}},{"extensions":{"MSFT_texture_dds":{"source":7}}},{"extensions":{"MSFT_texture_dds":{"source":8}}},{"extensions":{"MSFT_texture_dds":{"source":9}}},{"extensions":{"MSFT_texture_dds":{"source":10}}},{"extensions":{"MSFT_texture_dds":{"source":11}}}],"buffers":[{"byteLength":32280642,"uri":"Neoflysinkingboat5.bin"}],"images":[{"uri":"WOOD_01_D_TGA.PNG.DDS","name":"Wood_01_D_tga","extras":"ASOBO_image_converted_meta"},{"uri":"WOOD_OTHER_01_N_TGA.PNG.DDS","name":"Wood_Other_01_N_tga","extras":"ASOBO_image_converted_meta"},{"uri":"WOOD_OTHER_01_D_TGA.PNG.DDS","name":"Wood_Other_01_D_tga","extras":"ASOBO_image_converted_meta"},{"uri":"WOOD_04_R_TGA.PNG.DDS","name":"Wood_04_R_tga","extras":"ASOBO_image_converted_meta"},{"uri":"WOOD_04_D_TGA.PNG.DDS","name":"Wood_04_D_tga","extras":"ASOBO_image_converted_meta"},{"uri":"REGISTRATION_OTHER_D_TGA.PNG.DDS","name":"Registration_Other_D_tga","extras":"ASOBO_image_converted_meta"},{"uri":"WOOD_02_D_TGA.PNG.DDS","name":"Wood_02_D_tga","extras":"ASOBO_image_converted_meta"},{"uri":"WOOD_03_R_TGA.PNG.DDS","name":"Wood_03_R_tga","extras":"ASOBO_image_converted_meta"},{"uri":"WOOD_03_D_TGA.PNG.DDS","name":"Wood_03_D_tga","extras":"ASOBO_image_converted_meta"},{"uri":"BASE_MATERIAL_OTHER_01_N_TGA.PNG.DDS","name":"Base_Material_Other_01_N_tga","extras":"ASOBO_image_converted_meta"},{"uri":"BASE_MATERIAL_OTHER_01_R_TGA.PNG.DDS","name":"Base_Material_Other_01_R_tga","extras":"ASOBO_image_converted_meta"},{"uri":"BASE_MATERIAL_OTHER_01_D_TGA.PNG.DDS","name":"Base_Material_Other_01_D_tga","extras":"ASOBO_image_converted_meta"}]}
