{"accessors":[{"bufferView":0,"componentType":5126,"count":2002,"min":[0.0],"max":[83.375],"type":"SCALAR"},{"bufferView":1,"componentType":5126,"count":2002,"type":"VEC3"},{"bufferView":2,"componentType":5126,"count":2001,"min":[0.0],"max":[83.33333333333333],"type":"SCALAR"},{"bufferView":3,"componentType":5126,"count":2001,"type":"VEC3"},{"bufferView":4,"componentType":5126,"count":2002,"type":"VEC3"},{"bufferView":5,"componentType":5126,"count":2001,"type":"VEC3"},{"bufferView":6,"componentType":5126,"count":670,"min":[-0.6424797177314758,-0.02811548113822937,1.0906031131744385],"max":[0.64248126745224,0.18248648941516877,2.309396505355835],"type":"VEC3","name":"Cube.052_vertices#0_POSITION"},{"bufferView":6,"byteOffset":12,"componentType":5120,"count":670,"type":"VEC4","name":"Cube.052_vertices#0_TANGENT"},{"bufferView":6,"byteOffset":16,"componentType":5120,"count":670,"type":"VEC4","name":"Cube.052_vertices#0_NORMAL"},{"bufferView":6,"byteOffset":20,"componentType":5122,"count":670,"type":"VEC2","name":"Cube.052_vertices#0_TEXCOORD_0"},{"bufferView":6,"byteOffset":24,"componentType":5122,"count":670,"type":"VEC2","name":"Cube.052_vertices#0_TEXCOORD_1"},{"bufferView":6,"byteOffset":28,"componentType":5123,"count":670,"type":"VEC4","name":"Cube.052_vertices#0_COLOR_0"},{"bufferView":7,"componentType":5123,"count":1080,"type":"SCALAR","name":"Cube.052_indices#0"},{"bufferView":6,"byteOffset":24120,"componentType":5126,"count":5676,"min":[-0.49746325612068179,0.1822403073310852,1.2355451583862305],"max":[0.4981763958930969,0.502899706363678,1.6014896631240845],"type":"VEC3","name":"Sci-Fi_Case_vertices#0_POSITION"},{"bufferView":6,"byteOffset":24132,"componentType":5120,"count":5676,"type":"VEC4","name":"Sci-Fi_Case_vertices#0_TANGENT"},{"bufferView":6,"byteOffset":24136,"componentType":5120,"count":5676,"type":"VEC4","name":"Sci-Fi_Case_vertices#0_NORMAL"},{"bufferView":6,"byteOffset":24140,"componentType":5122,"count":5676,"type":"VEC2","name":"Sci-Fi_Case_vertices#0_TEXCOORD_0"},{"bufferView":6,"byteOffset":24144,"componentType":5122,"count":5676,"type":"VEC2","name":"Sci-Fi_Case_vertices#0_TEXCOORD_1"},{"bufferView":6,"byteOffset":24148,"componentType":5123,"count":5676,"type":"VEC4","name":"Sci-Fi_Case_vertices#0_COLOR_0"},{"bufferView":7,"byteOffset":2160,"componentType":5123,"count":14796,"type":"SCALAR","name":"Sci-Fi_Case_indices#0"},{"bufferView":6,"byteOffset":228456,"componentType":5126,"count":5682,"min":[-0.49746325612068179,0.1822403073310852,1.795548439025879],"max":[0.4981763958930969,0.502899706363678,2.1614928245544435],"type":"VEC3","name":"Sci-Fi_Case.004_vertices#0_POSITION"},{"bufferView":6,"byteOffset":228468,"componentType":5120,"count":5682,"type":"VEC4","name":"Sci-Fi_Case.004_vertices#0_TANGENT"},{"bufferView":6,"byteOffset":228472,"componentType":5120,"count":5682,"type":"VEC4","name":"Sci-Fi_Case.004_vertices#0_NORMAL"},{"bufferView":6,"byteOffset":228476,"componentType":5122,"count":5682,"type":"VEC2","name":"Sci-Fi_Case.004_vertices#0_TEXCOORD_0"},{"bufferView":6,"byteOffset":228480,"componentType":5122,"count":5682,"type":"VEC2","name":"Sci-Fi_Case.004_vertices#0_TEXCOORD_1"},{"bufferView":6,"byteOffset":228484,"componentType":5123,"count":5682,"type":"VEC4","name":"Sci-Fi_Case.004_vertices#0_COLOR_0"},{"bufferView":7,"byteOffset":31752,"componentType":5123,"count":14796,"type":"SCALAR","name":"Sci-Fi_Case.004_indices#0"},{"bufferView":6,"byteOffset":433008,"componentType":5126,"count":5686,"min":[-0.49746325612068179,0.47999614477157595,1.2355451583862305],"max":[0.4981763958930969,0.8006556034088135,1.6014896631240845],"type":"VEC3","name":"Sci-Fi_Case.001_vertices#0_POSITION"},{"bufferView":6,"byteOffset":433020,"componentType":5120,"count":5686,"type":"VEC4","name":"Sci-Fi_Case.001_vertices#0_TANGENT"},{"bufferView":6,"byteOffset":433024,"componentType":5120,"count":5686,"type":"VEC4","name":"Sci-Fi_Case.001_vertices#0_NORMAL"},{"bufferView":6,"byteOffset":433028,"componentType":5122,"count":5686,"type":"VEC2","name":"Sci-Fi_Case.001_vertices#0_TEXCOORD_0"},{"bufferView":6,"byteOffset":433032,"componentType":5122,"count":5686,"type":"VEC2","name":"Sci-Fi_Case.001_vertices#0_TEXCOORD_1"},{"bufferView":6,"byteOffset":433036,"componentType":5123,"count":5686,"type":"VEC4","name":"Sci-Fi_Case.001_vertices#0_COLOR_0"},{"bufferView":7,"byteOffset":61344,"componentType":5123,"count":14796,"type":"SCALAR","name":"Sci-Fi_Case.001_indices#0"},{"bufferView":6,"byteOffset":637704,"componentType":5126,"count":5686,"min":[-0.49746325612068179,0.47999614477157595,1.795548439025879],"max":[0.4981763958930969,0.8006556034088135,2.1614928245544435],"type":"VEC3","name":"Sci-Fi_Case.006_vertices#0_POSITION"},{"bufferView":6,"byteOffset":637716,"componentType":5120,"count":5686,"type":"VEC4","name":"Sci-Fi_Case.006_vertices#0_TANGENT"},{"bufferView":6,"byteOffset":637720,"componentType":5120,"count":5686,"type":"VEC4","name":"Sci-Fi_Case.006_vertices#0_NORMAL"},{"bufferView":6,"byteOffset":637724,"componentType":5122,"count":5686,"type":"VEC2","name":"Sci-Fi_Case.006_vertices#0_TEXCOORD_0"},{"bufferView":6,"byteOffset":637728,"componentType":5122,"count":5686,"type":"VEC2","name":"Sci-Fi_Case.006_vertices#0_TEXCOORD_1"},{"bufferView":6,"byteOffset":637732,"componentType":5123,"count":5686,"type":"VEC4","name":"Sci-Fi_Case.006_vertices#0_COLOR_0"},{"bufferView":7,"byteOffset":90936,"componentType":5123,"count":14796,"type":"SCALAR","name":"Sci-Fi_Case.006_indices#0"}],"animations":[{"name":"Neoflycargo_hazardous_u_4","channels":[{"sampler":0,"target":{"node":1,"path":"translation"}},{"sampler":1,"target":{"node":2,"path":"translation"}},{"sampler":2,"target":{"node":3,"path":"translation"}},{"sampler":3,"target":{"node":4,"path":"translation"}}],"samplers":[{"input":0,"output":1,"interpolation":"LINEAR"},{"input":2,"output":3,"interpolation":"LINEAR"},{"input":0,"output":4,"interpolation":"LINEAR"},{"input":2,"output":5,"interpolation":"LINEAR"}]}],"asset":{"generator":"Khronos glTF Blender I/O v1.8.19 and Asobo Studio MSFS Blender I/O v1.1.6","version":"2.0","extensions":{"ASOBO_asset_optimized":{"BoundingBoxMax":[0.64248126745224,0.8006556034088135,2.309396505355835],"BoundingBoxMin":[-0.6424797177314758,-0.02811548113822937,1.0906031131744385],"MajorVersion":4,"MinorVersion":4,"UseCheckerboardMaterialForMissingTextures":true,"UseOnlyFilenameForImageURI":true},"ASOBO_normal_map_convention":{"tangent_space_convention":"DirectX"}}},"bufferViews":[{"buffer":0,"byteLength":8008},{"buffer":0,"byteLength":24024,"byteOffset":8008},{"buffer":0,"byteLength":8004,"byteOffset":32032},{"buffer":0,"byteLength":24012,"byteOffset":40036},{"buffer":0,"byteLength":24024,"byteOffset":64048},{"buffer":0,"byteLength":24012,"byteOffset":88072},{"buffer":0,"byteLength":842400,"byteStride":36,"byteOffset":112084,"target":34962,"name":"BufferViewVertexND"},{"buffer":0,"byteLength":120528,"byteOffset":954484,"target":34963,"name":"BufferViewIndex"}],"extensionsRequired":["MSFT_texture_dds"],"materials":[{"name":"cargo0A","normalTexture":{"index":0},"occlusionTexture":{"index":1},"pbrMetallicRoughness":{"baseColorFactor":[0.9999988079071044,0.9999989867210388,1.0,1.0],"baseColorTexture":{"index":2},"metallicRoughnessTexture":{"index":1}}},{"name":"Sci-Fi_Case","normalTexture":{"index":4},"occlusionTexture":{"index":5},"emissiveTexture":{"index":3},"emissiveFactor":[1.0,0.0,0.0],"pbrMetallicRoughness":{"baseColorTexture":{"index":6},"metallicRoughnessTexture":{"index":5}}}],"meshes":[{"primitives":[{"attributes":{"COLOR_0":11,"NORMAL":8,"POSITION":6,"TANGENT":7,"TEXCOORD_0":9,"TEXCOORD_1":10},"indices":12,"material":0,"mode":4,"extras":{"ASOBO_primitive":{"PrimitiveCount":360,"VertexType":"VTX","VertexVersion":2}}}],"name":"Cube.052"},{"primitives":[{"attributes":{"COLOR_0":18,"NORMAL":15,"POSITION":13,"TANGENT":14,"TEXCOORD_0":16,"TEXCOORD_1":17},"indices":19,"material":1,"mode":4,"extras":{"ASOBO_primitive":{"PrimitiveCount":4932,"VertexType":"VTX","VertexVersion":2}}}],"name":"Sci-Fi_Case"},{"primitives":[{"attributes":{"COLOR_0":25,"NORMAL":22,"POSITION":20,"TANGENT":21,"TEXCOORD_0":23,"TEXCOORD_1":24},"indices":26,"material":1,"mode":4,"extras":{"ASOBO_primitive":{"PrimitiveCount":4932,"VertexType":"VTX","VertexVersion":2}}}],"name":"Sci-Fi_Case.004"},{"primitives":[{"attributes":{"COLOR_0":32,"NORMAL":29,"POSITION":27,"TANGENT":28,"TEXCOORD_0":30,"TEXCOORD_1":31},"indices":33,"material":1,"mode":4,"extras":{"ASOBO_primitive":{"PrimitiveCount":4932,"VertexType":"VTX","VertexVersion":2}}}],"name":"Sci-Fi_Case.001"},{"primitives":[{"attributes":{"COLOR_0":39,"NORMAL":36,"POSITION":34,"TANGENT":35,"TEXCOORD_0":37,"TEXCOORD_1":38},"indices":40,"material":1,"mode":4,"extras":{"ASOBO_primitive":{"PrimitiveCount":4932,"VertexType":"VTX","VertexVersion":2}}}],"name":"Sci-Fi_Case.006"}],"nodes":[{"mesh":0,"name":"Neoflycargo00"},{"translation":[0.0,-200.0,0.0],"mesh":1,"name":"Sci-Fi_Case.001"},{"translation":[0.0,-200.0,0.0],"mesh":2,"name":"Sci-Fi_Case.003"},{"translation":[0.0,-200.0,0.0],"mesh":3,"name":"Sci-Fi_Case.006"},{"translation":[0.0,-200.0,0.0],"mesh":4,"name":"Sci-Fi_Case.008"}],"scene":0,"scenes":[{"nodes":[0,1,2,3,4],"name":"Scene"}],"textures":[{"extensions":{"MSFT_texture_dds":{"source":0}}},{"extensions":{"MSFT_texture_dds":{"source":1}}},{"extensions":{"MSFT_texture_dds":{"source":2}}},{"extensions":{"MSFT_texture_dds":{"source":3}}},{"extensions":{"MSFT_texture_dds":{"source":4}}},{"extensions":{"MSFT_texture_dds":{"source":5}}},{"extensions":{"MSFT_texture_dds":{"source":6}}}],"samplers":[{"magFilter":9729,"minFilter":9987,"wrapS":10497,"wrapT":10497}],"extensionsUsed":["ASOBO_normal_map_convention","MSFT_texture_dds","ASOBO_asset_optimized"],"buffers":[{"byteLength":1075012,"uri":"Neoflycargo_hazardous_u_4.bin"}],"images":[{"uri":"NEOFLY_CARGO0A_NORM.PNG.DDS","name":"neofly_cargo0a_norm","extras":"ASOBO_image_converted_meta"},{"uri":"NEOFLY_CARGO0A_COMP.PNG.DDS","name":"neofly_cargo0a_comp","extras":"ASOBO_image_converted_meta"},{"uri":"NEOFLY_CARGO0A_ALBD.PNG.DDS","name":"neofly_cargo0a_albd","extras":"ASOBO_image_converted_meta"},{"uri":"NEOFLY_CARGO24_EMIS.PNG.DDS","name":"neofly_cargo24_Emis","extras":"ASOBO_image_converted_meta"},{"uri":"NEOFLY_CARGO24_NORM.PNG.DDS","name":"neofly_cargo24_norm","extras":"ASOBO_image_converted_meta"},{"uri":"NEOFLY_CARGO24_COMP.PNG.DDS","name":"neofly_cargo24_comp","extras":"ASOBO_image_converted_meta"},{"uri":"NEOFLY_CARGO24_ALBD.PNG.DDS","name":"neofly_cargo24_albd","extras":"ASOBO_image_converted_meta"}]}
