{"accessors":[{"bufferView":0,"componentType":5126,"count":3509,"min":[-232.1504364013672,-76.31475067138672,-267.3711853027344],"max":[246.8529052734375,67.96759033203125,466.63983154296877],"type":"VEC3","name":"LOWPOLY001_Material #51_0_vertices#0_POSITION"},{"bufferView":0,"byteOffset":12,"componentType":5120,"count":3509,"type":"VEC4","name":"LOWPOLY001_Material #51_0_vertices#0_TANGENT"},{"bufferView":0,"byteOffset":16,"componentType":5120,"count":3509,"type":"VEC4","name":"LOWPOLY001_Material #51_0_vertices#0_NORMAL"},{"bufferView":0,"byteOffset":20,"componentType":5122,"count":3509,"type":"VEC2","name":"LOWPOLY001_Material #51_0_vertices#0_TEXCOORD_0"},{"bufferView":0,"byteOffset":24,"componentType":5122,"count":3509,"type":"VEC2","name":"LOWPOLY001_Material #51_0_vertices#0_TEXCOORD_1"},{"bufferView":0,"byteOffset":28,"componentType":5123,"count":3509,"type":"VEC4","name":"LOWPOLY001_Material #51_0_vertices#0_COLOR_0"},{"bufferView":1,"componentType":5123,"count":9408,"type":"SCALAR","name":"LOWPOLY001_Material #51_0_indices#0"},{"bufferView":0,"byteOffset":126324,"componentType":5126,"count":98,"min":[-114.54130554199219,4.088492393493652,-466.63983154296877],"max":[3.740123748779297,25.550979614257814,-264.654296875],"type":"VEC3","name":"LOWPOLY001_Material #51_0.001_vertices#0_POSITION"},{"bufferView":0,"byteOffset":126336,"componentType":5120,"count":98,"type":"VEC4","name":"LOWPOLY001_Material #51_0.001_vertices#0_TANGENT"},{"bufferView":0,"byteOffset":126340,"componentType":5120,"count":98,"type":"VEC4","name":"LOWPOLY001_Material #51_0.001_vertices#0_NORMAL"},{"bufferView":0,"byteOffset":126344,"componentType":5122,"count":98,"type":"VEC2","name":"LOWPOLY001_Material #51_0.001_vertices#0_TEXCOORD_0"},{"bufferView":0,"byteOffset":126348,"componentType":5122,"count":98,"type":"VEC2","name":"LOWPOLY001_Material #51_0.001_vertices#0_TEXCOORD_1"},{"bufferView":0,"byteOffset":126352,"componentType":5123,"count":98,"type":"VEC4","name":"LOWPOLY001_Material #51_0.001_vertices#0_COLOR_0"},{"bufferView":1,"byteOffset":18816,"componentType":5123,"count":240,"type":"SCALAR","name":"LOWPOLY001_Material #51_0.001_indices#0"},{"bufferView":0,"byteOffset":129852,"componentType":5126,"count":605,"min":[-475.10601806640627,-87.9503173828125,-160.44309997558595],"max":[-223.91766357421876,100.50208282470703,142.48741149902345],"type":"VEC3","name":"LOWPOLY001_Material #51_0.002_vertices#0_POSITION"},{"bufferView":0,"byteOffset":129864,"componentType":5120,"count":605,"type":"VEC4","name":"LOWPOLY001_Material #51_0.002_vertices#0_TANGENT"},{"bufferView":0,"byteOffset":129868,"componentType":5120,"count":605,"type":"VEC4","name":"LOWPOLY001_Material #51_0.002_vertices#0_NORMAL"},{"bufferView":0,"byteOffset":129872,"componentType":5122,"count":605,"type":"VEC2","name":"LOWPOLY001_Material #51_0.002_vertices#0_TEXCOORD_0"},{"bufferView":0,"byteOffset":129876,"componentType":5122,"count":605,"type":"VEC2","name":"LOWPOLY001_Material #51_0.002_vertices#0_TEXCOORD_1"},{"bufferView":0,"byteOffset":129880,"componentType":5123,"count":605,"type":"VEC4","name":"LOWPOLY001_Material #51_0.002_vertices#0_COLOR_0"},{"bufferView":1,"byteOffset":19296,"componentType":5123,"count":1470,"type":"SCALAR","name":"LOWPOLY001_Material #51_0.002_indices#0"}],"asset":{"generator":"Extended Khronos glTF Blender I/O v1.0.0","version":"2.0","extensions":{"ASOBO_asset_optimized":{"BoundingBoxMax":[246.8529052734375,100.50208282470703,466.63983154296877],"BoundingBoxMin":[-475.10601806640627,-87.9503173828125,-466.63983154296877],"MajorVersion":4,"MinorVersion":2},"ASOBO_normal_map_convention":{"tangent_space_convention":"DirectX"}}},"bufferViews":[{"buffer":0,"byteLength":151632,"byteStride":36,"target":34962,"name":"BufferViewVertexND"},{"buffer":0,"byteLength":22236,"byteOffset":151632,"target":34963,"name":"BufferViewIndex"}],"extensionsUsed":["ASOBO_normal_map_convention","ASOBO_material_detail_map","MSFT_texture_dds","ASOBO_asset_optimized"],"extensionsRequired":["MSFT_texture_dds"],"materials":[{"name":"Material.001","normalTexture":{"index":1},"pbrMetallicRoughness":{"metallicFactor":0.0,"roughnessFactor":0.5,"baseColorTexture":{"index":2}},"extensions":{"ASOBO_material_detail_map":{"detailMetalRoughAOTexture":{"index":0}}}}],"meshes":[{"primitives":[{"attributes":{"COLOR_0":5,"NORMAL":2,"POSITION":0,"TANGENT":1,"TEXCOORD_0":3,"TEXCOORD_1":4},"indices":6,"material":0,"mode":4,"extras":{"ASOBO_primitive":{"PrimitiveCount":3136,"VertexType":"VTX","VertexVersion":2}}}],"name":"LOWPOLY001_Material #51_0"},{"primitives":[{"attributes":{"COLOR_0":12,"NORMAL":9,"POSITION":7,"TANGENT":8,"TEXCOORD_0":10,"TEXCOORD_1":11},"indices":13,"material":0,"mode":4,"extras":{"ASOBO_primitive":{"PrimitiveCount":80,"VertexType":"VTX","VertexVersion":2}}}],"name":"LOWPOLY001_Material #51_0.001"},{"primitives":[{"attributes":{"COLOR_0":19,"NORMAL":16,"POSITION":14,"TANGENT":15,"TEXCOORD_0":17,"TEXCOORD_1":18},"indices":20,"material":0,"mode":4,"extras":{"ASOBO_primitive":{"PrimitiveCount":490,"VertexType":"VTX","VertexVersion":2}}}],"name":"LOWPOLY001_Material #51_0.002"}],"nodes":[{"translation":[-0.5174352526664734,-23.12669563293457,-0.1693168431520462],"rotation":[0.17891950905323029,-0.9629803895950316,-0.19311775267124177,-0.05798955634236336],"scale":[0.03500000759959221,0.03500000759959221,0.03500000759959221],"mesh":0,"name":"LOWPOLY001_Material #51_0"},{"translation":[-2.8146004676818849,-25.264232635498048,0.8164734840393066],"rotation":[0.01318564172834158,-0.985637068748474,0.0204362403601408,0.16711965203285218],"scale":[0.03500000759959221,0.03500000759959221,0.03500000759959221],"mesh":1,"name":"LOWPOLY001_Material #51_0.001"},{"translation":[3.1021363735198976,-21.854642868041993,-0.2278926968574524],"rotation":[-0.026032675057649614,-0.9912756085395812,-0.07956640422344208,-0.10180830210447312],"scale":[0.03500000759959221,0.03500000759959221,0.03500000759959221],"mesh":2,"name":"LOWPOLY001_Material #51_0.002"},{"translation":[0.0,24.804807662963868,0.23416627943515776],"rotation":[0.0,0.7071068286895752,0.0,0.7071068286895752],"name":"LOWPOLY001","children":[0,1,2]},{"name":"RootNode","children":[3]},{"rotation":[0.7071068286895752,0.0,0.0,0.7071068286895752],"name":"bomber.FBX","children":[4]},{"name":"RootNode (model correction matrix)","children":[5]},{"translation":[0.0,-0.4115363359451294,0.03919393941760063],"rotation":[-0.7071067690849304,0.0,0.0,0.7071067690849304],"name":"RootNode (gltf orientation matrix)","children":[6]}],"scene":0,"scenes":[{"nodes":[7],"name":"Scene"}],"textures":[{"extensions":{"MSFT_texture_dds":{"source":0}}},{"extensions":{"MSFT_texture_dds":{"source":1}}},{"extensions":{"MSFT_texture_dds":{"source":2}}}],"buffers":[{"byteLength":173868,"uri":"Neoflywreckedplane4.bin"}],"images":[{"uri":"MATERIAL_51_METALLICROUGHNESS.PNG.DDS","name":"Material_51_metallicRoughness","extras":"ASOBO_image_converted_meta"},{"uri":"MATERIAL_51_NORMAL.PNG.DDS","name":"Material_51_normal","extras":"ASOBO_image_converted_meta"},{"uri":"MATERIAL_51_BASECOLOR.PNG.DDS","name":"Material_51_baseColor","extras":"ASOBO_image_converted_meta"}]}
