{"accessors":[{"bufferView":0,"componentType":5126,"count":201,"min":[0.0],"max":[6.666666666666667],"type":"SCALAR"},{"bufferView":1,"componentType":5126,"count":201,"type":"VEC4"},{"bufferView":2,"componentType":5126,"count":37239,"min":[1682.638916015625,-127.66715240478516,-575.6640625],"max":[4347.484375,1061.4925537109376,49.636566162109378],"type":"VEC3","name":"Mesh.023_vertices#0_POSITION"},{"bufferView":2,"byteOffset":12,"componentType":5120,"count":37239,"type":"VEC4","name":"Mesh.023_vertices#0_TANGENT"},{"bufferView":2,"byteOffset":16,"componentType":5120,"count":37239,"type":"VEC4","name":"Mesh.023_vertices#0_NORMAL"},{"bufferView":2,"byteOffset":20,"componentType":5122,"count":37239,"type":"VEC2","name":"Mesh.023_vertices#0_TEXCOORD_0"},{"bufferView":2,"byteOffset":24,"componentType":5122,"count":37239,"type":"VEC2","name":"Mesh.023_vertices#0_TEXCOORD_1"},{"bufferView":2,"byteOffset":28,"componentType":5123,"count":37239,"type":"VEC4","name":"Mesh.023_vertices#0_COLOR_0"},{"bufferView":3,"componentType":5123,"count":118692,"type":"SCALAR","name":"Mesh.023_indices#16"}],"animations":[{"name":"Neoflysinkingboat1nla1a","channels":[{"sampler":0,"target":{"node":0,"path":"rotation"}}],"samplers":[{"input":0,"output":1,"interpolation":"LINEAR"}]}],"asset":{"generator":"Extended Khronos glTF Blender I/O v1.0.0","version":"2.0","extensions":{"ASOBO_asset_optimized":{"BoundingBoxMax":[4347.484375,1061.4925537109376,49.636566162109378],"BoundingBoxMin":[1682.638916015625,-127.66715240478516,-575.6640625],"MajorVersion":4,"MinorVersion":2},"ASOBO_normal_map_convention":{"tangent_space_convention":"DirectX"}}},"bufferViews":[{"buffer":0,"byteLength":804},{"buffer":0,"byteLength":3216,"byteOffset":804},{"buffer":0,"byteLength":1340604,"byteStride":36,"byteOffset":4020,"target":34962,"name":"BufferViewVertexND"},{"buffer":0,"byteLength":237384,"byteOffset":1344624,"target":34963,"name":"BufferViewIndex"}],"extensionsUsed":["ASOBO_normal_map_convention","MSFT_texture_dds","ASOBO_asset_optimized"],"extensionsRequired":["MSFT_texture_dds"],"materials":[{"name":"Material.005","pbrMetallicRoughness":{"metallicFactor":0.0,"roughnessFactor":0.10000000149011612,"baseColorTexture":{"index":0}}},{"name":"Material.006","pbrMetallicRoughness":{"baseColorFactor":[0.8000000715255737,0.1390220820903778,0.37961235642433169,1.0],"metallicFactor":0.0,"roughnessFactor":0.5}},{"name":"Material.007","pbrMetallicRoughness":{"baseColorFactor":[0.800000011920929,0.800000011920929,0.800000011920929,1.0],"metallicFactor":0.0,"roughnessFactor":0.05000000074505806}},{"name":"metal","pbrMetallicRoughness":{"baseColorFactor":[0.6845876574516296,0.8000000715255737,0.7278388738632202,1.0],"roughnessFactor":0.05000000074505806}},{"name":"metal.001","pbrMetallicRoughness":{"baseColorFactor":[0.800000011920929,0.800000011920929,0.800000011920929,1.0],"metallicFactor":0.0,"roughnessFactor":0.05000000074505806}},{"name":"vray Main","pbrMetallicRoughness":{"baseColorFactor":[0.800000011920929,0.800000011920929,0.800000011920929,1.0],"metallicFactor":0.0,"roughnessFactor":0.5}},{"name":"Material.009","pbrMetallicRoughness":{"baseColorFactor":[0.6618644595146179,0.6618644595146179,0.6618644595146179,1.0],"metallicFactor":0.0,"roughnessFactor":0.5}},{"name":"blanc","pbrMetallicRoughness":{"baseColorFactor":[0.800000011920929,0.800000011920929,0.800000011920929,1.0],"metallicFactor":0.0,"roughnessFactor":0.10000000149011612}},{"name":"wood","pbrMetallicRoughness":{"metallicFactor":0.0,"baseColorTexture":{"index":1}}},{"name":"Material.013","pbrMetallicRoughness":{"baseColorFactor":[0.0,0.0,0.0,1.0],"metallicFactor":0.0,"roughnessFactor":0.05000000074505806}},{"name":"vray Metal","doubleSided":true,"pbrMetallicRoughness":{"baseColorFactor":[0.0,0.0,0.0,1.0],"metallicFactor":0.0,"roughnessFactor":0.5527864098548889}},{"name":"Material.010","pbrMetallicRoughness":{"baseColorFactor":[0.800000011920929,0.800000011920929,0.800000011920929,1.0],"metallicFactor":0.0,"roughnessFactor":0.05000000074505806}},{"name":"Material.002","pbrMetallicRoughness":{"baseColorFactor":[0.800000011920929,0.800000011920929,0.800000011920929,1.0],"metallicFactor":0.0,"roughnessFactor":0.05000000074505806}},{"name":"Material.001","pbrMetallicRoughness":{"baseColorFactor":[0.0,0.0,0.0,1.0],"metallicFactor":0.0,"roughnessFactor":0.5}},{"name":"Material.012","pbrMetallicRoughness":{"baseColorFactor":[0.0,0.0,0.0,1.0],"metallicFactor":0.0,"roughnessFactor":0.05000000074505806}},{"name":"Material.004","pbrMetallicRoughness":{"baseColorFactor":[0.0,0.0,0.0,1.0],"metallicFactor":0.0,"roughnessFactor":0.05000000074505806}},{"name":"vray Main.001","doubleSided":true,"pbrMetallicRoughness":{"metallicFactor":0.0,"roughnessFactor":0.5527864098548889}}],"meshes":[{"primitives":[{"attributes":{"COLOR_0":7,"NORMAL":4,"POSITION":2,"TANGENT":3,"TEXCOORD_0":5,"TEXCOORD_1":6},"indices":8,"material":0,"mode":4,"extras":{"ASOBO_primitive":{"PrimitiveCount":4474,"VertexType":"VTX","VertexVersion":2}}},{"attributes":{"COLOR_0":7,"NORMAL":4,"POSITION":2,"TANGENT":3,"TEXCOORD_0":5,"TEXCOORD_1":6},"indices":8,"material":1,"mode":4,"extras":{"ASOBO_primitive":{"PrimitiveCount":158,"StartIndex":13422,"VertexType":"VTX","VertexVersion":2}}},{"attributes":{"COLOR_0":7,"NORMAL":4,"POSITION":2,"TANGENT":3,"TEXCOORD_0":5,"TEXCOORD_1":6},"indices":8,"material":2,"mode":4,"extras":{"ASOBO_primitive":{"PrimitiveCount":1008,"StartIndex":13896,"VertexType":"VTX","VertexVersion":2}}},{"attributes":{"COLOR_0":7,"NORMAL":4,"POSITION":2,"TANGENT":3,"TEXCOORD_0":5,"TEXCOORD_1":6},"indices":8,"material":3,"mode":4,"extras":{"ASOBO_primitive":{"PrimitiveCount":16006,"StartIndex":16920,"VertexType":"VTX","VertexVersion":2}}},{"attributes":{"COLOR_0":7,"NORMAL":4,"POSITION":2,"TANGENT":3,"TEXCOORD_0":5,"TEXCOORD_1":6},"indices":8,"material":4,"mode":4,"extras":{"ASOBO_primitive":{"PrimitiveCount":436,"StartIndex":64938,"VertexType":"VTX","VertexVersion":2}}},{"attributes":{"COLOR_0":7,"NORMAL":4,"POSITION":2,"TANGENT":3,"TEXCOORD_0":5,"TEXCOORD_1":6},"indices":8,"material":5,"mode":4,"extras":{"ASOBO_primitive":{"PrimitiveCount":1826,"StartIndex":66246,"VertexType":"VTX","VertexVersion":2}}},{"attributes":{"COLOR_0":7,"NORMAL":4,"POSITION":2,"TANGENT":3,"TEXCOORD_0":5,"TEXCOORD_1":6},"indices":8,"material":6,"mode":4,"extras":{"ASOBO_primitive":{"PrimitiveCount":1199,"StartIndex":71724,"VertexType":"VTX","VertexVersion":2}}},{"attributes":{"COLOR_0":7,"NORMAL":4,"POSITION":2,"TANGENT":3,"TEXCOORD_0":5,"TEXCOORD_1":6},"indices":8,"material":7,"mode":4,"extras":{"ASOBO_primitive":{"PrimitiveCount":2802,"StartIndex":75321,"VertexType":"VTX","VertexVersion":2}}},{"attributes":{"COLOR_0":7,"NORMAL":4,"POSITION":2,"TANGENT":3,"TEXCOORD_0":5,"TEXCOORD_1":6},"indices":8,"material":8,"mode":4,"extras":{"ASOBO_primitive":{"PrimitiveCount":488,"StartIndex":83727,"VertexType":"VTX","VertexVersion":2}}},{"attributes":{"COLOR_0":7,"NORMAL":4,"POSITION":2,"TANGENT":3,"TEXCOORD_0":5,"TEXCOORD_1":6},"indices":8,"material":9,"mode":4,"extras":{"ASOBO_primitive":{"PrimitiveCount":20,"StartIndex":85191,"VertexType":"VTX","VertexVersion":2}}},{"attributes":{"COLOR_0":7,"NORMAL":4,"POSITION":2,"TANGENT":3,"TEXCOORD_0":5,"TEXCOORD_1":6},"indices":8,"material":10,"mode":4,"extras":{"ASOBO_primitive":{"PrimitiveCount":4814,"StartIndex":85251,"VertexType":"VTX","VertexVersion":2}}},{"attributes":{"COLOR_0":7,"NORMAL":4,"POSITION":2,"TANGENT":3,"TEXCOORD_0":5,"TEXCOORD_1":6},"indices":8,"material":11,"mode":4,"extras":{"ASOBO_primitive":{"PrimitiveCount":2430,"StartIndex":99693,"VertexType":"VTX","VertexVersion":2}}},{"attributes":{"COLOR_0":7,"NORMAL":4,"POSITION":2,"TANGENT":3,"TEXCOORD_0":5,"TEXCOORD_1":6},"indices":8,"material":12,"mode":4,"extras":{"ASOBO_primitive":{"PrimitiveCount":2242,"StartIndex":106983,"VertexType":"VTX","VertexVersion":2}}},{"attributes":{"COLOR_0":7,"NORMAL":4,"POSITION":2,"TANGENT":3,"TEXCOORD_0":5,"TEXCOORD_1":6},"indices":8,"material":13,"mode":4,"extras":{"ASOBO_primitive":{"PrimitiveCount":136,"StartIndex":113709,"VertexType":"VTX","VertexVersion":2}}},{"attributes":{"COLOR_0":7,"NORMAL":4,"POSITION":2,"TANGENT":3,"TEXCOORD_0":5,"TEXCOORD_1":6},"indices":8,"material":14,"mode":4,"extras":{"ASOBO_primitive":{"PrimitiveCount":178,"StartIndex":114117,"VertexType":"VTX","VertexVersion":2}}},{"attributes":{"COLOR_0":7,"NORMAL":4,"POSITION":2,"TANGENT":3,"TEXCOORD_0":5,"TEXCOORD_1":6},"indices":8,"material":15,"mode":4,"extras":{"ASOBO_primitive":{"PrimitiveCount":40,"StartIndex":114651,"VertexType":"VTX","VertexVersion":2}}},{"attributes":{"COLOR_0":7,"NORMAL":4,"POSITION":2,"TANGENT":3,"TEXCOORD_0":5,"TEXCOORD_1":6},"indices":8,"material":16,"mode":4,"extras":{"ASOBO_primitive":{"PrimitiveCount":1307,"StartIndex":114771,"VertexType":"VTX","VertexVersion":2}}}],"name":"Mesh.023"}],"nodes":[{"translation":[-3015.44384765625,-466.9609069824219,263.01373291015627],"mesh":0,"name":"Object003"},{"translation":[1.7920492887496949,4.084360122680664,1.0733146667480469],"rotation":[0.19892247021198274,-0.012542666867375374,-0.06166546419262886,0.9779927730560304],"scale":[0.009999999776482582,0.009999999776482582,0.009999999776482582],"name":"Yacht","children":[0]}],"scene":0,"scenes":[{"nodes":[1],"name":"Scene"}],"textures":[{"extensions":{"MSFT_texture_dds":{"source":0}}},{"extensions":{"MSFT_texture_dds":{"source":1}}}],"buffers":[{"byteLength":1582008,"uri":"Neoflysinkingboat1.bin"}],"images":[{"uri":"MASK_READY.JPG.DDS","name":"Mask_ready","extras":"ASOBO_image_converted_meta"},{"uri":"10050_SALISBURY_OAK_05.JPG.DDS","name":"10050_Salisbury_Oak_05","extras":"ASOBO_image_converted_meta"}]}
