{"accessors":[{"bufferView":0,"componentType":5126,"count":660,"min":[-0.6093966364860535,-0.21844351291656495,-0.6424804925918579],"max":[0.6093966364860535,-0.007841547951102257,0.6424804925918579],"type":"VEC3","name":"Cube.052_vertices#0_POSITION"},{"bufferView":0,"byteOffset":12,"componentType":5120,"count":660,"type":"VEC4","name":"Cube.052_vertices#0_TANGENT"},{"bufferView":0,"byteOffset":16,"componentType":5120,"count":660,"type":"VEC4","name":"Cube.052_vertices#0_NORMAL"},{"bufferView":0,"byteOffset":20,"componentType":5122,"count":660,"type":"VEC2","name":"Cube.052_vertices#0_TEXCOORD_0"},{"bufferView":0,"byteOffset":24,"componentType":5122,"count":660,"type":"VEC2","name":"Cube.052_vertices#0_TEXCOORD_1"},{"bufferView":0,"byteOffset":28,"componentType":5123,"count":660,"type":"VEC4","name":"Cube.052_vertices#0_COLOR_0"},{"bufferView":1,"componentType":5123,"count":1080,"type":"SCALAR","name":"Cube.052_indices#0"}],"asset":{"generator":"Khronos glTF Blender I/O v1.8.19 and Asobo Studio MSFS Blender I/O v1.1.6","version":"2.0","extensions":{"ASOBO_asset_optimized":{"BoundingBoxMax":[0.6093966364860535,-0.007841547951102257,0.6424804925918579],"BoundingBoxMin":[-0.6093966364860535,-0.21844351291656495,-0.6424804925918579],"MajorVersion":4,"MinorVersion":4,"UseCheckerboardMaterialForMissingTextures":true,"UseOnlyFilenameForImageURI":true},"ASOBO_normal_map_convention":{"tangent_space_convention":"DirectX"}}},"bufferViews":[{"buffer":0,"byteLength":23760,"byteStride":36,"target":34962,"name":"BufferViewVertexND"},{"buffer":0,"byteLength":2160,"byteOffset":23760,"target":34963,"name":"BufferViewIndex"}],"extensionsRequired":["MSFT_texture_dds"],"materials":[{"name":"cargo0A","normalTexture":{"index":0},"occlusionTexture":{"index":1},"pbrMetallicRoughness":{"baseColorFactor":[0.9999988079071044,0.9999989867210388,1.0,1.0],"baseColorTexture":{"index":2},"metallicRoughnessTexture":{"index":1}}}],"meshes":[{"primitives":[{"attributes":{"COLOR_0":5,"NORMAL":2,"POSITION":0,"TANGENT":1,"TEXCOORD_0":3,"TEXCOORD_1":4},"indices":6,"material":0,"mode":4,"extras":{"ASOBO_primitive":{"PrimitiveCount":360,"VertexType":"VTX","VertexVersion":2}}}],"name":"Cube.052"}],"nodes":[{"translation":[0.0,0.14573246240615846,0.0010405480861663819],"mesh":0,"name":"Neoflycargo00"}],"scene":0,"scenes":[{"nodes":[0],"name":"Scene"}],"textures":[{"extensions":{"MSFT_texture_dds":{"source":0}}},{"extensions":{"MSFT_texture_dds":{"source":1}}},{"extensions":{"MSFT_texture_dds":{"source":2}}}],"samplers":[{"magFilter":9729,"minFilter":9987,"wrapS":10497,"wrapT":10497}],"extensionsUsed":["ASOBO_normal_map_convention","MSFT_texture_dds","ASOBO_asset_optimized"],"buffers":[{"byteLength":25920,"uri":"Neoflycargo00.bin"}],"images":[{"uri":"NEOFLY_CARGO0A_NORM.PNG.DDS","name":"neofly_cargo0a_norm","extras":"ASOBO_image_converted_meta"},{"uri":"NEOFLY_CARGO0A_COMP.PNG.DDS","name":"neofly_cargo0a_comp","extras":"ASOBO_image_converted_meta"},{"uri":"NEOFLY_CARGO0A_ALBD.PNG.DDS","name":"neofly_cargo0a_albd","extras":"ASOBO_image_converted_meta"}]}
