{"accessors":[{"bufferView":0,"componentType":5126,"count":2002,"min":[0.0],"max":[83.375],"type":"SCALAR"},{"bufferView":1,"componentType":5126,"count":2002,"type":"VEC3"},{"bufferView":2,"componentType":5126,"count":2002,"type":"VEC3"},{"bufferView":3,"componentType":5126,"count":2000,"min":[0.0],"max":[83.29166666666667],"type":"SCALAR"},{"bufferView":4,"componentType":5126,"count":2000,"type":"VEC3"},{"bufferView":5,"componentType":5126,"count":670,"min":[-0.6424797177314758,-0.02811548113822937,1.0906031131744385],"max":[0.64248126745224,0.18248648941516877,2.309396505355835],"type":"VEC3","name":"Cube.052_vertices#0_POSITION"},{"bufferView":5,"byteOffset":12,"componentType":5120,"count":670,"type":"VEC4","name":"Cube.052_vertices#0_TANGENT"},{"bufferView":5,"byteOffset":16,"componentType":5120,"count":670,"type":"VEC4","name":"Cube.052_vertices#0_NORMAL"},{"bufferView":5,"byteOffset":20,"componentType":5122,"count":670,"type":"VEC2","name":"Cube.052_vertices#0_TEXCOORD_0"},{"bufferView":5,"byteOffset":24,"componentType":5122,"count":670,"type":"VEC2","name":"Cube.052_vertices#0_TEXCOORD_1"},{"bufferView":5,"byteOffset":28,"componentType":5123,"count":670,"type":"VEC4","name":"Cube.052_vertices#0_COLOR_0"},{"bufferView":6,"componentType":5123,"count":1080,"type":"SCALAR","name":"Cube.052_indices#0"},{"bufferView":5,"byteOffset":24120,"componentType":5126,"count":5690,"min":[-0.5419038534164429,0.001979704713448882,-0.4574311375617981],"max":[1.9471951723098755,0.8036282658576965,0.45743048191070559],"type":"VEC3","name":"Sci-Fi_Case_vertices#0_POSITION"},{"bufferView":5,"byteOffset":24132,"componentType":5120,"count":5690,"type":"VEC4","name":"Sci-Fi_Case_vertices#0_TANGENT"},{"bufferView":5,"byteOffset":24136,"componentType":5120,"count":5690,"type":"VEC4","name":"Sci-Fi_Case_vertices#0_NORMAL"},{"bufferView":5,"byteOffset":24140,"componentType":5122,"count":5690,"type":"VEC2","name":"Sci-Fi_Case_vertices#0_TEXCOORD_0"},{"bufferView":5,"byteOffset":24144,"componentType":5122,"count":5690,"type":"VEC2","name":"Sci-Fi_Case_vertices#0_TEXCOORD_1"},{"bufferView":5,"byteOffset":24148,"componentType":5123,"count":5690,"type":"VEC4","name":"Sci-Fi_Case_vertices#0_COLOR_0"},{"bufferView":6,"byteOffset":2160,"componentType":5123,"count":14796,"type":"SCALAR","name":"Sci-Fi_Case_indices#0"},{"bufferView":5,"byteOffset":228960,"componentType":5126,"count":5690,"min":[-0.5419038534164429,0.001979704713448882,-0.457430899143219],"max":[1.9471951723098755,0.8036282658576965,0.45743048191070559],"type":"VEC3","name":"Sci-Fi_Case.004_vertices#0_POSITION"},{"bufferView":5,"byteOffset":228972,"componentType":5120,"count":5690,"type":"VEC4","name":"Sci-Fi_Case.004_vertices#0_TANGENT"},{"bufferView":5,"byteOffset":228976,"componentType":5120,"count":5690,"type":"VEC4","name":"Sci-Fi_Case.004_vertices#0_NORMAL"},{"bufferView":5,"byteOffset":228980,"componentType":5122,"count":5690,"type":"VEC2","name":"Sci-Fi_Case.004_vertices#0_TEXCOORD_0"},{"bufferView":5,"byteOffset":228984,"componentType":5122,"count":5690,"type":"VEC2","name":"Sci-Fi_Case.004_vertices#0_TEXCOORD_1"},{"bufferView":5,"byteOffset":228988,"componentType":5123,"count":5690,"type":"VEC4","name":"Sci-Fi_Case.004_vertices#0_COLOR_0"},{"bufferView":6,"byteOffset":31752,"componentType":5123,"count":14796,"type":"SCALAR","name":"Sci-Fi_Case.004_indices#0"},{"bufferView":5,"byteOffset":433800,"componentType":5126,"count":5690,"min":[-0.5419038534164429,0.001979704713448882,-0.4574311375617981],"max":[1.9471951723098755,0.8036283850669861,0.45743048191070559],"type":"VEC3","name":"Sci-Fi_Case.001_vertices#0_POSITION"},{"bufferView":5,"byteOffset":433812,"componentType":5120,"count":5690,"type":"VEC4","name":"Sci-Fi_Case.001_vertices#0_TANGENT"},{"bufferView":5,"byteOffset":433816,"componentType":5120,"count":5690,"type":"VEC4","name":"Sci-Fi_Case.001_vertices#0_NORMAL"},{"bufferView":5,"byteOffset":433820,"componentType":5122,"count":5690,"type":"VEC2","name":"Sci-Fi_Case.001_vertices#0_TEXCOORD_0"},{"bufferView":5,"byteOffset":433824,"componentType":5122,"count":5690,"type":"VEC2","name":"Sci-Fi_Case.001_vertices#0_TEXCOORD_1"},{"bufferView":5,"byteOffset":433828,"componentType":5123,"count":5690,"type":"VEC4","name":"Sci-Fi_Case.001_vertices#0_COLOR_0"},{"bufferView":6,"byteOffset":61344,"componentType":5123,"count":14796,"type":"SCALAR","name":"Sci-Fi_Case.001_indices#0"}],"animations":[{"name":"Neoflycargo_hazardous_l_3","channels":[{"sampler":0,"target":{"node":1,"path":"translation"}},{"sampler":1,"target":{"node":2,"path":"translation"}},{"sampler":2,"target":{"node":3,"path":"translation"}}],"samplers":[{"input":0,"output":1,"interpolation":"LINEAR"},{"input":0,"output":2,"interpolation":"LINEAR"},{"input":3,"output":4,"interpolation":"LINEAR"}]}],"asset":{"generator":"Khronos glTF Blender I/O v1.8.19 and Asobo Studio MSFS Blender I/O v1.1.6","version":"2.0","extensions":{"ASOBO_asset_optimized":{"BoundingBoxMax":[1.9471951723098755,0.8036283850669861,2.309396505355835],"BoundingBoxMin":[-0.6424797177314758,-0.02811548113822937,-0.4574311375617981],"MajorVersion":4,"MinorVersion":4,"UseCheckerboardMaterialForMissingTextures":true,"UseOnlyFilenameForImageURI":true},"ASOBO_normal_map_convention":{"tangent_space_convention":"DirectX"}}},"bufferViews":[{"buffer":0,"byteLength":8008},{"buffer":0,"byteLength":24024,"byteOffset":8008},{"buffer":0,"byteLength":24024,"byteOffset":32032},{"buffer":0,"byteLength":8000,"byteOffset":56056},{"buffer":0,"byteLength":24000,"byteOffset":64056},{"buffer":0,"byteLength":638640,"byteStride":36,"byteOffset":88056,"target":34962,"name":"BufferViewVertexND"},{"buffer":0,"byteLength":90936,"byteOffset":726696,"target":34963,"name":"BufferViewIndex"}],"extensionsRequired":["MSFT_texture_dds"],"materials":[{"name":"cargo0A","normalTexture":{"index":0},"occlusionTexture":{"index":1},"pbrMetallicRoughness":{"baseColorFactor":[0.9999988079071044,0.9999989867210388,1.0,1.0],"baseColorTexture":{"index":2},"metallicRoughnessTexture":{"index":1}}},{"name":"Sci-Fi_Case","normalTexture":{"index":4},"occlusionTexture":{"index":5},"emissiveTexture":{"index":3},"emissiveFactor":[1.0,0.0,0.0],"pbrMetallicRoughness":{"baseColorTexture":{"index":6},"metallicRoughnessTexture":{"index":5}}}],"meshes":[{"primitives":[{"attributes":{"COLOR_0":10,"NORMAL":7,"POSITION":5,"TANGENT":6,"TEXCOORD_0":8,"TEXCOORD_1":9},"indices":11,"material":0,"mode":4,"extras":{"ASOBO_primitive":{"PrimitiveCount":360,"VertexType":"VTX","VertexVersion":2}}}],"name":"Cube.052"},{"primitives":[{"attributes":{"COLOR_0":17,"NORMAL":14,"POSITION":12,"TANGENT":13,"TEXCOORD_0":15,"TEXCOORD_1":16},"indices":18,"material":1,"mode":4,"extras":{"ASOBO_primitive":{"PrimitiveCount":4932,"VertexType":"VTX","VertexVersion":2}}}],"name":"Sci-Fi_Case"},{"primitives":[{"attributes":{"COLOR_0":24,"NORMAL":21,"POSITION":19,"TANGENT":20,"TEXCOORD_0":22,"TEXCOORD_1":23},"indices":25,"material":1,"mode":4,"extras":{"ASOBO_primitive":{"PrimitiveCount":4932,"VertexType":"VTX","VertexVersion":2}}}],"name":"Sci-Fi_Case.004"},{"primitives":[{"attributes":{"COLOR_0":31,"NORMAL":28,"POSITION":26,"TANGENT":27,"TEXCOORD_0":29,"TEXCOORD_1":30},"indices":32,"material":1,"mode":4,"extras":{"ASOBO_primitive":{"PrimitiveCount":4932,"VertexType":"VTX","VertexVersion":2}}}],"name":"Sci-Fi_Case.001"}],"nodes":[{"mesh":0,"name":"Neoflycargo00"},{"translation":[0.28141483664512637,0.18144842982292176,1.4185173511505128],"rotation":[0.0,-1.0,0.0,-1.6292068494294657e-7],"scale":[0.3999999761581421,0.3999999761581421,0.3999999761581421],"mesh":1,"name":"Sci-Fi_Case.001"},{"translation":[0.28141483664512637,0.18144842982292176,1.9785206317901612],"rotation":[0.0,-1.0,0.0,-1.6292068494294657e-7],"scale":[0.3999999761581421,0.3999999761581421,0.3999999761581421],"mesh":2,"name":"Sci-Fi_Case.003"},{"translation":[0.28141483664512637,0.4792042672634125,1.4185173511505128],"rotation":[0.0,-1.0,0.0,-1.6292068494294657e-7],"scale":[0.3999999761581421,0.3999999761581421,0.3999999761581421],"mesh":3,"name":"Sci-Fi_Case.006"}],"scene":0,"scenes":[{"nodes":[0,1,2,3],"name":"Scene"}],"textures":[{"extensions":{"MSFT_texture_dds":{"source":0}}},{"extensions":{"MSFT_texture_dds":{"source":1}}},{"extensions":{"MSFT_texture_dds":{"source":2}}},{"extensions":{"MSFT_texture_dds":{"source":3}}},{"extensions":{"MSFT_texture_dds":{"source":4}}},{"extensions":{"MSFT_texture_dds":{"source":5}}},{"extensions":{"MSFT_texture_dds":{"source":6}}}],"samplers":[{"magFilter":9729,"minFilter":9987,"wrapS":10497,"wrapT":10497}],"extensionsUsed":["ASOBO_normal_map_convention","MSFT_texture_dds","ASOBO_asset_optimized"],"buffers":[{"byteLength":817632,"uri":"Neoflycargo_hazardous_l_3.bin"}],"images":[{"uri":"NEOFLY_CARGO0A_NORM.PNG.DDS","name":"neofly_cargo0a_norm","extras":"ASOBO_image_converted_meta"},{"uri":"NEOFLY_CARGO0A_COMP.PNG.DDS","name":"neofly_cargo0a_comp","extras":"ASOBO_image_converted_meta"},{"uri":"NEOFLY_CARGO0A_ALBD.PNG.DDS","name":"neofly_cargo0a_albd","extras":"ASOBO_image_converted_meta"},{"uri":"NEOFLY_CARGO24_EMIS.PNG.DDS","name":"neofly_cargo24_Emis","extras":"ASOBO_image_converted_meta"},{"uri":"NEOFLY_CARGO24_NORM.PNG.DDS","name":"neofly_cargo24_norm","extras":"ASOBO_image_converted_meta"},{"uri":"NEOFLY_CARGO24_COMP.PNG.DDS","name":"neofly_cargo24_comp","extras":"ASOBO_image_converted_meta"},{"uri":"NEOFLY_CARGO24_ALBD.PNG.DDS","name":"neofly_cargo24_albd","extras":"ASOBO_image_converted_meta"}]}
