{"accessors":[{"bufferView":0,"componentType":5126,"count":201,"min":[0.0],"max":[8.333333333333334],"type":"SCALAR"},{"bufferView":1,"componentType":5126,"count":201,"type":"VEC3"},{"bufferView":2,"componentType":5126,"count":201,"type":"VEC4"},{"bufferView":3,"componentType":5126,"count":2019813,"min":[-22.239112854003908,2.0679919719696047,-9.44447135925293],"max":[15.93305778503418,21.2452392578125,5.063581943511963],"type":"VEC3","name":"BoatFishingWoodenAldeburgh01_vertices#0_POSITION"},{"bufferView":3,"byteOffset":12,"componentType":5120,"count":2019813,"type":"VEC4","name":"BoatFishingWoodenAldeburgh01_vertices#0_TANGENT"},{"bufferView":3,"byteOffset":16,"componentType":5120,"count":2019813,"type":"VEC4","name":"BoatFishingWoodenAldeburgh01_vertices#0_NORMAL"},{"bufferView":3,"byteOffset":20,"componentType":5122,"count":2019813,"type":"VEC2","name":"BoatFishingWoodenAldeburgh01_vertices#0_TEXCOORD_0"},{"bufferView":3,"byteOffset":24,"componentType":5122,"count":2019813,"type":"VEC2","name":"BoatFishingWoodenAldeburgh01_vertices#0_TEXCOORD_1"},{"bufferView":3,"byteOffset":28,"componentType":5123,"count":2019813,"type":"VEC4","name":"BoatFishingWoodenAldeburgh01_vertices#0_COLOR_0"},{"bufferView":4,"componentType":5123,"count":2019813,"type":"SCALAR","name":"BoatFishingWoodenAldeburgh01_indices#30"}],"animations":[{"name":"Neoflysinkingboat4nla1a","channels":[{"sampler":0,"target":{"node":0,"path":"translation"}},{"sampler":1,"target":{"node":0,"path":"rotation"}}],"samplers":[{"input":0,"output":1,"interpolation":"LINEAR"},{"input":0,"output":2,"interpolation":"LINEAR"}]}],"asset":{"generator":"Extended Khronos glTF Blender I/O v1.0.0","version":"2.0","extensions":{"ASOBO_asset_optimized":{"BoundingBoxMax":[15.93305778503418,21.2452392578125,5.063581943511963],"BoundingBoxMin":[-22.239112854003908,2.0679919719696047,-9.44447135925293],"MajorVersion":4,"MinorVersion":2},"ASOBO_normal_map_convention":{"tangent_space_convention":"DirectX"}}},"bufferViews":[{"buffer":0,"byteLength":804},{"buffer":0,"byteLength":2412,"byteOffset":804},{"buffer":0,"byteLength":3216,"byteOffset":3216},{"buffer":0,"byteLength":72713268,"byteStride":36,"byteOffset":6432,"target":34962,"name":"BufferViewVertexND"},{"buffer":0,"byteLength":4039626,"byteOffset":72719700,"target":34963,"name":"BufferViewIndex"}],"extensionsUsed":["ASOBO_normal_map_convention","MSFT_texture_dds","ASOBO_asset_optimized"],"extensionsRequired":["MSFT_texture_dds"],"materials":[{"name":"Material.001","pbrMetallicRoughness":{"metallicFactor":0.0,"roughnessFactor":0.5,"baseColorTexture":{"index":0}}}],"meshes":[{"primitives":[{"attributes":{"COLOR_0":8,"NORMAL":5,"POSITION":3,"TANGENT":4,"TEXCOORD_0":6,"TEXCOORD_1":7},"indices":9,"material":0,"mode":4,"extras":{"ASOBO_primitive":{"PrimitiveCount":21843,"VertexType":"VTX","VertexVersion":2}}},{"attributes":{"COLOR_0":8,"NORMAL":5,"POSITION":3,"TANGENT":4,"TEXCOORD_0":6,"TEXCOORD_1":7},"indices":9,"material":0,"mode":4,"extras":{"ASOBO_primitive":{"BaseVertexIndex":65529,"PrimitiveCount":21843,"StartIndex":65529,"VertexType":"VTX","VertexVersion":2}}},{"attributes":{"COLOR_0":8,"NORMAL":5,"POSITION":3,"TANGENT":4,"TEXCOORD_0":6,"TEXCOORD_1":7},"indices":9,"material":0,"mode":4,"extras":{"ASOBO_primitive":{"BaseVertexIndex":131058,"PrimitiveCount":21843,"StartIndex":131058,"VertexType":"VTX","VertexVersion":2}}},{"attributes":{"COLOR_0":8,"NORMAL":5,"POSITION":3,"TANGENT":4,"TEXCOORD_0":6,"TEXCOORD_1":7},"indices":9,"material":0,"mode":4,"extras":{"ASOBO_primitive":{"BaseVertexIndex":196587,"PrimitiveCount":21843,"StartIndex":196587,"VertexType":"VTX","VertexVersion":2}}},{"attributes":{"COLOR_0":8,"NORMAL":5,"POSITION":3,"TANGENT":4,"TEXCOORD_0":6,"TEXCOORD_1":7},"indices":9,"material":0,"mode":4,"extras":{"ASOBO_primitive":{"BaseVertexIndex":262116,"PrimitiveCount":21843,"StartIndex":262116,"VertexType":"VTX","VertexVersion":2}}},{"attributes":{"COLOR_0":8,"NORMAL":5,"POSITION":3,"TANGENT":4,"TEXCOORD_0":6,"TEXCOORD_1":7},"indices":9,"material":0,"mode":4,"extras":{"ASOBO_primitive":{"BaseVertexIndex":327645,"PrimitiveCount":21843,"StartIndex":327645,"VertexType":"VTX","VertexVersion":2}}},{"attributes":{"COLOR_0":8,"NORMAL":5,"POSITION":3,"TANGENT":4,"TEXCOORD_0":6,"TEXCOORD_1":7},"indices":9,"material":0,"mode":4,"extras":{"ASOBO_primitive":{"BaseVertexIndex":393174,"PrimitiveCount":21843,"StartIndex":393174,"VertexType":"VTX","VertexVersion":2}}},{"attributes":{"COLOR_0":8,"NORMAL":5,"POSITION":3,"TANGENT":4,"TEXCOORD_0":6,"TEXCOORD_1":7},"indices":9,"material":0,"mode":4,"extras":{"ASOBO_primitive":{"BaseVertexIndex":458703,"PrimitiveCount":21843,"StartIndex":458703,"VertexType":"VTX","VertexVersion":2}}},{"attributes":{"COLOR_0":8,"NORMAL":5,"POSITION":3,"TANGENT":4,"TEXCOORD_0":6,"TEXCOORD_1":7},"indices":9,"material":0,"mode":4,"extras":{"ASOBO_primitive":{"BaseVertexIndex":524232,"PrimitiveCount":21843,"StartIndex":524232,"VertexType":"VTX","VertexVersion":2}}},{"attributes":{"COLOR_0":8,"NORMAL":5,"POSITION":3,"TANGENT":4,"TEXCOORD_0":6,"TEXCOORD_1":7},"indices":9,"material":0,"mode":4,"extras":{"ASOBO_primitive":{"BaseVertexIndex":589761,"PrimitiveCount":21843,"StartIndex":589761,"VertexType":"VTX","VertexVersion":2}}},{"attributes":{"COLOR_0":8,"NORMAL":5,"POSITION":3,"TANGENT":4,"TEXCOORD_0":6,"TEXCOORD_1":7},"indices":9,"material":0,"mode":4,"extras":{"ASOBO_primitive":{"BaseVertexIndex":655290,"PrimitiveCount":21843,"StartIndex":655290,"VertexType":"VTX","VertexVersion":2}}},{"attributes":{"COLOR_0":8,"NORMAL":5,"POSITION":3,"TANGENT":4,"TEXCOORD_0":6,"TEXCOORD_1":7},"indices":9,"material":0,"mode":4,"extras":{"ASOBO_primitive":{"BaseVertexIndex":720819,"PrimitiveCount":21843,"StartIndex":720819,"VertexType":"VTX","VertexVersion":2}}},{"attributes":{"COLOR_0":8,"NORMAL":5,"POSITION":3,"TANGENT":4,"TEXCOORD_0":6,"TEXCOORD_1":7},"indices":9,"material":0,"mode":4,"extras":{"ASOBO_primitive":{"BaseVertexIndex":786348,"PrimitiveCount":21843,"StartIndex":786348,"VertexType":"VTX","VertexVersion":2}}},{"attributes":{"COLOR_0":8,"NORMAL":5,"POSITION":3,"TANGENT":4,"TEXCOORD_0":6,"TEXCOORD_1":7},"indices":9,"material":0,"mode":4,"extras":{"ASOBO_primitive":{"BaseVertexIndex":851877,"PrimitiveCount":21843,"StartIndex":851877,"VertexType":"VTX","VertexVersion":2}}},{"attributes":{"COLOR_0":8,"NORMAL":5,"POSITION":3,"TANGENT":4,"TEXCOORD_0":6,"TEXCOORD_1":7},"indices":9,"material":0,"mode":4,"extras":{"ASOBO_primitive":{"BaseVertexIndex":917406,"PrimitiveCount":21843,"StartIndex":917406,"VertexType":"VTX","VertexVersion":2}}},{"attributes":{"COLOR_0":8,"NORMAL":5,"POSITION":3,"TANGENT":4,"TEXCOORD_0":6,"TEXCOORD_1":7},"indices":9,"material":0,"mode":4,"extras":{"ASOBO_primitive":{"BaseVertexIndex":982935,"PrimitiveCount":21843,"StartIndex":982935,"VertexType":"VTX","VertexVersion":2}}},{"attributes":{"COLOR_0":8,"NORMAL":5,"POSITION":3,"TANGENT":4,"TEXCOORD_0":6,"TEXCOORD_1":7},"indices":9,"material":0,"mode":4,"extras":{"ASOBO_primitive":{"BaseVertexIndex":1048464,"PrimitiveCount":21843,"StartIndex":1048464,"VertexType":"VTX","VertexVersion":2}}},{"attributes":{"COLOR_0":8,"NORMAL":5,"POSITION":3,"TANGENT":4,"TEXCOORD_0":6,"TEXCOORD_1":7},"indices":9,"material":0,"mode":4,"extras":{"ASOBO_primitive":{"BaseVertexIndex":1113993,"PrimitiveCount":21843,"StartIndex":1113993,"VertexType":"VTX","VertexVersion":2}}},{"attributes":{"COLOR_0":8,"NORMAL":5,"POSITION":3,"TANGENT":4,"TEXCOORD_0":6,"TEXCOORD_1":7},"indices":9,"material":0,"mode":4,"extras":{"ASOBO_primitive":{"BaseVertexIndex":1179522,"PrimitiveCount":21843,"StartIndex":1179522,"VertexType":"VTX","VertexVersion":2}}},{"attributes":{"COLOR_0":8,"NORMAL":5,"POSITION":3,"TANGENT":4,"TEXCOORD_0":6,"TEXCOORD_1":7},"indices":9,"material":0,"mode":4,"extras":{"ASOBO_primitive":{"BaseVertexIndex":1245051,"PrimitiveCount":21843,"StartIndex":1245051,"VertexType":"VTX","VertexVersion":2}}},{"attributes":{"COLOR_0":8,"NORMAL":5,"POSITION":3,"TANGENT":4,"TEXCOORD_0":6,"TEXCOORD_1":7},"indices":9,"material":0,"mode":4,"extras":{"ASOBO_primitive":{"BaseVertexIndex":1310580,"PrimitiveCount":21843,"StartIndex":1310580,"VertexType":"VTX","VertexVersion":2}}},{"attributes":{"COLOR_0":8,"NORMAL":5,"POSITION":3,"TANGENT":4,"TEXCOORD_0":6,"TEXCOORD_1":7},"indices":9,"material":0,"mode":4,"extras":{"ASOBO_primitive":{"BaseVertexIndex":1376109,"PrimitiveCount":21843,"StartIndex":1376109,"VertexType":"VTX","VertexVersion":2}}},{"attributes":{"COLOR_0":8,"NORMAL":5,"POSITION":3,"TANGENT":4,"TEXCOORD_0":6,"TEXCOORD_1":7},"indices":9,"material":0,"mode":4,"extras":{"ASOBO_primitive":{"BaseVertexIndex":1441638,"PrimitiveCount":21843,"StartIndex":1441638,"VertexType":"VTX","VertexVersion":2}}},{"attributes":{"COLOR_0":8,"NORMAL":5,"POSITION":3,"TANGENT":4,"TEXCOORD_0":6,"TEXCOORD_1":7},"indices":9,"material":0,"mode":4,"extras":{"ASOBO_primitive":{"BaseVertexIndex":1507167,"PrimitiveCount":21843,"StartIndex":1507167,"VertexType":"VTX","VertexVersion":2}}},{"attributes":{"COLOR_0":8,"NORMAL":5,"POSITION":3,"TANGENT":4,"TEXCOORD_0":6,"TEXCOORD_1":7},"indices":9,"material":0,"mode":4,"extras":{"ASOBO_primitive":{"BaseVertexIndex":1572696,"PrimitiveCount":21843,"StartIndex":1572696,"VertexType":"VTX","VertexVersion":2}}},{"attributes":{"COLOR_0":8,"NORMAL":5,"POSITION":3,"TANGENT":4,"TEXCOORD_0":6,"TEXCOORD_1":7},"indices":9,"material":0,"mode":4,"extras":{"ASOBO_primitive":{"BaseVertexIndex":1638225,"PrimitiveCount":21843,"StartIndex":1638225,"VertexType":"VTX","VertexVersion":2}}},{"attributes":{"COLOR_0":8,"NORMAL":5,"POSITION":3,"TANGENT":4,"TEXCOORD_0":6,"TEXCOORD_1":7},"indices":9,"material":0,"mode":4,"extras":{"ASOBO_primitive":{"BaseVertexIndex":1703754,"PrimitiveCount":21843,"StartIndex":1703754,"VertexType":"VTX","VertexVersion":2}}},{"attributes":{"COLOR_0":8,"NORMAL":5,"POSITION":3,"TANGENT":4,"TEXCOORD_0":6,"TEXCOORD_1":7},"indices":9,"material":0,"mode":4,"extras":{"ASOBO_primitive":{"BaseVertexIndex":1769283,"PrimitiveCount":21843,"StartIndex":1769283,"VertexType":"VTX","VertexVersion":2}}},{"attributes":{"COLOR_0":8,"NORMAL":5,"POSITION":3,"TANGENT":4,"TEXCOORD_0":6,"TEXCOORD_1":7},"indices":9,"material":0,"mode":4,"extras":{"ASOBO_primitive":{"BaseVertexIndex":1834812,"PrimitiveCount":21843,"StartIndex":1834812,"VertexType":"VTX","VertexVersion":2}}},{"attributes":{"COLOR_0":8,"NORMAL":5,"POSITION":3,"TANGENT":4,"TEXCOORD_0":6,"TEXCOORD_1":7},"indices":9,"material":0,"mode":4,"extras":{"ASOBO_primitive":{"BaseVertexIndex":1900341,"PrimitiveCount":21843,"StartIndex":1900341,"VertexType":"VTX","VertexVersion":2}}},{"attributes":{"COLOR_0":8,"NORMAL":5,"POSITION":3,"TANGENT":4,"TEXCOORD_0":6,"TEXCOORD_1":7},"indices":9,"material":0,"mode":4,"extras":{"ASOBO_primitive":{"BaseVertexIndex":1965870,"PrimitiveCount":17981,"StartIndex":1965870,"VertexType":"VTX","VertexVersion":2}}}],"name":"BoatFishingWoodenAldeburgh01"}],"nodes":[{"translation":[0.03998210281133652,-0.5559327602386475,-0.2765008509159088],"rotation":[0.29171308875083926,0.004869359079748392,-0.01596384309232235,0.9563602209091188],"scale":[0.10000002384185793,0.10000002384185793,0.10000002384185793],"mesh":0,"name":"BoatFishingWoodenAldeburgh01"}],"scene":0,"scenes":[{"nodes":[0],"name":"Scene"}],"textures":[{"extensions":{"MSFT_texture_dds":{"source":0}}}],"buffers":[{"byteLength":76759326,"uri":"Neoflysinkingboat4.bin"}],"images":[{"uri":"BOATFISHINGWOODENALDEBURGH_2M_8K_01_U1_V1.JPG.DDS","name":"BoatFishingWoodenAldeburgh_2m_8k_01_u1_v1","extras":"ASOBO_image_converted_meta"}]}
