{"accessors":[{"bufferView":0,"componentType":5126,"count":128388,"min":[-0.4754611551761627,-0.04309014230966568,-0.041584331542253497],"max":[0.4777244031429291,0.1434110701084137,0.04158433526754379],"type":"VEC3","name":"Cylinder.003_vertices#0_POSITION"},{"bufferView":0,"byteOffset":12,"componentType":5120,"count":128388,"type":"VEC4","name":"Cylinder.003_vertices#0_TANGENT"},{"bufferView":0,"byteOffset":16,"componentType":5120,"count":128388,"type":"VEC4","name":"Cylinder.003_vertices#0_NORMAL"},{"bufferView":0,"byteOffset":20,"componentType":5122,"count":128388,"type":"VEC2","name":"Cylinder.003_vertices#0_TEXCOORD_0"},{"bufferView":0,"byteOffset":24,"componentType":5122,"count":128388,"type":"VEC2","name":"Cylinder.003_vertices#0_TEXCOORD_1"},{"bufferView":0,"byteOffset":28,"componentType":5123,"count":128388,"type":"VEC4","name":"Cylinder.003_vertices#0_COLOR_0"},{"bufferView":1,"componentType":5123,"count":600600,"type":"SCALAR","name":"Cylinder.003_indices#1"}],"asset":{"generator":"Extended Khronos glTF Blender I/O v1.0.0","version":"2.0","extensions":{"ASOBO_asset_optimized":{"BoundingBoxMax":[0.4777244031429291,0.1434110701084137,0.04158433526754379],"BoundingBoxMin":[-0.4754611551761627,-0.04309014230966568,-0.041584331542253497],"MajorVersion":4,"MinorVersion":2},"ASOBO_normal_map_convention":{"tangent_space_convention":"DirectX"}}},"bufferViews":[{"buffer":0,"byteLength":4621968,"byteStride":36,"target":34962,"name":"BufferViewVertexND"},{"buffer":0,"byteLength":1201200,"byteOffset":4621968,"target":34963,"name":"BufferViewIndex"}],"extensionsUsed":["ASOBO_normal_map_convention","MSFT_texture_dds","ASOBO_asset_optimized"],"extensionsRequired":["MSFT_texture_dds"],"materials":[{"name":"Material.001","pbrMetallicRoughness":{"metallicFactor":0.0,"baseColorTexture":{"index":0}}}],"meshes":[{"primitives":[{"attributes":{"COLOR_0":5,"NORMAL":2,"POSITION":0,"TANGENT":1,"TEXCOORD_0":3,"TEXCOORD_1":4},"indices":6,"material":0,"mode":4,"extras":{"ASOBO_primitive":{"PrimitiveCount":103098,"VertexType":"VTX","VertexVersion":2}}},{"attributes":{"COLOR_0":5,"NORMAL":2,"POSITION":0,"TANGENT":1,"TEXCOORD_0":3,"TEXCOORD_1":4},"indices":6,"material":0,"mode":4,"extras":{"ASOBO_primitive":{"BaseVertexIndex":65530,"PrimitiveCount":97102,"StartIndex":309294,"VertexType":"VTX","VertexVersion":2}}}],"name":"Cylinder.003"}],"nodes":[{"translation":[-0.00018995022401213649,0.03275597095489502,-0.016928330063819886],"rotation":[0.660402238368988,-0.009387250989675522,-0.01836138591170311,0.7506288290023804],"scale":[100.0,100.0,100.0],"mesh":0,"name":"Submarine.001"}],"scene":0,"scenes":[{"nodes":[0],"name":"Scene"}],"textures":[{"extensions":{"MSFT_texture_dds":{"source":0}}}],"buffers":[{"byteLength":5823168,"uri":"Neoflywreckedsubmarine1.bin"}],"images":[{"uri":"SUBUV3COLOR.JPG.DDS","name":"SubUV3color","extras":"ASOBO_image_converted_meta"}]}
