{"accessors":[{"bufferView":0,"componentType":5126,"count":1998,"min":[0.0],"max":[83.20833333333333],"type":"SCALAR"},{"bufferView":1,"componentType":5126,"count":1998,"type":"VEC3"},{"bufferView":2,"componentType":5126,"count":1998,"type":"VEC3"},{"bufferView":3,"componentType":5126,"count":670,"min":[-0.6424797177314758,-0.02811548113822937,1.0906031131744385],"max":[0.64248126745224,0.18248648941516877,2.309396505355835],"type":"VEC3","name":"Cube.052_vertices#0_POSITION"},{"bufferView":3,"byteOffset":12,"componentType":5120,"count":670,"type":"VEC4","name":"Cube.052_vertices#0_TANGENT"},{"bufferView":3,"byteOffset":16,"componentType":5120,"count":670,"type":"VEC4","name":"Cube.052_vertices#0_NORMAL"},{"bufferView":3,"byteOffset":20,"componentType":5122,"count":670,"type":"VEC2","name":"Cube.052_vertices#0_TEXCOORD_0"},{"bufferView":3,"byteOffset":24,"componentType":5122,"count":670,"type":"VEC2","name":"Cube.052_vertices#0_TEXCOORD_1"},{"bufferView":3,"byteOffset":28,"componentType":5123,"count":670,"type":"VEC4","name":"Cube.052_vertices#0_COLOR_0"},{"bufferView":4,"componentType":5123,"count":1080,"type":"SCALAR","name":"Cube.052_indices#0"},{"bufferView":3,"byteOffset":24120,"componentType":5126,"count":7550,"min":[-0.19698014855384828,-0.2260453850030899,-0.2320423126220703],"max":[0.19685809314250947,0.22587211430072785,0.8092046976089478],"type":"VEC3","name":"Cube.027_vertices#0_POSITION"},{"bufferView":3,"byteOffset":24132,"componentType":5120,"count":7550,"type":"VEC4","name":"Cube.027_vertices#0_TANGENT"},{"bufferView":3,"byteOffset":24136,"componentType":5120,"count":7550,"type":"VEC4","name":"Cube.027_vertices#0_NORMAL"},{"bufferView":3,"byteOffset":24140,"componentType":5122,"count":7550,"type":"VEC2","name":"Cube.027_vertices#0_TEXCOORD_0"},{"bufferView":3,"byteOffset":24144,"componentType":5122,"count":7550,"type":"VEC2","name":"Cube.027_vertices#0_TEXCOORD_1"},{"bufferView":3,"byteOffset":24148,"componentType":5123,"count":7550,"type":"VEC4","name":"Cube.027_vertices#0_COLOR_0"},{"bufferView":4,"byteOffset":2160,"componentType":5123,"count":13308,"type":"SCALAR","name":"Cube.027_indices#4"},{"bufferView":3,"byteOffset":295920,"componentType":5126,"count":7550,"min":[-0.19698014855384828,-0.2260453850030899,-0.2320423126220703],"max":[0.19685809314250947,0.22587211430072785,0.8092046976089478],"type":"VEC3","name":"Cube.091_vertices#0_POSITION"},{"bufferView":3,"byteOffset":295932,"componentType":5120,"count":7550,"type":"VEC4","name":"Cube.091_vertices#0_TANGENT"},{"bufferView":3,"byteOffset":295936,"componentType":5120,"count":7550,"type":"VEC4","name":"Cube.091_vertices#0_NORMAL"},{"bufferView":3,"byteOffset":295940,"componentType":5122,"count":7550,"type":"VEC2","name":"Cube.091_vertices#0_TEXCOORD_0"},{"bufferView":3,"byteOffset":295944,"componentType":5122,"count":7550,"type":"VEC2","name":"Cube.091_vertices#0_TEXCOORD_1"},{"bufferView":3,"byteOffset":295948,"componentType":5123,"count":7550,"type":"VEC4","name":"Cube.091_vertices#0_COLOR_0"},{"bufferView":4,"byteOffset":28776,"componentType":5123,"count":13308,"type":"SCALAR","name":"Cube.091_indices#4"}],"animations":[{"name":"Neoflycargo_dangerous_u_2","channels":[{"sampler":0,"target":{"node":1,"path":"translation"}},{"sampler":1,"target":{"node":2,"path":"translation"}}],"samplers":[{"input":0,"output":1,"interpolation":"LINEAR"},{"input":0,"output":2,"interpolation":"LINEAR"}]}],"asset":{"generator":"Khronos glTF Blender I/O v1.8.19 and Asobo Studio MSFS Blender I/O v1.1.6","version":"2.0","extensions":{"ASOBO_asset_optimized":{"BoundingBoxMax":[0.64248126745224,0.22845232486724854,2.309396505355835],"BoundingBoxMin":[-0.6424797177314758,-0.22862757742404939,-0.2346930205821991],"MajorVersion":4,"MinorVersion":4,"UseCheckerboardMaterialForMissingTextures":true,"UseOnlyFilenameForImageURI":true},"ASOBO_normal_map_convention":{"tangent_space_convention":"DirectX"}}},"bufferViews":[{"buffer":0,"byteLength":7992},{"buffer":0,"byteLength":23976,"byteOffset":7992},{"buffer":0,"byteLength":23976,"byteOffset":31968},{"buffer":0,"byteLength":567720,"byteStride":36,"byteOffset":55944,"target":34962,"name":"BufferViewVertexND"},{"buffer":0,"byteLength":55392,"byteOffset":623664,"target":34963,"name":"BufferViewIndex"}],"extensionsRequired":["MSFT_texture_dds"],"materials":[{"name":"cargo0A","normalTexture":{"index":0},"occlusionTexture":{"index":1},"pbrMetallicRoughness":{"baseColorFactor":[0.9999988079071044,0.9999989867210388,1.0,1.0],"baseColorTexture":{"index":2},"metallicRoughnessTexture":{"index":1}}},{"name":"cargo_crate1h.004","normalTexture":{"index":3},"pbrMetallicRoughness":{"baseColorTexture":{"index":4}}},{"name":"cargo_crate1a.004","pbrMetallicRoughness":{"baseColorFactor":[0.36722472310066225,0.1712014228105545,0.10609718412160872,1.0],"roughnessFactor":0.44999998807907107}},{"name":"cargo_crate1f.004","alphaMode":"BLEND","pbrMetallicRoughness":{"baseColorTexture":{"index":6}},"extensions":{"ASOBO_material_blend_gbuffer":{}}},{"name":"cargo_crate1j.002","alphaMode":"BLEND","pbrMetallicRoughness":{"baseColorTexture":{"index":7}},"extensions":{"ASOBO_material_blend_gbuffer":{}}},{"name":"cargo_crate1l","alphaMode":"BLEND","pbrMetallicRoughness":{"baseColorTexture":{"index":8}},"extensions":{"ASOBO_material_blend_gbuffer":{}}}],"meshes":[{"primitives":[{"attributes":{"COLOR_0":8,"NORMAL":5,"POSITION":3,"TANGENT":4,"TEXCOORD_0":6,"TEXCOORD_1":7},"indices":9,"material":0,"mode":4,"extras":{"ASOBO_primitive":{"PrimitiveCount":360,"VertexType":"VTX","VertexVersion":2}}}],"name":"Cube.052"},{"primitives":[{"attributes":{"COLOR_0":15,"NORMAL":12,"POSITION":10,"TANGENT":11,"TEXCOORD_0":13,"TEXCOORD_1":14},"indices":16,"material":1,"mode":4,"extras":{"ASOBO_primitive":{"PrimitiveCount":1296,"VertexType":"VTX","VertexVersion":2}}},{"attributes":{"COLOR_0":15,"NORMAL":12,"POSITION":10,"TANGENT":11,"TEXCOORD_0":13,"TEXCOORD_1":14},"indices":16,"material":2,"mode":4,"extras":{"ASOBO_primitive":{"PrimitiveCount":3080,"StartIndex":3888,"VertexType":"VTX","VertexVersion":2}}},{"attributes":{"COLOR_0":15,"NORMAL":12,"POSITION":10,"TANGENT":11,"TEXCOORD_0":13,"TEXCOORD_1":14},"indices":16,"material":3,"mode":4,"extras":{"ASOBO_primitive":{"PrimitiveCount":8,"StartIndex":13128,"VertexType":"VTX","VertexVersion":2}}},{"attributes":{"COLOR_0":15,"NORMAL":12,"POSITION":10,"TANGENT":11,"TEXCOORD_0":13,"TEXCOORD_1":14},"indices":16,"material":4,"mode":4,"extras":{"ASOBO_primitive":{"PrimitiveCount":32,"StartIndex":13152,"VertexType":"VTX","VertexVersion":2}}},{"attributes":{"COLOR_0":15,"NORMAL":12,"POSITION":10,"TANGENT":11,"TEXCOORD_0":13,"TEXCOORD_1":14},"indices":16,"material":5,"mode":4,"extras":{"ASOBO_primitive":{"PrimitiveCount":20,"StartIndex":13248,"VertexType":"VTX","VertexVersion":2}}}],"name":"Cube.027"},{"primitives":[{"attributes":{"COLOR_0":22,"NORMAL":19,"POSITION":17,"TANGENT":18,"TEXCOORD_0":20,"TEXCOORD_1":21},"indices":23,"material":1,"mode":4,"extras":{"ASOBO_primitive":{"PrimitiveCount":1296,"VertexType":"VTX","VertexVersion":2}}},{"attributes":{"COLOR_0":22,"NORMAL":19,"POSITION":17,"TANGENT":18,"TEXCOORD_0":20,"TEXCOORD_1":21},"indices":23,"material":2,"mode":4,"extras":{"ASOBO_primitive":{"PrimitiveCount":3080,"StartIndex":3888,"VertexType":"VTX","VertexVersion":2}}},{"attributes":{"COLOR_0":22,"NORMAL":19,"POSITION":17,"TANGENT":18,"TEXCOORD_0":20,"TEXCOORD_1":21},"indices":23,"material":3,"mode":4,"extras":{"ASOBO_primitive":{"PrimitiveCount":8,"StartIndex":13128,"VertexType":"VTX","VertexVersion":2}}},{"attributes":{"COLOR_0":22,"NORMAL":19,"POSITION":17,"TANGENT":18,"TEXCOORD_0":20,"TEXCOORD_1":21},"indices":23,"material":4,"mode":4,"extras":{"ASOBO_primitive":{"PrimitiveCount":32,"StartIndex":13152,"VertexType":"VTX","VertexVersion":2}}},{"attributes":{"COLOR_0":22,"NORMAL":19,"POSITION":17,"TANGENT":18,"TEXCOORD_0":20,"TEXCOORD_1":21},"indices":23,"material":5,"mode":4,"extras":{"ASOBO_primitive":{"PrimitiveCount":20,"StartIndex":13248,"VertexType":"VTX","VertexVersion":2}}}],"name":"Cube.091"}],"nodes":[{"mesh":0,"name":"Neoflycargo00"},{"translation":[0.2835494577884674,-199.5960235595703,1.4354360103607178],"rotation":[0.0,-0.7071068286895752,0.0,0.7071068286895752],"scale":[0.9661168456077576,1.0,1.0],"mesh":1,"name":"Neoflycargo-dangerous.001"},{"translation":[0.283549427986145,-199.5960235595703,1.9742023944854737],"rotation":[0.0,-0.7071068286895752,0.0,0.7071068286895752],"scale":[0.9661168456077576,1.0,1.0],"mesh":2,"name":"Neoflycargo-dangerous.003"}],"scene":0,"scenes":[{"nodes":[0,1,2],"name":"Scene"}],"textures":[{"extensions":{"MSFT_texture_dds":{"source":0}}},{"extensions":{"MSFT_texture_dds":{"source":1}}},{"extensions":{"MSFT_texture_dds":{"source":2}}},{"extensions":{"MSFT_texture_dds":{"source":3}}},{"extensions":{"MSFT_texture_dds":{"source":4}}},{"sampler":0,"source":5},{"extensions":{"MSFT_texture_dds":{"source":6}}},{"extensions":{"MSFT_texture_dds":{"source":7}}},{"extensions":{"MSFT_texture_dds":{"source":8}}}],"samplers":[{"magFilter":9729,"minFilter":9987,"wrapS":10497,"wrapT":10497}],"extensionsUsed":["ASOBO_normal_map_convention","ASOBO_material_blend_gbuffer","MSFT_texture_dds","ASOBO_asset_optimized"],"buffers":[{"byteLength":679056,"uri":"Neoflycargo_dangerous_u_2.bin"}],"images":[{"uri":"NEOFLY_CARGO0A_NORM.PNG.DDS","name":"neofly_cargo0a_norm","extras":"ASOBO_image_converted_meta"},{"uri":"NEOFLY_CARGO0A_COMP.PNG.DDS","name":"neofly_cargo0a_comp","extras":"ASOBO_image_converted_meta"},{"uri":"NEOFLY_CARGO0A_ALBD.PNG.DDS","name":"neofly_cargo0a_albd","extras":"ASOBO_image_converted_meta"},{"uri":"NEOFLY_CARGO8H_NORM.PNG.DDS","name":"neofly_cargo8h_norm","extras":"ASOBO_image_converted_meta"},{"uri":"NEOFLY_CARGO8H_ALBD.PNG.DDS","name":"neofly_cargo8h_albd","extras":"ASOBO_image_converted_meta"},{"uri":"neofly_cargo8h_comp.png","name":"neofly_cargo8h_comp"},{"uri":"NEOFLY_CARGO8F_ALBD.PNG.DDS","name":"neofly_cargo8f_albd","extras":"ASOBO_image_converted_meta"},{"uri":"NEOFLY_CARGO8J_ALBD.PNG.DDS","name":"neofly_cargo8j_albd","extras":"ASOBO_image_converted_meta"},{"uri":"NEOFLY_DANGEROUS_ALBD.PNG.DDS","name":"neofly_dangerous_albd","extras":"ASOBO_image_converted_meta"}]}
