{"accessors":[{"bufferView":0,"componentType":5126,"count":21130,"min":[-242.12953186035157,2.5535693168640138,-59.16332244873047],"max":[242.1295623779297,143.49256896972657,59.16333770751953],"type":"VEC3","name":"smdimport_vertices#0_POSITION"},{"bufferView":0,"byteOffset":12,"componentType":5120,"count":21130,"type":"VEC4","name":"smdimport_vertices#0_TANGENT"},{"bufferView":0,"byteOffset":16,"componentType":5120,"count":21130,"type":"VEC4","name":"smdimport_vertices#0_NORMAL"},{"bufferView":0,"byteOffset":20,"componentType":5122,"count":21130,"type":"VEC2","name":"smdimport_vertices#0_TEXCOORD_0"},{"bufferView":0,"byteOffset":24,"componentType":5122,"count":21130,"type":"VEC2","name":"smdimport_vertices#0_TEXCOORD_1"},{"bufferView":0,"byteOffset":28,"componentType":5123,"count":21130,"type":"VEC4","name":"smdimport_vertices#0_COLOR_0"},{"bufferView":1,"componentType":5123,"count":21420,"type":"SCALAR","name":"smdimport_indices#1"},{"bufferView":0,"byteOffset":760680,"componentType":5126,"count":40,"min":[-0.65740966796875,2.7173004150390627,1.303802490234375],"max":[1.34259033203125,3.7173004150390627,2.303802490234375],"type":"VEC3","name":"static_pro_vertices#0_POSITION"},{"bufferView":0,"byteOffset":760692,"componentType":5120,"count":40,"type":"VEC4","name":"static_pro_vertices#0_TANGENT"},{"bufferView":0,"byteOffset":760696,"componentType":5120,"count":40,"type":"VEC4","name":"static_pro_vertices#0_NORMAL"},{"bufferView":0,"byteOffset":760700,"componentType":5122,"count":40,"type":"VEC2","name":"static_pro_vertices#0_TEXCOORD_0"},{"bufferView":0,"byteOffset":760704,"componentType":5122,"count":40,"type":"VEC2","name":"static_pro_vertices#0_TEXCOORD_1"},{"bufferView":0,"byteOffset":760708,"componentType":5123,"count":40,"type":"VEC4","name":"static_pro_vertices#0_COLOR_0"},{"bufferView":1,"byteOffset":42840,"componentType":5123,"count":42,"type":"SCALAR","name":"static_pro_indices#0"}],"asset":{"generator":"Extended Khronos glTF Blender I/O v1.0.0","version":"2.0","extensions":{"ASOBO_asset_optimized":{"BoundingBoxMax":[242.1295623779297,143.49256896972657,59.16333770751953],"BoundingBoxMin":[-242.12953186035157,2.5535693168640138,-59.16332244873047],"MajorVersion":4,"MinorVersion":2},"ASOBO_normal_map_convention":{"tangent_space_convention":"DirectX"}}},"bufferViews":[{"buffer":0,"byteLength":762120,"byteStride":36,"target":34962,"name":"BufferViewVertexND"},{"buffer":0,"byteLength":42924,"byteOffset":762120,"target":34963,"name":"BufferViewIndex"}],"extensionsUsed":["ASOBO_normal_map_convention","MSFT_texture_dds","ASOBO_asset_optimized"],"extensionsRequired":["MSFT_texture_dds"],"materials":[{"name":"Material.001","pbrMetallicRoughness":{"metallicFactor":0.0,"roughnessFactor":0.5,"baseColorTexture":{"index":0}}},{"name":"Material","occlusionTexture":{"index":1},"pbrMetallicRoughness":{"baseColorTexture":{"index":2},"metallicRoughnessTexture":{"index":1}}},{"name":"glTFValidator_Added_Default_Material"}],"meshes":[{"primitives":[{"attributes":{"COLOR_0":5,"NORMAL":2,"POSITION":0,"TANGENT":1,"TEXCOORD_0":3,"TEXCOORD_1":4},"indices":6,"material":0,"mode":4,"extras":{"ASOBO_primitive":{"PrimitiveCount":6526,"VertexType":"VTX","VertexVersion":2}}},{"attributes":{"COLOR_0":5,"NORMAL":2,"POSITION":0,"TANGENT":1,"TEXCOORD_0":3,"TEXCOORD_1":4},"indices":6,"material":1,"mode":4,"extras":{"ASOBO_primitive":{"PrimitiveCount":614,"StartIndex":19578,"VertexType":"VTX","VertexVersion":2}}}],"name":"smdimport"},{"primitives":[{"attributes":{"COLOR_0":12,"NORMAL":9,"POSITION":7,"TANGENT":8,"TEXCOORD_0":10,"TEXCOORD_1":11},"indices":13,"material":2,"mode":4,"extras":{"ASOBO_primitive":{"PrimitiveCount":14,"VertexType":"VTX","VertexVersion":2}}}],"name":"static_pro"}],"nodes":[{"translation":[-0.65740966796875,143.0819091796875,-90.38371276855468],"rotation":[0.7286177277565002,0.0,0.0,0.6849205493927002],"scale":[2.5,2.500000476837158,2.500000476837158],"mesh":0,"name":"smdimport"},{"translation":[-0.65740966796875,-69.80577087402344,1.803802490234375],"mesh":1,"name":"static_pro"},{"scale":[0.009999999776482582,0.009999999776482582,0.009999999776482582],"name":"$$$DUMMY.Group01","children":[0,1]}],"scene":0,"scenes":[{"nodes":[2],"name":"Scene"}],"textures":[{"extensions":{"MSFT_texture_dds":{"source":0}}},{"extensions":{"MSFT_texture_dds":{"source":1}}},{"extensions":{"MSFT_texture_dds":{"source":2}}}],"buffers":[{"byteLength":805044,"uri":"Neoflycrashedcar1.bin"}],"images":[{"uri":"BUS01_B.PNG.DDS","name":"BUS01_B","extras":"ASOBO_image_converted_meta"},{"uri":"BUS01_A_REF.PNG.DDS","name":"bus01_a_ref","extras":"ASOBO_image_converted_meta"},{"uri":"BUS01_A.PNG.DDS","name":"BUS01_A","extras":"ASOBO_image_converted_meta"}]}
