{"accessors":[{"bufferView":0,"componentType":5126,"count":2848,"min":[-0.2167615294456482,-0.02191498503088951,-0.22037701308727265],"max":[0.2167615294456482,0.3245342969894409,0.17404770851135255],"type":"VEC3","name":"Sci-Fi_Case.007_vertices#0_POSITION"},{"bufferView":0,"byteOffset":12,"componentType":5120,"count":2848,"type":"VEC4","name":"Sci-Fi_Case.007_vertices#0_TANGENT"},{"bufferView":0,"byteOffset":16,"componentType":5120,"count":2848,"type":"VEC4","name":"Sci-Fi_Case.007_vertices#0_NORMAL"},{"bufferView":0,"byteOffset":20,"componentType":5122,"count":2848,"type":"VEC2","name":"Sci-Fi_Case.007_vertices#0_TEXCOORD_0"},{"bufferView":0,"byteOffset":24,"componentType":5122,"count":2848,"type":"VEC2","name":"Sci-Fi_Case.007_vertices#0_TEXCOORD_1"},{"bufferView":0,"byteOffset":28,"componentType":5123,"count":2848,"type":"VEC4","name":"Sci-Fi_Case.007_vertices#0_COLOR_0"},{"bufferView":1,"componentType":5123,"count":7398,"type":"SCALAR","name":"Sci-Fi_Case.007_indices#0"},{"bufferView":0,"byteOffset":102528,"componentType":5126,"count":21426,"min":[-0.324278324842453,-0.0029757071752101185,-0.2554829716682434],"max":[0.32737991213798525,1.8628133535385132,0.45502498745918276],"type":"VEC3","name":"Mesh.004_vertices#0_POSITION"},{"bufferView":0,"byteOffset":102540,"componentType":5120,"count":21426,"type":"VEC4","name":"Mesh.004_vertices#0_TANGENT"},{"bufferView":0,"byteOffset":102544,"componentType":5120,"count":21426,"type":"VEC4","name":"Mesh.004_vertices#0_NORMAL"},{"bufferView":0,"byteOffset":102548,"componentType":5122,"count":21426,"type":"VEC2","name":"Mesh.004_vertices#0_TEXCOORD_0"},{"bufferView":0,"byteOffset":102552,"componentType":5122,"count":21426,"type":"VEC2","name":"Mesh.004_vertices#0_TEXCOORD_1"},{"bufferView":0,"byteOffset":102556,"componentType":5123,"count":21426,"type":"VEC4","name":"Mesh.004_vertices#0_COLOR_0"},{"bufferView":1,"byteOffset":14796,"componentType":5123,"count":31068,"type":"SCALAR","name":"Mesh.004_indices#1"}],"asset":{"generator":"Khronos glTF Blender I/O v1.8.19 and Asobo Studio MSFS Blender I/O v1.1.6","version":"2.0","extensions":{"ASOBO_asset_optimized":{"BoundingBoxMax":[0.32737991213798525,1.8628133535385132,0.45502498745918276],"BoundingBoxMin":[-0.324278324842453,-0.02191498503088951,-0.2554829716682434],"MajorVersion":4,"MinorVersion":4,"UseCheckerboardMaterialForMissingTextures":true,"UseOnlyFilenameForImageURI":true},"ASOBO_normal_map_convention":{"tangent_space_convention":"DirectX"}}},"bufferViews":[{"buffer":0,"byteLength":873864,"byteStride":36,"target":34962,"name":"BufferViewVertexND"},{"buffer":0,"byteLength":76932,"byteOffset":873864,"target":34963,"name":"BufferViewIndex"}],"extensionsRequired":["MSFT_texture_dds"],"materials":[{"name":"Sci-Fi_Case","normalTexture":{"index":1},"occlusionTexture":{"index":2},"emissiveTexture":{"index":0},"emissiveFactor":[1.0,0.0,0.0],"pbrMetallicRoughness":{"baseColorTexture":{"index":3},"metallicRoughnessTexture":{"index":2}}},{"name":"biohazard_mat.001","normalTexture":{"index":4},"pbrMetallicRoughness":{"baseColorTexture":{"index":5}}},{"name":"glass_mat","alphaMode":"BLEND","pbrMetallicRoughness":{"baseColorFactor":[0.0,0.8843352794647217,1.0,0.009999999776482582],"metallicFactor":0.0,"roughnessFactor":0.050000011920928958},"extensions":{"ASOBO_material_kitty_glass":{}}}],"meshes":[{"primitives":[{"attributes":{"COLOR_0":5,"NORMAL":2,"POSITION":0,"TANGENT":1,"TEXCOORD_0":3,"TEXCOORD_1":4},"indices":6,"material":0,"mode":4,"extras":{"ASOBO_primitive":{"PrimitiveCount":2466,"VertexType":"VTX","VertexVersion":2}}}],"name":"Sci-Fi_Case.007"},{"primitives":[{"attributes":{"COLOR_0":12,"NORMAL":9,"POSITION":7,"TANGENT":8,"TEXCOORD_0":10,"TEXCOORD_1":11},"indices":13,"material":1,"mode":4,"extras":{"ASOBO_primitive":{"PrimitiveCount":10084,"VertexType":"VTX","VertexVersion":2}}},{"attributes":{"COLOR_0":12,"NORMAL":9,"POSITION":7,"TANGENT":8,"TEXCOORD_0":10,"TEXCOORD_1":11},"indices":13,"material":2,"mode":4,"extras":{"ASOBO_primitive":{"PrimitiveCount":272,"StartIndex":30252,"VertexType":"VTX","VertexVersion":2}}}],"name":"Mesh.004"}],"nodes":[{"translation":[-0.0041234493255615238,0.7134454846382141,0.4179055094718933],"mesh":0,"name":"Sci-Fi_Case.005"},{"translation":[0.0,0.0,-0.005490243434906006],"mesh":1,"name":"biohazard_suit_lod0.001"}],"scene":0,"scenes":[{"nodes":[0,1],"name":"Scene"}],"textures":[{"extensions":{"MSFT_texture_dds":{"source":0}}},{"extensions":{"MSFT_texture_dds":{"source":1}}},{"extensions":{"MSFT_texture_dds":{"source":2}}},{"extensions":{"MSFT_texture_dds":{"source":3}}},{"extensions":{"MSFT_texture_dds":{"source":4}}},{"extensions":{"MSFT_texture_dds":{"source":5}}},{"sampler":0,"source":6}],"samplers":[{"magFilter":9729,"minFilter":9987,"wrapS":10497,"wrapT":10497}],"extensionsUsed":["ASOBO_normal_map_convention","ASOBO_material_glass","ASOBO_material_kitty_glass","MSFT_texture_dds","ASOBO_asset_optimized"],"buffers":[{"byteLength":950796,"uri":"Neoflycargo_biohazardsuit_01.bin"}],"images":[{"uri":"NEOFLY_CARGO24_EMIS.PNG.DDS","name":"neofly_cargo24_Emis","extras":"ASOBO_image_converted_meta"},{"uri":"NEOFLY_CARGO24_NORM.PNG.DDS","name":"neofly_cargo24_norm","extras":"ASOBO_image_converted_meta"},{"uri":"NEOFLY_CARGO24_COMP.PNG.DDS","name":"neofly_cargo24_comp","extras":"ASOBO_image_converted_meta"},{"uri":"NEOFLY_CARGO24_ALBD.PNG.DDS","name":"neofly_cargo24_albd","extras":"ASOBO_image_converted_meta"},{"uri":"NEOFLY_CARGO_BIOHAZARDSUIT_NORM.PNG.DDS","name":"neofly_cargo_biohazardsuit_norm","extras":"ASOBO_image_converted_meta"},{"uri":"NEOFLY_CARGO_BIOHAZARDSUIT_ALBD.PNG.DDS","name":"neofly_cargo_biohazardsuit_albd","extras":"ASOBO_image_converted_meta"},{"uri":"neofly_cargo_biohazardsuit_comp.png","name":"neofly_cargo_biohazardsuit_comp"}]}
