{"accessors":[{"bufferView":0,"componentType":5126,"count":201,"min":[0.0],"max":[6.666666666666667],"type":"SCALAR"},{"bufferView":1,"componentType":5126,"count":201,"type":"VEC3"},{"bufferView":2,"componentType":5126,"count":201,"type":"VEC4"},{"bufferView":3,"componentType":5126,"count":201,"type":"VEC3"},{"bufferView":4,"componentType":5126,"count":201,"type":"VEC4"},{"bufferView":5,"componentType":5126,"count":1201,"min":[0.0],"max":[40.0],"type":"SCALAR"},{"bufferView":6,"componentType":5126,"count":1201,"type":"VEC3"},{"bufferView":7,"componentType":5126,"count":1201,"type":"VEC4"},{"bufferView":8,"componentType":5126,"count":7690,"min":[-65.89952850341797,0.15164756774902345,-58.291927337646487],"max":[64.60078430175781,61.03193283081055,58.29261779785156],"type":"VEC3","name":"Mesh.001_vertices#0_POSITION"},{"bufferView":8,"byteOffset":12,"componentType":5120,"count":7690,"type":"VEC4","name":"Mesh.001_vertices#0_TANGENT"},{"bufferView":8,"byteOffset":16,"componentType":5120,"count":7690,"type":"VEC4","name":"Mesh.001_vertices#0_NORMAL"},{"bufferView":8,"byteOffset":20,"componentType":5122,"count":7690,"type":"VEC2","name":"Mesh.001_vertices#0_TEXCOORD_0"},{"bufferView":8,"byteOffset":24,"componentType":5122,"count":7690,"type":"VEC2","name":"Mesh.001_vertices#0_TEXCOORD_1"},{"bufferView":8,"byteOffset":28,"componentType":5123,"count":7690,"type":"VEC4","name":"Mesh.001_vertices#0_COLOR_0"},{"bufferView":9,"componentType":5123,"count":38364,"type":"SCALAR","name":"Mesh.001_indices#2"},{"bufferView":8,"byteOffset":276840,"componentType":5126,"count":90030,"min":[-24.388050079345704,-30.37930679321289,-88.35325622558594],"max":[36.91983413696289,27.89206886291504,0.5663989782333374],"type":"VEC3","name":"Sveta_5_vertices#0_POSITION"},{"bufferView":8,"byteOffset":276852,"componentType":5120,"count":90030,"type":"VEC4","name":"Sveta_5_vertices#0_TANGENT"},{"bufferView":8,"byteOffset":276856,"componentType":5120,"count":90030,"type":"VEC4","name":"Sveta_5_vertices#0_NORMAL"},{"bufferView":8,"byteOffset":276860,"componentType":5122,"count":90030,"type":"VEC2","name":"Sveta_5_vertices#0_TEXCOORD_0"},{"bufferView":8,"byteOffset":276864,"componentType":5122,"count":90030,"type":"VEC2","name":"Sveta_5_vertices#0_TEXCOORD_1"},{"bufferView":8,"byteOffset":276868,"componentType":5123,"count":90030,"type":"VEC4","name":"Sveta_5_vertices#0_COLOR_0"},{"bufferView":9,"byteOffset":76728,"componentType":5123,"count":90030,"type":"SCALAR","name":"Sveta_5_indices#1"},{"bufferView":8,"byteOffset":3517920,"componentType":5126,"count":413518,"min":[-4.026027679443359,-5.7746734619140629,24.69320297241211],"max":[6.200032711029053,-1.7168211936950684,27.874897003173829],"type":"VEC3","name":"Cube.001_vertices#0_POSITION"},{"bufferView":8,"byteOffset":3517932,"componentType":5120,"count":413518,"type":"VEC4","name":"Cube.001_vertices#0_TANGENT"},{"bufferView":8,"byteOffset":3517936,"componentType":5120,"count":413518,"type":"VEC4","name":"Cube.001_vertices#0_NORMAL"},{"bufferView":8,"byteOffset":3517940,"componentType":5122,"count":413518,"type":"VEC2","name":"Cube.001_vertices#0_TEXCOORD_0"},{"bufferView":8,"byteOffset":3517944,"componentType":5122,"count":413518,"type":"VEC2","name":"Cube.001_vertices#0_TEXCOORD_1"},{"bufferView":8,"byteOffset":3517948,"componentType":5123,"count":413518,"type":"VEC4","name":"Cube.001_vertices#0_COLOR_0"},{"bufferView":9,"byteOffset":256788,"componentType":5123,"count":2310144,"type":"SCALAR","name":"Cube.001_indices#6"}],"animations":[{"name":"Neoflysea1nla1b","channels":[{"sampler":0,"target":{"node":0,"path":"translation"}},{"sampler":1,"target":{"node":0,"path":"rotation"}}],"samplers":[{"input":0,"output":1,"interpolation":"LINEAR"},{"input":0,"output":2,"interpolation":"LINEAR"}]},{"name":"Neoflysea1nla1a","channels":[{"sampler":0,"target":{"node":1,"path":"translation"}},{"sampler":1,"target":{"node":1,"path":"rotation"}}],"samplers":[{"input":0,"output":3,"interpolation":"LINEAR"},{"input":0,"output":4,"interpolation":"LINEAR"}]},{"name":"Neoflysea1nla1c","channels":[{"sampler":0,"target":{"node":2,"path":"translation"}},{"sampler":1,"target":{"node":2,"path":"rotation"}}],"samplers":[{"input":5,"output":6,"interpolation":"LINEAR"},{"input":5,"output":7,"interpolation":"LINEAR"}]}],"asset":{"generator":"Extended Khronos glTF Blender I/O v1.0.0","version":"2.0","extensions":{"ASOBO_asset_optimized":{"BoundingBoxMax":[64.60078430175781,61.03193283081055,58.29261779785156],"BoundingBoxMin":[-65.89952850341797,-30.37930679321289,-88.35325622558594],"MajorVersion":4,"MinorVersion":2},"ASOBO_normal_map_convention":{"tangent_space_convention":"DirectX"}}},"bufferViews":[{"buffer":0,"byteLength":804},{"buffer":0,"byteLength":2412,"byteOffset":804},{"buffer":0,"byteLength":3216,"byteOffset":3216},{"buffer":0,"byteLength":2412,"byteOffset":6432},{"buffer":0,"byteLength":3216,"byteOffset":8844},{"buffer":0,"byteLength":4804,"byteOffset":12060},{"buffer":0,"byteLength":14412,"byteOffset":16864},{"buffer":0,"byteLength":19216,"byteOffset":31276},{"buffer":0,"byteLength":18404568,"byteStride":36,"byteOffset":50492,"target":34962,"name":"BufferViewVertexND"},{"buffer":0,"byteLength":4877076,"byteOffset":18455060,"target":34963,"name":"BufferViewIndex"}],"extensionsUsed":["ASOBO_normal_map_convention","MSFT_texture_dds","ASOBO_asset_optimized"],"extensionsRequired":["MSFT_texture_dds"],"materials":[{"name":"Material","doubleSided":true,"pbrMetallicRoughness":{"baseColorFactor":[1.0,0.08165523409843445,0.0,1.0],"metallicFactor":0.0,"roughnessFactor":0.5}},{"name":"rescueRaft","doubleSided":true,"pbrMetallicRoughness":{"baseColorFactor":[1.0,0.16756822168827058,0.0,1.0],"metallicFactor":0.0,"roughnessFactor":0.5}},{"name":"Material.001","pbrMetallicRoughness":{"baseColorFactor":[0.06372073292732239,0.06372073292732239,0.06372073292732239,1.0],"metallicFactor":0.0,"roughnessFactor":0.5}},{"name":"Material.002","normalTexture":{"index":1},"emissiveTexture":{"index":0},"pbrMetallicRoughness":{"baseColorTexture":{"index":2}}},{"name":"Material.003","pbrMetallicRoughness":{"baseColorFactor":[0.11493558436632157,0.11493558436632157,0.11493558436632157,1.0],"metallicFactor":0.0,"roughnessFactor":0.5}}],"meshes":[{"primitives":[{"attributes":{"COLOR_0":13,"NORMAL":10,"POSITION":8,"TANGENT":9,"TEXCOORD_0":11,"TEXCOORD_1":12},"indices":14,"material":0,"mode":4,"extras":{"ASOBO_primitive":{"PrimitiveCount":4,"VertexType":"VTX","VertexVersion":2}}},{"attributes":{"COLOR_0":13,"NORMAL":10,"POSITION":8,"TANGENT":9,"TEXCOORD_0":11,"TEXCOORD_1":12},"indices":14,"material":1,"mode":4,"extras":{"ASOBO_primitive":{"PrimitiveCount":12080,"StartIndex":12,"VertexType":"VTX","VertexVersion":2}}},{"attributes":{"COLOR_0":13,"NORMAL":10,"POSITION":8,"TANGENT":9,"TEXCOORD_0":11,"TEXCOORD_1":12},"indices":14,"material":2,"mode":4,"extras":{"ASOBO_primitive":{"PrimitiveCount":704,"StartIndex":36252,"VertexType":"VTX","VertexVersion":2}}}],"name":"Mesh.001"},{"primitives":[{"attributes":{"COLOR_0":20,"NORMAL":17,"POSITION":15,"TANGENT":16,"TEXCOORD_0":18,"TEXCOORD_1":19},"indices":21,"material":3,"mode":4,"extras":{"ASOBO_primitive":{"PrimitiveCount":21843,"VertexType":"VTX","VertexVersion":2}}},{"attributes":{"COLOR_0":20,"NORMAL":17,"POSITION":15,"TANGENT":16,"TEXCOORD_0":18,"TEXCOORD_1":19},"indices":21,"material":3,"mode":4,"extras":{"ASOBO_primitive":{"BaseVertexIndex":65529,"PrimitiveCount":8167,"StartIndex":65529,"VertexType":"VTX","VertexVersion":2}}}],"name":"Sveta_5"},{"primitives":[{"attributes":{"COLOR_0":27,"NORMAL":24,"POSITION":22,"TANGENT":23,"TEXCOORD_0":25,"TEXCOORD_1":26},"indices":28,"material":4,"mode":4,"extras":{"ASOBO_primitive":{"PrimitiveCount":122578,"VertexType":"VTX","VertexVersion":2}}},{"attributes":{"COLOR_0":27,"NORMAL":24,"POSITION":22,"TANGENT":23,"TEXCOORD_0":25,"TEXCOORD_1":26},"indices":28,"material":4,"mode":4,"extras":{"ASOBO_primitive":{"BaseVertexIndex":65529,"PrimitiveCount":121615,"StartIndex":367734,"VertexType":"VTX","VertexVersion":2}}},{"attributes":{"COLOR_0":27,"NORMAL":24,"POSITION":22,"TANGENT":23,"TEXCOORD_0":25,"TEXCOORD_1":26},"indices":28,"material":4,"mode":4,"extras":{"ASOBO_primitive":{"BaseVertexIndex":131059,"PrimitiveCount":123477,"StartIndex":732579,"VertexType":"VTX","VertexVersion":2}}},{"attributes":{"COLOR_0":27,"NORMAL":24,"POSITION":22,"TANGENT":23,"TEXCOORD_0":25,"TEXCOORD_1":26},"indices":28,"material":4,"mode":4,"extras":{"ASOBO_primitive":{"BaseVertexIndex":196589,"PrimitiveCount":122464,"StartIndex":1103010,"VertexType":"VTX","VertexVersion":2}}},{"attributes":{"COLOR_0":27,"NORMAL":24,"POSITION":22,"TANGENT":23,"TEXCOORD_0":25,"TEXCOORD_1":26},"indices":28,"material":4,"mode":4,"extras":{"ASOBO_primitive":{"BaseVertexIndex":262119,"PrimitiveCount":121574,"StartIndex":1470402,"VertexType":"VTX","VertexVersion":2}}},{"attributes":{"COLOR_0":27,"NORMAL":24,"POSITION":22,"TANGENT":23,"TEXCOORD_0":25,"TEXCOORD_1":26},"indices":28,"material":4,"mode":4,"extras":{"ASOBO_primitive":{"BaseVertexIndex":327649,"PrimitiveCount":123224,"StartIndex":1835124,"VertexType":"VTX","VertexVersion":2}}},{"attributes":{"COLOR_0":27,"NORMAL":24,"POSITION":22,"TANGENT":23,"TEXCOORD_0":25,"TEXCOORD_1":26},"indices":28,"material":4,"mode":4,"extras":{"ASOBO_primitive":{"BaseVertexIndex":393179,"PrimitiveCount":35116,"StartIndex":2204796,"VertexType":"VTX","VertexVersion":2}}}],"name":"Cube.001"}],"nodes":[{"translation":[-0.022956065833568574,-0.14983001351356507,0.05205114930868149],"rotation":[-0.06442440301179886,0.003296088194474578,-0.05098874494433403,0.9966136813163756],"scale":[0.02539999969303608,0.02539999969303608,0.02539999969303608],"mesh":0,"name":"rescueRaft_floor_low"},{"translation":[0.1093134582042694,0.20570075511932374,-0.24920672178268434],"rotation":[0.6169129014015198,-0.23461510241031648,0.19398702681064609,0.7257707715034485],"scale":[0.010000004433095456,0.010000004433095456,0.010000004433095456],"mesh":1,"name":"Sveta_5"},{"translation":[0.23027324676513673,1.360015869140625,-0.047410011291503909],"rotation":[0.0,0.7120322585105896,0.0,-0.7021467685699463],"scale":[0.5,0.5,0.5],"mesh":2,"name":"Shark"}],"scene":0,"scenes":[{"nodes":[0,1,2],"name":"Scene"}],"textures":[{"extensions":{"MSFT_texture_dds":{"source":0}}},{"extensions":{"MSFT_texture_dds":{"source":1}}},{"extensions":{"MSFT_texture_dds":{"source":2}}},{"source":3}],"buffers":[{"byteLength":23332136,"uri":"Neoflysea1.bin"}],"images":[{"uri":"T_3D SCAN WOMAN 9_G.JPG.DDS","name":"T_3d scan woman 9_G","extras":"ASOBO_image_converted_meta"},{"uri":"T_3D SCAN WOMAN 9_N.JPG.DDS","name":"T_3d scan woman 9_N","extras":"ASOBO_image_converted_meta"},{"uri":"T_3D SCAN WOMAN 9_D.JPG.DDS","name":"T_3d scan woman 9_D","extras":"ASOBO_image_converted_meta"},{"uri":"T_3D SCAN WOMAN 9_R.JPG","name":"T_3d scan woman 9_R"}]}
