{"accessors":[{"bufferView":0,"componentType":5126,"count":2001,"min":[0.0],"max":[83.33333333333333],"type":"SCALAR"},{"bufferView":1,"componentType":5126,"count":2001,"type":"VEC3"},{"bufferView":2,"componentType":5126,"count":2001,"type":"VEC3"},{"bufferView":3,"componentType":5126,"count":2001,"type":"VEC3"},{"bufferView":4,"componentType":5126,"count":2001,"type":"VEC3"},{"bufferView":5,"componentType":5126,"count":670,"min":[-0.6424797177314758,-0.02811548113822937,1.0906031131744385],"max":[0.64248126745224,0.18248648941516877,2.309396505355835],"type":"VEC3","name":"Cube.052_vertices#0_POSITION"},{"bufferView":5,"byteOffset":12,"componentType":5120,"count":670,"type":"VEC4","name":"Cube.052_vertices#0_TANGENT"},{"bufferView":5,"byteOffset":16,"componentType":5120,"count":670,"type":"VEC4","name":"Cube.052_vertices#0_NORMAL"},{"bufferView":5,"byteOffset":20,"componentType":5122,"count":670,"type":"VEC2","name":"Cube.052_vertices#0_TEXCOORD_0"},{"bufferView":5,"byteOffset":24,"componentType":5122,"count":670,"type":"VEC2","name":"Cube.052_vertices#0_TEXCOORD_1"},{"bufferView":5,"byteOffset":28,"componentType":5123,"count":670,"type":"VEC4","name":"Cube.052_vertices#0_COLOR_0"},{"bufferView":6,"componentType":5123,"count":1080,"type":"SCALAR","name":"Cube.052_indices#0"},{"bufferView":5,"byteOffset":24120,"componentType":5126,"count":1904,"min":[0.06153721362352371,0.18166455626487733,1.213149070739746],"max":[0.37113723158836367,0.6085641384124756,1.5227491855621338],"type":"VEC3","name":"Cube.002_vertices#0_POSITION"},{"bufferView":5,"byteOffset":24132,"componentType":5120,"count":1904,"type":"VEC4","name":"Cube.002_vertices#0_TANGENT"},{"bufferView":5,"byteOffset":24136,"componentType":5120,"count":1904,"type":"VEC4","name":"Cube.002_vertices#0_NORMAL"},{"bufferView":5,"byteOffset":24140,"componentType":5122,"count":1904,"type":"VEC2","name":"Cube.002_vertices#0_TEXCOORD_0"},{"bufferView":5,"byteOffset":24144,"componentType":5122,"count":1904,"type":"VEC2","name":"Cube.002_vertices#0_TEXCOORD_1"},{"bufferView":5,"byteOffset":24148,"componentType":5123,"count":1904,"type":"VEC4","name":"Cube.002_vertices#0_COLOR_0"},{"bufferView":6,"byteOffset":2160,"componentType":5123,"count":5712,"type":"SCALAR","name":"Cube.002_indices#1"},{"bufferView":5,"byteOffset":92664,"componentType":5126,"count":1872,"min":[-0.4286295175552368,0.18244078755378724,1.3285449743270875],"max":[-0.11902602016925812,0.6093403697013855,1.6381573677062989],"type":"VEC3","name":"Cube.014_vertices#0_POSITION"},{"bufferView":5,"byteOffset":92676,"componentType":5120,"count":1872,"type":"VEC4","name":"Cube.014_vertices#0_TANGENT"},{"bufferView":5,"byteOffset":92680,"componentType":5120,"count":1872,"type":"VEC4","name":"Cube.014_vertices#0_NORMAL"},{"bufferView":5,"byteOffset":92684,"componentType":5122,"count":1872,"type":"VEC2","name":"Cube.014_vertices#0_TEXCOORD_0"},{"bufferView":5,"byteOffset":92688,"componentType":5122,"count":1872,"type":"VEC2","name":"Cube.014_vertices#0_TEXCOORD_1"},{"bufferView":5,"byteOffset":92692,"componentType":5123,"count":1872,"type":"VEC4","name":"Cube.014_vertices#0_COLOR_0"},{"bufferView":6,"byteOffset":13584,"componentType":5123,"count":5616,"type":"SCALAR","name":"Cube.014_indices#1"},{"bufferView":5,"byteOffset":160056,"componentType":5126,"count":3861,"min":[0.09964734315872193,0.18170949816703797,1.7834244966506959],"max":[0.4867258369922638,0.8830344080924988,2.1705031394958498],"type":"VEC3","name":"Cube.016_vertices#0_POSITION"},{"bufferView":5,"byteOffset":160068,"componentType":5120,"count":3861,"type":"VEC4","name":"Cube.016_vertices#0_TANGENT"},{"bufferView":5,"byteOffset":160072,"componentType":5120,"count":3861,"type":"VEC4","name":"Cube.016_vertices#0_NORMAL"},{"bufferView":5,"byteOffset":160076,"componentType":5122,"count":3861,"type":"VEC2","name":"Cube.016_vertices#0_TEXCOORD_0"},{"bufferView":5,"byteOffset":160080,"componentType":5122,"count":3861,"type":"VEC2","name":"Cube.016_vertices#0_TEXCOORD_1"},{"bufferView":5,"byteOffset":160084,"componentType":5123,"count":3861,"type":"VEC4","name":"Cube.016_vertices#0_COLOR_0"},{"bufferView":6,"byteOffset":24816,"componentType":5123,"count":11574,"type":"SCALAR","name":"Cube.016_indices#1"},{"bufferView":5,"byteOffset":299052,"componentType":5126,"count":3861,"min":[-0.4977635443210602,0.18170949816703797,1.7498937845230103],"max":[-0.1091105043888092,0.8830344080924988,2.13854718208313],"type":"VEC3","name":"Cube.017_vertices#0_POSITION"},{"bufferView":5,"byteOffset":299064,"componentType":5120,"count":3861,"type":"VEC4","name":"Cube.017_vertices#0_TANGENT"},{"bufferView":5,"byteOffset":299068,"componentType":5120,"count":3861,"type":"VEC4","name":"Cube.017_vertices#0_NORMAL"},{"bufferView":5,"byteOffset":299072,"componentType":5122,"count":3861,"type":"VEC2","name":"Cube.017_vertices#0_TEXCOORD_0"},{"bufferView":5,"byteOffset":299076,"componentType":5122,"count":3861,"type":"VEC2","name":"Cube.017_vertices#0_TEXCOORD_1"},{"bufferView":5,"byteOffset":299080,"componentType":5123,"count":3861,"type":"VEC4","name":"Cube.017_vertices#0_COLOR_0"},{"bufferView":6,"byteOffset":47964,"componentType":5123,"count":11574,"type":"SCALAR","name":"Cube.017_indices#1"}],"animations":[{"name":"Neoflycargo_flammable_u_4","channels":[{"sampler":0,"target":{"node":1,"path":"translation"}},{"sampler":1,"target":{"node":2,"path":"translation"}},{"sampler":2,"target":{"node":3,"path":"translation"}},{"sampler":3,"target":{"node":4,"path":"translation"}}],"samplers":[{"input":0,"output":1,"interpolation":"LINEAR"},{"input":0,"output":2,"interpolation":"LINEAR"},{"input":0,"output":3,"interpolation":"LINEAR"},{"input":0,"output":4,"interpolation":"LINEAR"}]}],"asset":{"generator":"Khronos glTF Blender I/O v1.8.19 and Asobo Studio MSFS Blender I/O v1.1.6","version":"2.0","extensions":{"ASOBO_asset_optimized":{"BoundingBoxMax":[0.64248126745224,0.8830344080924988,2.309396505355835],"BoundingBoxMin":[-0.6424797177314758,-0.02811548113822937,1.0906031131744385],"MajorVersion":4,"MinorVersion":4,"UseCheckerboardMaterialForMissingTextures":true,"UseOnlyFilenameForImageURI":true},"ASOBO_normal_map_convention":{"tangent_space_convention":"DirectX"}}},"bufferViews":[{"buffer":0,"byteLength":8004},{"buffer":0,"byteLength":24012,"byteOffset":8004},{"buffer":0,"byteLength":24012,"byteOffset":32016},{"buffer":0,"byteLength":24012,"byteOffset":56028},{"buffer":0,"byteLength":24012,"byteOffset":80040},{"buffer":0,"byteLength":438048,"byteStride":36,"byteOffset":104052,"target":34962,"name":"BufferViewVertexND"},{"buffer":0,"byteLength":71112,"byteOffset":542100,"target":34963,"name":"BufferViewIndex"}],"extensionsRequired":["MSFT_texture_dds"],"materials":[{"name":"cargo0A","normalTexture":{"index":0},"occlusionTexture":{"index":1},"pbrMetallicRoughness":{"baseColorFactor":[0.9999988079071044,0.9999989867210388,1.0,1.0],"baseColorTexture":{"index":2},"metallicRoughnessTexture":{"index":1}}},{"name":"cargo_tank_3a.001","normalTexture":{"index":3},"pbrMetallicRoughness":{"baseColorTexture":{"index":4}}},{"name":"cargo_tank_0","alphaMode":"BLEND","pbrMetallicRoughness":{"baseColorTexture":{"index":6}},"extensions":{"ASOBO_material_blend_gbuffer":{}}},{"name":"cargo_tank_2a.001","normalTexture":{"index":7},"pbrMetallicRoughness":{"baseColorTexture":{"index":8}}},{"name":"cargo_tank_1a.001","normalTexture":{"index":10},"pbrMetallicRoughness":{"baseColorTexture":{"index":11}}}],"meshes":[{"primitives":[{"attributes":{"COLOR_0":10,"NORMAL":7,"POSITION":5,"TANGENT":6,"TEXCOORD_0":8,"TEXCOORD_1":9},"indices":11,"material":0,"mode":4,"extras":{"ASOBO_primitive":{"PrimitiveCount":360,"VertexType":"VTX","VertexVersion":2}}}],"name":"Cube.052"},{"primitives":[{"attributes":{"COLOR_0":17,"NORMAL":14,"POSITION":12,"TANGENT":13,"TEXCOORD_0":15,"TEXCOORD_1":16},"indices":18,"material":1,"mode":4,"extras":{"ASOBO_primitive":{"PrimitiveCount":1882,"VertexType":"VTX","VertexVersion":2}}},{"attributes":{"COLOR_0":17,"NORMAL":14,"POSITION":12,"TANGENT":13,"TEXCOORD_0":15,"TEXCOORD_1":16},"indices":18,"material":2,"mode":4,"extras":{"ASOBO_primitive":{"PrimitiveCount":22,"StartIndex":5646,"VertexType":"VTX","VertexVersion":2}}}],"name":"Cube.002"},{"primitives":[{"attributes":{"COLOR_0":24,"NORMAL":21,"POSITION":19,"TANGENT":20,"TEXCOORD_0":22,"TEXCOORD_1":23},"indices":25,"material":3,"mode":4,"extras":{"ASOBO_primitive":{"PrimitiveCount":1850,"VertexType":"VTX","VertexVersion":2}}},{"attributes":{"COLOR_0":24,"NORMAL":21,"POSITION":19,"TANGENT":20,"TEXCOORD_0":22,"TEXCOORD_1":23},"indices":25,"material":2,"mode":4,"extras":{"ASOBO_primitive":{"PrimitiveCount":22,"StartIndex":5550,"VertexType":"VTX","VertexVersion":2}}}],"name":"Cube.014"},{"primitives":[{"attributes":{"COLOR_0":31,"NORMAL":28,"POSITION":26,"TANGENT":27,"TEXCOORD_0":29,"TEXCOORD_1":30},"indices":32,"material":4,"mode":4,"extras":{"ASOBO_primitive":{"PrimitiveCount":3832,"VertexType":"VTX","VertexVersion":2}}},{"attributes":{"COLOR_0":31,"NORMAL":28,"POSITION":26,"TANGENT":27,"TEXCOORD_0":29,"TEXCOORD_1":30},"indices":32,"material":2,"mode":4,"extras":{"ASOBO_primitive":{"PrimitiveCount":26,"StartIndex":11496,"VertexType":"VTX","VertexVersion":2}}}],"name":"Cube.016"},{"primitives":[{"attributes":{"COLOR_0":38,"NORMAL":35,"POSITION":33,"TANGENT":34,"TEXCOORD_0":36,"TEXCOORD_1":37},"indices":39,"material":4,"mode":4,"extras":{"ASOBO_primitive":{"PrimitiveCount":3832,"VertexType":"VTX","VertexVersion":2}}},{"attributes":{"COLOR_0":38,"NORMAL":35,"POSITION":33,"TANGENT":34,"TEXCOORD_0":36,"TEXCOORD_1":37},"indices":39,"material":2,"mode":4,"extras":{"ASOBO_primitive":{"PrimitiveCount":26,"StartIndex":11496,"VertexType":"VTX","VertexVersion":2}}}],"name":"Cube.017"}],"nodes":[{"mesh":0,"name":"Neoflycargo00"},{"translation":[0.0,-200.0,0.0],"mesh":1,"name":"Neoflycargo04.001"},{"translation":[0.0,-200.0,0.0],"mesh":2,"name":"Neoflycargo04.002"},{"translation":[0.0,-200.0,0.0],"mesh":3,"name":"Neoflycargo04.003"},{"translation":[0.0,-200.0,0.0],"mesh":4,"name":"Neoflycargo04.004"}],"scene":0,"scenes":[{"nodes":[0,1,2,3,4],"name":"Scene"}],"textures":[{"extensions":{"MSFT_texture_dds":{"source":0}}},{"extensions":{"MSFT_texture_dds":{"source":1}}},{"extensions":{"MSFT_texture_dds":{"source":2}}},{"extensions":{"MSFT_texture_dds":{"source":3}}},{"extensions":{"MSFT_texture_dds":{"source":4}}},{"sampler":0,"source":5},{"extensions":{"MSFT_texture_dds":{"source":6}}},{"extensions":{"MSFT_texture_dds":{"source":7}}},{"extensions":{"MSFT_texture_dds":{"source":8}}},{"sampler":0,"source":9},{"extensions":{"MSFT_texture_dds":{"source":10}}},{"extensions":{"MSFT_texture_dds":{"source":11}}},{"sampler":0,"source":12}],"samplers":[{"magFilter":9729,"minFilter":9987,"wrapS":10497,"wrapT":10497}],"extensionsUsed":["ASOBO_normal_map_convention","ASOBO_material_blend_gbuffer","MSFT_texture_dds","ASOBO_asset_optimized"],"buffers":[{"byteLength":613212,"uri":"Neoflycargo_flammable_u_4.bin"}],"images":[{"uri":"NEOFLY_CARGO0A_NORM.PNG.DDS","name":"neofly_cargo0a_norm","extras":"ASOBO_image_converted_meta"},{"uri":"NEOFLY_CARGO0A_COMP.PNG.DDS","name":"neofly_cargo0a_comp","extras":"ASOBO_image_converted_meta"},{"uri":"NEOFLY_CARGO0A_ALBD.PNG.DDS","name":"neofly_cargo0a_albd","extras":"ASOBO_image_converted_meta"},{"uri":"NEOFLY_CARGO7C_NORM.PNG.DDS","name":"neofly_cargo7c_norm","extras":"ASOBO_image_converted_meta"},{"uri":"NEOFLY_CARGO7C_ALBD.PNG.DDS","name":"neofly_cargo7c_albd","extras":"ASOBO_image_converted_meta"},{"uri":"neofly_cargo7c_comp.png","name":"neofly_cargo7c_comp"},{"uri":"NEOFLY_CARGO4D_ALBD.PNG.DDS","name":"neofly_cargo4d_albd","extras":"ASOBO_image_converted_meta"},{"uri":"NEOFLY_CARGO7B_NORM.PNG.DDS","name":"neofly_cargo7b_norm","extras":"ASOBO_image_converted_meta"},{"uri":"NEOFLY_CARGO7B_ALBD.PNG.DDS","name":"neofly_cargo7b_albd","extras":"ASOBO_image_converted_meta"},{"uri":"neofly_cargo7b_comp.png","name":"neofly_cargo7b_comp"},{"uri":"NEOFLY_CARGO7A_NORM.PNG.DDS","name":"neofly_cargo7a_norm","extras":"ASOBO_image_converted_meta"},{"uri":"NEOFLY_CARGO7A_ALBD.PNG.DDS","name":"neofly_cargo7a_albd","extras":"ASOBO_image_converted_meta"},{"uri":"neofly_cargo7a_comp.png","name":"neofly_cargo7a_comp"}]}
