{"accessors":[{"bufferView":0,"componentType":5126,"count":2001,"min":[0.0],"max":[83.33333333333333],"type":"SCALAR"},{"bufferView":1,"componentType":5126,"count":2001,"type":"VEC3"},{"bufferView":2,"componentType":5126,"count":2001,"type":"VEC3"},{"bufferView":3,"componentType":5126,"count":2000,"min":[0.0],"max":[83.29166666666667],"type":"SCALAR"},{"bufferView":4,"componentType":5126,"count":2000,"type":"VEC3"},{"bufferView":5,"componentType":5126,"count":670,"min":[-0.6424797177314758,-0.02811548113822937,1.0906031131744385],"max":[0.64248126745224,0.18248648941516877,2.309396505355835],"type":"VEC3","name":"Cube.052_vertices#0_POSITION"},{"bufferView":5,"byteOffset":12,"componentType":5120,"count":670,"type":"VEC4","name":"Cube.052_vertices#0_TANGENT"},{"bufferView":5,"byteOffset":16,"componentType":5120,"count":670,"type":"VEC4","name":"Cube.052_vertices#0_NORMAL"},{"bufferView":5,"byteOffset":20,"componentType":5122,"count":670,"type":"VEC2","name":"Cube.052_vertices#0_TEXCOORD_0"},{"bufferView":5,"byteOffset":24,"componentType":5122,"count":670,"type":"VEC2","name":"Cube.052_vertices#0_TEXCOORD_1"},{"bufferView":5,"byteOffset":28,"componentType":5123,"count":670,"type":"VEC4","name":"Cube.052_vertices#0_COLOR_0"},{"bufferView":6,"componentType":5123,"count":1080,"type":"SCALAR","name":"Cube.052_indices#0"},{"bufferView":5,"byteOffset":24120,"componentType":5126,"count":7620,"min":[-0.7318156361579895,-0.2260453850030899,-0.2320423126220703],"max":[0.19685809314250947,0.22587211430072785,0.23012469708919526],"type":"VEC3","name":"Cube.028_vertices#0_POSITION"},{"bufferView":5,"byteOffset":24132,"componentType":5120,"count":7620,"type":"VEC4","name":"Cube.028_vertices#0_TANGENT"},{"bufferView":5,"byteOffset":24136,"componentType":5120,"count":7620,"type":"VEC4","name":"Cube.028_vertices#0_NORMAL"},{"bufferView":5,"byteOffset":24140,"componentType":5122,"count":7620,"type":"VEC2","name":"Cube.028_vertices#0_TEXCOORD_0"},{"bufferView":5,"byteOffset":24144,"componentType":5122,"count":7620,"type":"VEC2","name":"Cube.028_vertices#0_TEXCOORD_1"},{"bufferView":5,"byteOffset":24148,"componentType":5123,"count":7620,"type":"VEC4","name":"Cube.028_vertices#0_COLOR_0"},{"bufferView":6,"byteOffset":2160,"componentType":5123,"count":13416,"type":"SCALAR","name":"Cube.028_indices#4"},{"bufferView":5,"byteOffset":298440,"componentType":5126,"count":7622,"min":[-0.19698014855384828,-0.2260453850030899,-0.2320423424243927],"max":[0.7316935658454895,0.22587211430072785,0.23012469708919526],"type":"VEC3","name":"Cube.041_vertices#0_POSITION"},{"bufferView":5,"byteOffset":298452,"componentType":5120,"count":7622,"type":"VEC4","name":"Cube.041_vertices#0_TANGENT"},{"bufferView":5,"byteOffset":298456,"componentType":5120,"count":7622,"type":"VEC4","name":"Cube.041_vertices#0_NORMAL"},{"bufferView":5,"byteOffset":298460,"componentType":5122,"count":7622,"type":"VEC2","name":"Cube.041_vertices#0_TEXCOORD_0"},{"bufferView":5,"byteOffset":298464,"componentType":5122,"count":7622,"type":"VEC2","name":"Cube.041_vertices#0_TEXCOORD_1"},{"bufferView":5,"byteOffset":298468,"componentType":5123,"count":7622,"type":"VEC4","name":"Cube.041_vertices#0_COLOR_0"},{"bufferView":6,"byteOffset":28992,"componentType":5123,"count":13416,"type":"SCALAR","name":"Cube.041_indices#4"},{"bufferView":5,"byteOffset":572832,"componentType":5126,"count":7622,"min":[-0.19698014855384828,-0.2260453850030899,-0.2320423126220703],"max":[0.7316935658454895,0.22587211430072785,0.23012469708919526],"type":"VEC3","name":"Cube.093_vertices#0_POSITION"},{"bufferView":5,"byteOffset":572844,"componentType":5120,"count":7622,"type":"VEC4","name":"Cube.093_vertices#0_TANGENT"},{"bufferView":5,"byteOffset":572848,"componentType":5120,"count":7622,"type":"VEC4","name":"Cube.093_vertices#0_NORMAL"},{"bufferView":5,"byteOffset":572852,"componentType":5122,"count":7622,"type":"VEC2","name":"Cube.093_vertices#0_TEXCOORD_0"},{"bufferView":5,"byteOffset":572856,"componentType":5122,"count":7622,"type":"VEC2","name":"Cube.093_vertices#0_TEXCOORD_1"},{"bufferView":5,"byteOffset":572860,"componentType":5123,"count":7622,"type":"VEC4","name":"Cube.093_vertices#0_COLOR_0"},{"bufferView":6,"byteOffset":55824,"componentType":5123,"count":13416,"type":"SCALAR","name":"Cube.093_indices#4"}],"animations":[{"name":"Neoflycargo_fragile_l_3","channels":[{"sampler":0,"target":{"node":1,"path":"translation"}},{"sampler":1,"target":{"node":2,"path":"translation"}},{"sampler":2,"target":{"node":3,"path":"translation"}}],"samplers":[{"input":0,"output":1,"interpolation":"LINEAR"},{"input":0,"output":2,"interpolation":"LINEAR"},{"input":3,"output":4,"interpolation":"LINEAR"}]}],"asset":{"generator":"Khronos glTF Blender I/O v1.8.19 and Asobo Studio MSFS Blender I/O v1.1.6","version":"2.0","extensions":{"ASOBO_asset_optimized":{"BoundingBoxMax":[0.7149766683578491,0.22845232486724854,2.309396505355835],"BoundingBoxMin":[-0.7150959372520447,-0.22862757742404939,-0.23469305038452149],"MajorVersion":4,"MinorVersion":4,"UseCheckerboardMaterialForMissingTextures":true,"UseOnlyFilenameForImageURI":true},"ASOBO_normal_map_convention":{"tangent_space_convention":"DirectX"}}},"bufferViews":[{"buffer":0,"byteLength":8004},{"buffer":0,"byteLength":24012,"byteOffset":8004},{"buffer":0,"byteLength":24012,"byteOffset":32016},{"buffer":0,"byteLength":8000,"byteOffset":56028},{"buffer":0,"byteLength":24000,"byteOffset":64028},{"buffer":0,"byteLength":847224,"byteStride":36,"byteOffset":88028,"target":34962,"name":"BufferViewVertexND"},{"buffer":0,"byteLength":82656,"byteOffset":935252,"target":34963,"name":"BufferViewIndex"}],"extensionsRequired":["MSFT_texture_dds"],"materials":[{"name":"cargo0A","normalTexture":{"index":0},"occlusionTexture":{"index":1},"pbrMetallicRoughness":{"baseColorFactor":[0.9999988079071044,0.9999989867210388,1.0,1.0],"baseColorTexture":{"index":2},"metallicRoughnessTexture":{"index":1}}},{"name":"cargo_crate1h.003","normalTexture":{"index":3},"pbrMetallicRoughness":{"baseColorTexture":{"index":4}}},{"name":"cargo_crate1a.003","pbrMetallicRoughness":{"baseColorFactor":[0.36722472310066225,0.1712014228105545,0.10609718412160872,1.0],"roughnessFactor":0.44999998807907107}},{"name":"cargo_crate1f.003","alphaMode":"BLEND","pbrMetallicRoughness":{"baseColorTexture":{"index":6}},"extensions":{"ASOBO_material_blend_gbuffer":{}}},{"name":"cargo_crate1j.001","alphaMode":"BLEND","pbrMetallicRoughness":{"baseColorTexture":{"index":7}},"extensions":{"ASOBO_material_blend_gbuffer":{}}},{"name":"cargo_crate1k","alphaMode":"BLEND","pbrMetallicRoughness":{"baseColorTexture":{"index":8}},"extensions":{"ASOBO_material_blend_gbuffer":{}}}],"meshes":[{"primitives":[{"attributes":{"COLOR_0":10,"NORMAL":7,"POSITION":5,"TANGENT":6,"TEXCOORD_0":8,"TEXCOORD_1":9},"indices":11,"material":0,"mode":4,"extras":{"ASOBO_primitive":{"PrimitiveCount":360,"VertexType":"VTX","VertexVersion":2}}}],"name":"Cube.052"},{"primitives":[{"attributes":{"COLOR_0":17,"NORMAL":14,"POSITION":12,"TANGENT":13,"TEXCOORD_0":15,"TEXCOORD_1":16},"indices":18,"material":1,"mode":4,"extras":{"ASOBO_primitive":{"PrimitiveCount":1296,"VertexType":"VTX","VertexVersion":2}}},{"attributes":{"COLOR_0":17,"NORMAL":14,"POSITION":12,"TANGENT":13,"TEXCOORD_0":15,"TEXCOORD_1":16},"indices":18,"material":2,"mode":4,"extras":{"ASOBO_primitive":{"PrimitiveCount":3080,"StartIndex":3888,"VertexType":"VTX","VertexVersion":2}}},{"attributes":{"COLOR_0":17,"NORMAL":14,"POSITION":12,"TANGENT":13,"TEXCOORD_0":15,"TEXCOORD_1":16},"indices":18,"material":3,"mode":4,"extras":{"ASOBO_primitive":{"PrimitiveCount":8,"StartIndex":13128,"VertexType":"VTX","VertexVersion":2}}},{"attributes":{"COLOR_0":17,"NORMAL":14,"POSITION":12,"TANGENT":13,"TEXCOORD_0":15,"TEXCOORD_1":16},"indices":18,"material":4,"mode":4,"extras":{"ASOBO_primitive":{"PrimitiveCount":32,"StartIndex":13152,"VertexType":"VTX","VertexVersion":2}}},{"attributes":{"COLOR_0":17,"NORMAL":14,"POSITION":12,"TANGENT":13,"TEXCOORD_0":15,"TEXCOORD_1":16},"indices":18,"material":5,"mode":4,"extras":{"ASOBO_primitive":{"PrimitiveCount":56,"StartIndex":13248,"VertexType":"VTX","VertexVersion":2}}}],"name":"Cube.028"},{"primitives":[{"attributes":{"COLOR_0":24,"NORMAL":21,"POSITION":19,"TANGENT":20,"TEXCOORD_0":22,"TEXCOORD_1":23},"indices":25,"material":1,"mode":4,"extras":{"ASOBO_primitive":{"PrimitiveCount":1296,"VertexType":"VTX","VertexVersion":2}}},{"attributes":{"COLOR_0":24,"NORMAL":21,"POSITION":19,"TANGENT":20,"TEXCOORD_0":22,"TEXCOORD_1":23},"indices":25,"material":2,"mode":4,"extras":{"ASOBO_primitive":{"PrimitiveCount":3080,"StartIndex":3888,"VertexType":"VTX","VertexVersion":2}}},{"attributes":{"COLOR_0":24,"NORMAL":21,"POSITION":19,"TANGENT":20,"TEXCOORD_0":22,"TEXCOORD_1":23},"indices":25,"material":3,"mode":4,"extras":{"ASOBO_primitive":{"PrimitiveCount":8,"StartIndex":13128,"VertexType":"VTX","VertexVersion":2}}},{"attributes":{"COLOR_0":24,"NORMAL":21,"POSITION":19,"TANGENT":20,"TEXCOORD_0":22,"TEXCOORD_1":23},"indices":25,"material":4,"mode":4,"extras":{"ASOBO_primitive":{"PrimitiveCount":32,"StartIndex":13152,"VertexType":"VTX","VertexVersion":2}}},{"attributes":{"COLOR_0":24,"NORMAL":21,"POSITION":19,"TANGENT":20,"TEXCOORD_0":22,"TEXCOORD_1":23},"indices":25,"material":5,"mode":4,"extras":{"ASOBO_primitive":{"PrimitiveCount":56,"StartIndex":13248,"VertexType":"VTX","VertexVersion":2}}}],"name":"Cube.041"},{"primitives":[{"attributes":{"COLOR_0":31,"NORMAL":28,"POSITION":26,"TANGENT":27,"TEXCOORD_0":29,"TEXCOORD_1":30},"indices":32,"material":1,"mode":4,"extras":{"ASOBO_primitive":{"PrimitiveCount":1296,"VertexType":"VTX","VertexVersion":2}}},{"attributes":{"COLOR_0":31,"NORMAL":28,"POSITION":26,"TANGENT":27,"TEXCOORD_0":29,"TEXCOORD_1":30},"indices":32,"material":2,"mode":4,"extras":{"ASOBO_primitive":{"PrimitiveCount":3080,"StartIndex":3888,"VertexType":"VTX","VertexVersion":2}}},{"attributes":{"COLOR_0":31,"NORMAL":28,"POSITION":26,"TANGENT":27,"TEXCOORD_0":29,"TEXCOORD_1":30},"indices":32,"material":3,"mode":4,"extras":{"ASOBO_primitive":{"PrimitiveCount":8,"StartIndex":13128,"VertexType":"VTX","VertexVersion":2}}},{"attributes":{"COLOR_0":31,"NORMAL":28,"POSITION":26,"TANGENT":27,"TEXCOORD_0":29,"TEXCOORD_1":30},"indices":32,"material":4,"mode":4,"extras":{"ASOBO_primitive":{"PrimitiveCount":32,"StartIndex":13152,"VertexType":"VTX","VertexVersion":2}}},{"attributes":{"COLOR_0":31,"NORMAL":28,"POSITION":26,"TANGENT":27,"TEXCOORD_0":29,"TEXCOORD_1":30},"indices":32,"material":5,"mode":4,"extras":{"ASOBO_primitive":{"PrimitiveCount":56,"StartIndex":13248,"VertexType":"VTX","VertexVersion":2}}}],"name":"Cube.093"}],"nodes":[{"mesh":0,"name":"Neoflycargo00"},{"translation":[0.283549427986145,0.4039724469184875,1.964231014251709],"rotation":[0.0,-0.7071068286895752,0.0,0.7071068286895752],"scale":[0.9661168456077576,1.0,1.0],"mesh":1,"name":"Neoflycargo-fragile.002"},{"translation":[-0.28577348589897158,0.4039724469184875,1.4354360103607178],"rotation":[0.0,-0.7071068286895752,0.0,0.7071068286895752],"scale":[0.9661168456077576,1.0,1.0],"mesh":2,"name":"Neoflycargo-fragile.003"},{"translation":[0.2835494577884674,0.8493126630783081,1.4354360103607178],"rotation":[0.0,-0.7071068286895752,0.0,0.7071068286895752],"scale":[0.9661168456077576,1.0,1.0],"mesh":3,"name":"Neoflycargo-fragile.005"}],"scene":0,"scenes":[{"nodes":[0,1,2,3],"name":"Scene"}],"textures":[{"extensions":{"MSFT_texture_dds":{"source":0}}},{"extensions":{"MSFT_texture_dds":{"source":1}}},{"extensions":{"MSFT_texture_dds":{"source":2}}},{"extensions":{"MSFT_texture_dds":{"source":3}}},{"extensions":{"MSFT_texture_dds":{"source":4}}},{"sampler":0,"source":5},{"extensions":{"MSFT_texture_dds":{"source":6}}},{"extensions":{"MSFT_texture_dds":{"source":7}}},{"extensions":{"MSFT_texture_dds":{"source":8}}}],"samplers":[{"magFilter":9729,"minFilter":9987,"wrapS":10497,"wrapT":10497}],"extensionsUsed":["ASOBO_normal_map_convention","ASOBO_material_blend_gbuffer","MSFT_texture_dds","ASOBO_asset_optimized"],"buffers":[{"byteLength":1017908,"uri":"Neoflycargo_fragile_l_3.bin"}],"images":[{"uri":"NEOFLY_CARGO0A_NORM.PNG.DDS","name":"neofly_cargo0a_norm","extras":"ASOBO_image_converted_meta"},{"uri":"NEOFLY_CARGO0A_COMP.PNG.DDS","name":"neofly_cargo0a_comp","extras":"ASOBO_image_converted_meta"},{"uri":"NEOFLY_CARGO0A_ALBD.PNG.DDS","name":"neofly_cargo0a_albd","extras":"ASOBO_image_converted_meta"},{"uri":"NEOFLY_CARGO8H_NORM.PNG.DDS","name":"neofly_cargo8h_norm","extras":"ASOBO_image_converted_meta"},{"uri":"NEOFLY_CARGO8H_ALBD.PNG.DDS","name":"neofly_cargo8h_albd","extras":"ASOBO_image_converted_meta"},{"uri":"neofly_cargo8h_comp.png","name":"neofly_cargo8h_comp"},{"uri":"NEOFLY_CARGO8F_ALBD.PNG.DDS","name":"neofly_cargo8f_albd","extras":"ASOBO_image_converted_meta"},{"uri":"NEOFLY_CARGO8J_ALBD.PNG.DDS","name":"neofly_cargo8j_albd","extras":"ASOBO_image_converted_meta"},{"uri":"NEOFLY_FRAGILE_ALBD.PNG.DDS","name":"neofly_fragile_albd","extras":"ASOBO_image_converted_meta"}]}
