{"accessors":[{"bufferView":0,"componentType":5126,"count":1015,"min":[-143.94578552246095,-910.1928100585938,-320.74920654296877],"max":[143.94578552246095,389.00494384765627,-0.9378315210342407],"type":"VEC3","name":"Mesh_vertices#0_POSITION"},{"bufferView":0,"byteOffset":12,"componentType":5120,"count":1015,"type":"VEC4","name":"Mesh_vertices#0_TANGENT"},{"bufferView":0,"byteOffset":16,"componentType":5120,"count":1015,"type":"VEC4","name":"Mesh_vertices#0_NORMAL"},{"bufferView":0,"byteOffset":20,"componentType":5122,"count":1015,"type":"VEC2","name":"Mesh_vertices#0_TEXCOORD_0"},{"bufferView":0,"byteOffset":24,"componentType":5122,"count":1015,"type":"VEC2","name":"Mesh_vertices#0_TEXCOORD_1"},{"bufferView":0,"byteOffset":28,"componentType":5123,"count":1015,"type":"VEC4","name":"Mesh_vertices#0_COLOR_0"},{"bufferView":1,"componentType":5123,"count":3108,"type":"SCALAR","name":"Mesh_indices#1"},{"bufferView":0,"byteOffset":36540,"componentType":5126,"count":65,"min":[12.42435359954834,-1000.5337524414063,-398.540771484375],"max":[41.00870132446289,-762.4965209960938,-217.17955017089845],"type":"VEC3","name":"Mesh.001_vertices#0_POSITION"},{"bufferView":0,"byteOffset":36552,"componentType":5120,"count":65,"type":"VEC4","name":"Mesh.001_vertices#0_TANGENT"},{"bufferView":0,"byteOffset":36556,"componentType":5120,"count":65,"type":"VEC4","name":"Mesh.001_vertices#0_NORMAL"},{"bufferView":0,"byteOffset":36560,"componentType":5122,"count":65,"type":"VEC2","name":"Mesh.001_vertices#0_TEXCOORD_0"},{"bufferView":0,"byteOffset":36564,"componentType":5122,"count":65,"type":"VEC2","name":"Mesh.001_vertices#0_TEXCOORD_1"},{"bufferView":0,"byteOffset":36568,"componentType":5123,"count":65,"type":"VEC4","name":"Mesh.001_vertices#0_COLOR_0"},{"bufferView":1,"byteOffset":6216,"componentType":5123,"count":192,"type":"SCALAR","name":"Mesh.001_indices#0"},{"bufferView":0,"byteOffset":38880,"componentType":5126,"count":614,"min":[-135.01910400390626,-272.69268798828127,-248.91355895996095],"max":[135.01910400390626,385.60382080078127,-42.59955978393555],"type":"VEC3","name":"Mesh.003_vertices#0_POSITION"},{"bufferView":0,"byteOffset":38892,"componentType":5120,"count":614,"type":"VEC4","name":"Mesh.003_vertices#0_TANGENT"},{"bufferView":0,"byteOffset":38896,"componentType":5120,"count":614,"type":"VEC4","name":"Mesh.003_vertices#0_NORMAL"},{"bufferView":0,"byteOffset":38900,"componentType":5122,"count":614,"type":"VEC2","name":"Mesh.003_vertices#0_TEXCOORD_0"},{"bufferView":0,"byteOffset":38904,"componentType":5122,"count":614,"type":"VEC2","name":"Mesh.003_vertices#0_TEXCOORD_1"},{"bufferView":0,"byteOffset":38908,"componentType":5123,"count":614,"type":"VEC4","name":"Mesh.003_vertices#0_COLOR_0"},{"bufferView":1,"byteOffset":6600,"componentType":5123,"count":1806,"type":"SCALAR","name":"Mesh.003_indices#1"},{"bufferView":0,"byteOffset":60984,"componentType":5126,"count":320,"min":[-374.2051696777344,-665.0941772460938,-401.7622375488281],"max":[374.2051696777344,665.0941772460938,-245.57931518554688],"type":"VEC3","name":"Mesh.002_vertices#0_POSITION"},{"bufferView":0,"byteOffset":60996,"componentType":5120,"count":320,"type":"VEC4","name":"Mesh.002_vertices#0_TANGENT"},{"bufferView":0,"byteOffset":61000,"componentType":5120,"count":320,"type":"VEC4","name":"Mesh.002_vertices#0_NORMAL"},{"bufferView":0,"byteOffset":61004,"componentType":5122,"count":320,"type":"VEC2","name":"Mesh.002_vertices#0_TEXCOORD_0"},{"bufferView":0,"byteOffset":61008,"componentType":5122,"count":320,"type":"VEC2","name":"Mesh.002_vertices#0_TEXCOORD_1"},{"bufferView":0,"byteOffset":61012,"componentType":5123,"count":320,"type":"VEC4","name":"Mesh.002_vertices#0_COLOR_0"},{"bufferView":1,"byteOffset":10212,"componentType":5123,"count":936,"type":"SCALAR","name":"Mesh.002_indices#0"}],"asset":{"generator":"Extended Khronos glTF Blender I/O v1.0.0","version":"2.0","extensions":{"ASOBO_asset_optimized":{"BoundingBoxMax":[374.2051696777344,665.0941772460938,-0.9378315210342407],"BoundingBoxMin":[-374.2051696777344,-1000.5337524414063,-401.7622375488281],"MajorVersion":4,"MinorVersion":2},"ASOBO_normal_map_convention":{"tangent_space_convention":"DirectX"}}},"bufferViews":[{"buffer":0,"byteLength":72504,"byteStride":36,"target":34962,"name":"BufferViewVertexND"},{"buffer":0,"byteLength":12084,"byteOffset":72504,"target":34963,"name":"BufferViewIndex"}],"extensionsUsed":["ASOBO_normal_map_convention","MSFT_texture_dds","ASOBO_asset_optimized"],"extensionsRequired":["MSFT_texture_dds"],"materials":[{"name":"lambert1","doubleSided":true,"pbrMetallicRoughness":{"metallicFactor":0.0,"roughnessFactor":0.5527864098548889,"baseColorTexture":{"index":0}}},{"name":"Material.002","pbrMetallicRoughness":{"baseColorFactor":[0.0,0.0,0.0,1.0],"metallicFactor":0.0,"roughnessFactor":0.5}},{"name":"Material.003","alphaMode":"BLEND","pbrMetallicRoughness":{"baseColorFactor":[0.0,0.0,0.0,0.5],"roughnessFactor":0.20000000298023225}},{"name":"Material.001","pbrMetallicRoughness":{"metallicFactor":0.0,"roughnessFactor":0.5,"baseColorTexture":{"index":1}}},{"name":"Material.004","pbrMetallicRoughness":{"baseColorFactor":[0.0,0.0,0.0,1.0],"metallicFactor":0.0,"roughnessFactor":0.05000000074505806}}],"meshes":[{"primitives":[{"attributes":{"COLOR_0":12,"NORMAL":9,"POSITION":7,"TANGENT":8,"TEXCOORD_0":10,"TEXCOORD_1":11},"indices":13,"material":0,"mode":4,"extras":{"ASOBO_primitive":{"PrimitiveCount":64,"VertexType":"VTX","VertexVersion":2}}}],"name":"Mesh.001"},{"primitives":[{"attributes":{"COLOR_0":19,"NORMAL":16,"POSITION":14,"TANGENT":15,"TEXCOORD_0":17,"TEXCOORD_1":18},"indices":20,"material":1,"mode":4,"extras":{"ASOBO_primitive":{"PrimitiveCount":511,"VertexType":"VTX","VertexVersion":2}}},{"attributes":{"COLOR_0":19,"NORMAL":16,"POSITION":14,"TANGENT":15,"TEXCOORD_0":17,"TEXCOORD_1":18},"indices":20,"material":2,"mode":4,"extras":{"ASOBO_primitive":{"PrimitiveCount":91,"StartIndex":1533,"VertexType":"VTX","VertexVersion":2}}}],"name":"Mesh.003"},{"primitives":[{"attributes":{"COLOR_0":26,"NORMAL":23,"POSITION":21,"TANGENT":22,"TEXCOORD_0":24,"TEXCOORD_1":25},"indices":27,"material":0,"mode":4,"extras":{"ASOBO_primitive":{"PrimitiveCount":312,"VertexType":"VTX","VertexVersion":2}}}],"name":"Mesh.002"},{"primitives":[{"attributes":{"COLOR_0":5,"NORMAL":2,"POSITION":0,"TANGENT":1,"TEXCOORD_0":3,"TEXCOORD_1":4},"indices":6,"material":3,"mode":4,"extras":{"ASOBO_primitive":{"PrimitiveCount":943,"VertexType":"VTX","VertexVersion":2}}},{"attributes":{"COLOR_0":5,"NORMAL":2,"POSITION":0,"TANGENT":1,"TEXCOORD_0":3,"TEXCOORD_1":4},"indices":6,"material":4,"mode":4,"extras":{"ASOBO_primitive":{"PrimitiveCount":93,"StartIndex":2829,"VertexType":"VTX","VertexVersion":2}}}],"name":"Mesh"}],"nodes":[{"mesh":0,"name":"Back_Rotor"},{"mesh":1,"name":"Inside1"},{"rotation":[-0.0008962503634393215,0.0,0.1705484539270401,0.9853488802909852],"mesh":2,"name":"Top_Rotor"},{"translation":[-0.190526083111763,1.3881183862686156,-0.10887198150157929],"rotation":[0.5013120770454407,-0.4986844658851623,-0.4986845552921295,0.5013120174407959],"scale":[0.009999999776482582,0.009999999776482582,0.009999999776482582],"mesh":3,"name":"Bell_Huey","children":[0,1,2]}],"scene":0,"scenes":[{"nodes":[3],"name":"Scene"}],"textures":[{"extensions":{"MSFT_texture_dds":{"source":0}}},{"extensions":{"MSFT_texture_dds":{"source":1}}}],"buffers":[{"byteLength":84588,"uri":"Neoflycrashedplane10.bin"}],"images":[{"uri":"FILE2.PNG.DDS","name":"file2","extras":"ASOBO_image_converted_meta"},{"uri":"HUEYTXTR3.PNG.DDS","name":"HueyTXTR3","extras":"ASOBO_image_converted_meta"}]}
