{"accessors":[{"bufferView":0,"componentType":5126,"count":15779,"min":[186.56060791015626,20.04167938232422,-70.06781768798828],"max":[474.3621826171875,258.3868408203125,70.48589324951172],"type":"VEC3","name":"Mesh.001_vertices#0_POSITION"},{"bufferView":0,"byteOffset":12,"componentType":5120,"count":15779,"type":"VEC4","name":"Mesh.001_vertices#0_TANGENT"},{"bufferView":0,"byteOffset":16,"componentType":5120,"count":15779,"type":"VEC4","name":"Mesh.001_vertices#0_NORMAL"},{"bufferView":0,"byteOffset":20,"componentType":5122,"count":15779,"type":"VEC2","name":"Mesh.001_vertices#0_TEXCOORD_0"},{"bufferView":0,"byteOffset":24,"componentType":5122,"count":15779,"type":"VEC2","name":"Mesh.001_vertices#0_TEXCOORD_1"},{"bufferView":0,"byteOffset":28,"componentType":5123,"count":15779,"type":"VEC4","name":"Mesh.001_vertices#0_COLOR_0"},{"bufferView":1,"componentType":5123,"count":16047,"type":"SCALAR","name":"Mesh.001_indices#0"},{"bufferView":0,"byteOffset":568044,"componentType":5126,"count":914,"min":[71.17276000976563,-0.046436309814453128,-54.096500396728519],"max":[201.6245880126953,110.21333312988281,54.162227630615237],"type":"VEC3","name":"Mesh.003_vertices#0_POSITION"},{"bufferView":0,"byteOffset":568056,"componentType":5120,"count":914,"type":"VEC4","name":"Mesh.003_vertices#0_TANGENT"},{"bufferView":0,"byteOffset":568060,"componentType":5120,"count":914,"type":"VEC4","name":"Mesh.003_vertices#0_NORMAL"},{"bufferView":0,"byteOffset":568064,"componentType":5122,"count":914,"type":"VEC2","name":"Mesh.003_vertices#0_TEXCOORD_0"},{"bufferView":0,"byteOffset":568068,"componentType":5122,"count":914,"type":"VEC2","name":"Mesh.003_vertices#0_TEXCOORD_1"},{"bufferView":0,"byteOffset":568072,"componentType":5123,"count":914,"type":"VEC4","name":"Mesh.003_vertices#0_COLOR_0"},{"bufferView":1,"byteOffset":32094,"componentType":5123,"count":936,"type":"SCALAR","name":"Mesh.003_indices#0"},{"bufferView":0,"byteOffset":600948,"componentType":5126,"count":4104,"min":[-38.23626708984375,-36.923583984375,-72.10453796386719],"max":[38.236663818359378,38.1954345703125,72.10485076904297],"type":"VEC3","name":"Mesh.005_vertices#0_POSITION"},{"bufferView":0,"byteOffset":600960,"componentType":5120,"count":4104,"type":"VEC4","name":"Mesh.005_vertices#0_TANGENT"},{"bufferView":0,"byteOffset":600964,"componentType":5120,"count":4104,"type":"VEC4","name":"Mesh.005_vertices#0_NORMAL"},{"bufferView":0,"byteOffset":600968,"componentType":5122,"count":4104,"type":"VEC2","name":"Mesh.005_vertices#0_TEXCOORD_0"},{"bufferView":0,"byteOffset":600972,"componentType":5122,"count":4104,"type":"VEC2","name":"Mesh.005_vertices#0_TEXCOORD_1"},{"bufferView":0,"byteOffset":600976,"componentType":5123,"count":4104,"type":"VEC4","name":"Mesh.005_vertices#0_COLOR_0"},{"bufferView":1,"byteOffset":33966,"componentType":5123,"count":4200,"type":"SCALAR","name":"Mesh.005_indices#0"},{"bufferView":0,"byteOffset":748692,"componentType":5126,"count":3816,"min":[-31.66656494140625,-30.50511932373047,-61.20494079589844],"max":[31.666656494140626,31.641151428222658,61.20444869995117],"type":"VEC3","name":"Mesh.006_vertices#0_POSITION"},{"bufferView":0,"byteOffset":748704,"componentType":5120,"count":3816,"type":"VEC4","name":"Mesh.006_vertices#0_TANGENT"},{"bufferView":0,"byteOffset":748708,"componentType":5120,"count":3816,"type":"VEC4","name":"Mesh.006_vertices#0_NORMAL"},{"bufferView":0,"byteOffset":748712,"componentType":5122,"count":3816,"type":"VEC2","name":"Mesh.006_vertices#0_TEXCOORD_0"},{"bufferView":0,"byteOffset":748716,"componentType":5122,"count":3816,"type":"VEC2","name":"Mesh.006_vertices#0_TEXCOORD_1"},{"bufferView":0,"byteOffset":748720,"componentType":5123,"count":3816,"type":"VEC4","name":"Mesh.006_vertices#0_COLOR_0"},{"bufferView":1,"byteOffset":42366,"componentType":5123,"count":3816,"type":"SCALAR","name":"Mesh.006_indices#0"},{"bufferView":0,"byteOffset":886068,"componentType":5126,"count":21,"min":[306.19537353515627,33.73515319824219,63.88838195800781],"max":[389.9107360839844,73.861572265625,65.748046875],"type":"VEC3","name":"Mesh.007_vertices#0_POSITION"},{"bufferView":0,"byteOffset":886080,"componentType":5120,"count":21,"type":"VEC4","name":"Mesh.007_vertices#0_TANGENT"},{"bufferView":0,"byteOffset":886084,"componentType":5120,"count":21,"type":"VEC4","name":"Mesh.007_vertices#0_NORMAL"},{"bufferView":0,"byteOffset":886088,"componentType":5122,"count":21,"type":"VEC2","name":"Mesh.007_vertices#0_TEXCOORD_0"},{"bufferView":0,"byteOffset":886092,"componentType":5122,"count":21,"type":"VEC2","name":"Mesh.007_vertices#0_TEXCOORD_1"},{"bufferView":0,"byteOffset":886096,"componentType":5123,"count":21,"type":"VEC4","name":"Mesh.007_vertices#0_COLOR_0"},{"bufferView":1,"byteOffset":49998,"componentType":5123,"count":21,"type":"SCALAR","name":"Mesh.007_indices#0"},{"bufferView":0,"byteOffset":886824,"componentType":5126,"count":24,"min":[306.19537353515627,33.73515319824219,-65.32997131347656],"max":[362.810546875,73.8365478515625,-63.47031021118164],"type":"VEC3","name":"Mesh.008_vertices#0_POSITION"},{"bufferView":0,"byteOffset":886836,"componentType":5120,"count":24,"type":"VEC4","name":"Mesh.008_vertices#0_TANGENT"},{"bufferView":0,"byteOffset":886840,"componentType":5120,"count":24,"type":"VEC4","name":"Mesh.008_vertices#0_NORMAL"},{"bufferView":0,"byteOffset":886844,"componentType":5122,"count":24,"type":"VEC2","name":"Mesh.008_vertices#0_TEXCOORD_0"},{"bufferView":0,"byteOffset":886848,"componentType":5122,"count":24,"type":"VEC2","name":"Mesh.008_vertices#0_TEXCOORD_1"},{"bufferView":0,"byteOffset":886852,"componentType":5123,"count":24,"type":"VEC4","name":"Mesh.008_vertices#0_COLOR_0"},{"bufferView":1,"byteOffset":50040,"componentType":5123,"count":30,"type":"SCALAR","name":"Mesh.008_indices#0"}],"asset":{"generator":"Khronos glTF Blender I/O v1.8.19 and Asobo Studio MSFS Blender I/O v1.1.6","version":"2.0","extensions":{"ASOBO_asset_optimized":{"BoundingBoxMax":[474.3621826171875,258.3868408203125,72.10485076904297],"BoundingBoxMin":[-38.23626708984375,-36.923583984375,-72.10453796386719],"MajorVersion":4,"MinorVersion":4,"UseCheckerboardMaterialForMissingTextures":true,"UseOnlyFilenameForImageURI":true},"ASOBO_normal_map_convention":{"tangent_space_convention":"DirectX"}}},"bufferViews":[{"buffer":0,"byteLength":887688,"byteStride":36,"target":34962,"name":"BufferViewVertexND"},{"buffer":0,"byteLength":50100,"byteOffset":887688,"target":34963,"name":"BufferViewIndex"}],"extensionsRequired":["MSFT_texture_dds"],"materials":[{"name":"ForkLift","normalTexture":{"index":1},"occlusionTexture":{"index":2},"emissiveTexture":{"index":0},"emissiveFactor":[1.0,1.0,1.0],"pbrMetallicRoughness":{"baseColorTexture":{"index":3},"metallicRoughnessTexture":{"index":2}}},{"name":"cargo12c","alphaMode":"BLEND","pbrMetallicRoughness":{"baseColorTexture":{"index":4}},"extensions":{"ASOBO_material_blend_gbuffer":{}}}],"meshes":[{"primitives":[{"attributes":{"COLOR_0":12,"NORMAL":9,"POSITION":7,"TANGENT":8,"TEXCOORD_0":10,"TEXCOORD_1":11},"indices":13,"material":0,"mode":4,"extras":{"ASOBO_primitive":{"PrimitiveCount":312,"VertexType":"VTX","VertexVersion":2}}}],"name":"Mesh.003"},{"primitives":[{"attributes":{"COLOR_0":19,"NORMAL":16,"POSITION":14,"TANGENT":15,"TEXCOORD_0":17,"TEXCOORD_1":18},"indices":20,"material":0,"mode":4,"extras":{"ASOBO_primitive":{"PrimitiveCount":1400,"VertexType":"VTX","VertexVersion":2}}}],"name":"Mesh.005"},{"primitives":[{"attributes":{"COLOR_0":26,"NORMAL":23,"POSITION":21,"TANGENT":22,"TEXCOORD_0":24,"TEXCOORD_1":25},"indices":27,"material":0,"mode":4,"extras":{"ASOBO_primitive":{"PrimitiveCount":1272,"VertexType":"VTX","VertexVersion":2}}}],"name":"Mesh.006"},{"primitives":[{"attributes":{"COLOR_0":5,"NORMAL":2,"POSITION":0,"TANGENT":1,"TEXCOORD_0":3,"TEXCOORD_1":4},"indices":6,"material":0,"mode":4,"extras":{"ASOBO_primitive":{"PrimitiveCount":5349,"VertexType":"VTX","VertexVersion":2}}}],"name":"Mesh.001"},{"primitives":[{"attributes":{"COLOR_0":33,"NORMAL":30,"POSITION":28,"TANGENT":29,"TEXCOORD_0":31,"TEXCOORD_1":32},"indices":34,"material":1,"mode":4,"extras":{"ASOBO_primitive":{"PrimitiveCount":7,"VertexType":"VTX","VertexVersion":2}}}],"name":"Mesh.007"},{"primitives":[{"attributes":{"COLOR_0":40,"NORMAL":37,"POSITION":35,"TANGENT":36,"TEXCOORD_0":38,"TEXCOORD_1":39},"indices":41,"material":1,"mode":4,"extras":{"ASOBO_primitive":{"PrimitiveCount":10,"VertexType":"VTX","VertexVersion":2}}}],"name":"Mesh.008"}],"nodes":[{"translation":[0.0,1.5958688259124756,0.0000152587890625],"mesh":0,"name":"low_forkliftexport.001"},{"translation":[232.10931396484376,37.049835205078128,0.2782745361328125],"rotation":[0.0,0.0,-0.7071066498756409,0.70710688829422],"mesh":1,"name":"low_forkliftexport"},{"translation":[412.3560485839844,30.396385192871099,0.16009521484375],"rotation":[0.0,0.0,-0.7071066498756409,0.70710688829422],"mesh":2,"name":"low_forkliftexport.003"},{"translation":[0.0,-0.024534307420253755,1.7000000476837159],"scale":[0.009999999776482582,0.009999999776482582,0.009999999776482582],"mesh":3,"name":"low_forkliftexport.002","children":[0,1,2]},{"translation":[0.0,-0.024534307420253755,1.7000000476837159],"scale":[0.009999999776482582,0.009999999776482582,0.009999999776482582],"mesh":4,"name":"low_forkliftexport.004"},{"translation":[0.0,-0.024534307420253755,1.6985719203948977],"scale":[0.009999999776482582,0.009999999776482582,0.009999999776482582],"mesh":5,"name":"low_forkliftexport.005"}],"scene":0,"scenes":[{"nodes":[3,4,5],"name":"Scene"}],"textures":[{"extensions":{"MSFT_texture_dds":{"source":0}}},{"extensions":{"MSFT_texture_dds":{"source":1}}},{"extensions":{"MSFT_texture_dds":{"source":2}}},{"extensions":{"MSFT_texture_dds":{"source":3}}},{"extensions":{"MSFT_texture_dds":{"source":4}}}],"samplers":[{"magFilter":9729,"minFilter":9987,"wrapS":10497,"wrapT":10497}],"extensionsUsed":["ASOBO_normal_map_convention","ASOBO_material_blend_gbuffer","MSFT_texture_dds","ASOBO_asset_optimized"],"buffers":[{"byteLength":937788,"uri":"Neoflycargo_forklift_01.bin"}],"images":[{"uri":"NEOFLY_CARGO_FORKLIFT_EMIS.PNG.DDS","name":"neofly_cargo_forklift_emis","extras":"ASOBO_image_converted_meta"},{"uri":"NEOFLY_CARGO_FORKLIFT_NORM.PNG.DDS","name":"neofly_cargo_forklift_norm","extras":"ASOBO_image_converted_meta"},{"uri":"NEOFLY_CARGO_FORKLIFT_COMP.PNG.DDS","name":"neofly_cargo_forklift_comp","extras":"ASOBO_image_converted_meta"},{"uri":"NEOFLY_CARGO_FORKLIFT_ALBD.PNG.DDS","name":"neofly_cargo_forklift_albd","extras":"ASOBO_image_converted_meta"},{"uri":"NEOFLY_STANDARD_ALBD.PNG.DDS","name":"neofly_standard_albd","extras":"ASOBO_image_converted_meta"}]}
