{"accessors":[{"bufferView":0,"componentType":5126,"count":101,"min":[0.0],"max":[4.166666666666667],"type":"SCALAR"},{"bufferView":1,"componentType":5126,"count":101,"type":"VEC3"},{"bufferView":2,"componentType":5126,"count":101,"type":"VEC4"},{"bufferView":3,"componentType":5126,"count":26572,"min":[-1.0008864402770997,-0.211037740111351,-1.8362983465194703],"max":[1.682605504989624,1.464867353439331,1.571792483329773],"type":"VEC3","name":"CWom0004-S_vertices#0_POSITION"},{"bufferView":3,"byteOffset":12,"componentType":5120,"count":26572,"type":"VEC4","name":"CWom0004-S_vertices#0_TANGENT"},{"bufferView":3,"byteOffset":16,"componentType":5120,"count":26572,"type":"VEC4","name":"CWom0004-S_vertices#0_NORMAL"},{"bufferView":3,"byteOffset":20,"componentType":5122,"count":26572,"type":"VEC2","name":"CWom0004-S_vertices#0_TEXCOORD_0"},{"bufferView":3,"byteOffset":24,"componentType":5122,"count":26572,"type":"VEC2","name":"CWom0004-S_vertices#0_TEXCOORD_1"},{"bufferView":3,"byteOffset":28,"componentType":5123,"count":26572,"type":"VEC4","name":"CWom0004-S_vertices#0_COLOR_0"},{"bufferView":4,"componentType":5123,"count":99558,"type":"SCALAR","name":"CWom0004-S_indices#4"}],"animations":[{"name":"Neoflysea2nla1a","channels":[{"sampler":0,"target":{"node":0,"path":"translation"}},{"sampler":1,"target":{"node":0,"path":"rotation"}}],"samplers":[{"input":0,"output":1,"interpolation":"LINEAR"},{"input":0,"output":2,"interpolation":"LINEAR"}]}],"asset":{"generator":"Extended Khronos glTF Blender I/O v1.0.0","version":"2.0","extensions":{"ASOBO_asset_optimized":{"BoundingBoxMax":[1.682605504989624,1.464867353439331,1.571792483329773],"BoundingBoxMin":[-1.0008864402770997,-0.211037740111351,-1.8362983465194703],"MajorVersion":4,"MinorVersion":2},"ASOBO_normal_map_convention":{"tangent_space_convention":"DirectX"}}},"bufferViews":[{"buffer":0,"byteLength":404},{"buffer":0,"byteLength":1212,"byteOffset":404},{"buffer":0,"byteLength":1616,"byteOffset":1616},{"buffer":0,"byteLength":956592,"byteStride":36,"byteOffset":3232,"target":34962,"name":"BufferViewVertexND"},{"buffer":0,"byteLength":199116,"byteOffset":959824,"target":34963,"name":"BufferViewIndex"}],"extensionsUsed":["ASOBO_normal_map_convention","MSFT_texture_dds","ASOBO_asset_optimized"],"extensionsRequired":["MSFT_texture_dds"],"materials":[{"name":"Material.013","pbrMetallicRoughness":{"metallicFactor":0.0,"roughnessFactor":0.5,"baseColorTexture":{"index":0}}},{"name":"Material.008","pbrMetallicRoughness":{"baseColorFactor":[0.03967957943677902,0.03967957943677902,0.03967957943677902,1.0],"metallicFactor":0.0,"roughnessFactor":0.5}},{"name":"Material.006","pbrMetallicRoughness":{"baseColorFactor":[0.04696175083518028,0.0137946093454957,0.0010618220549076796,1.0],"metallicFactor":0.0,"roughnessFactor":0.5}},{"name":"Material.007","pbrMetallicRoughness":{"baseColorFactor":[0.017387723550200464,0.00396591704338789,0.0,1.0],"metallicFactor":0.0,"roughnessFactor":0.5}},{"name":"Material.010","pbrMetallicRoughness":{"metallicFactor":0.0,"roughnessFactor":0.5,"baseColorTexture":{"index":1}}}],"meshes":[{"primitives":[{"attributes":{"COLOR_0":8,"NORMAL":5,"POSITION":3,"TANGENT":4,"TEXCOORD_0":6,"TEXCOORD_1":7},"indices":9,"material":0,"mode":4,"extras":{"ASOBO_primitive":{"PrimitiveCount":3000,"VertexType":"VTX","VertexVersion":2}}},{"attributes":{"COLOR_0":8,"NORMAL":5,"POSITION":3,"TANGENT":4,"TEXCOORD_0":6,"TEXCOORD_1":7},"indices":9,"material":1,"mode":4,"extras":{"ASOBO_primitive":{"PrimitiveCount":24,"StartIndex":9000,"VertexType":"VTX","VertexVersion":2}}},{"attributes":{"COLOR_0":8,"NORMAL":5,"POSITION":3,"TANGENT":4,"TEXCOORD_0":6,"TEXCOORD_1":7},"indices":9,"material":2,"mode":4,"extras":{"ASOBO_primitive":{"PrimitiveCount":120,"StartIndex":9072,"VertexType":"VTX","VertexVersion":2}}},{"attributes":{"COLOR_0":8,"NORMAL":5,"POSITION":3,"TANGENT":4,"TEXCOORD_0":6,"TEXCOORD_1":7},"indices":9,"material":3,"mode":4,"extras":{"ASOBO_primitive":{"PrimitiveCount":24,"StartIndex":9432,"VertexType":"VTX","VertexVersion":2}}},{"attributes":{"COLOR_0":8,"NORMAL":5,"POSITION":3,"TANGENT":4,"TEXCOORD_0":6,"TEXCOORD_1":7},"indices":9,"material":4,"mode":4,"extras":{"ASOBO_primitive":{"PrimitiveCount":30018,"StartIndex":9504,"VertexType":"VTX","VertexVersion":2}}}],"name":"CWom0004-S"}],"nodes":[{"translation":[2.8795523643493654,0.08744383603334427,5.711020469665527],"rotation":[-0.03902323544025421,0.0,0.0,0.9992383122444152],"scale":[1.0933668613433838,1.0933668613433838,1.0933668613433838],"mesh":0,"name":"CWom0004-S"}],"scene":0,"scenes":[{"nodes":[0],"name":"Scene"}],"textures":[{"extensions":{"MSFT_texture_dds":{"source":0}}},{"extensions":{"MSFT_texture_dds":{"source":1}}}],"buffers":[{"byteLength":1158940,"uri":"Neoflysea2.bin"}],"images":[{"uri":"CWOM0004.PNG.DDS","name":"CWOM0004","extras":"ASOBO_image_converted_meta"},{"uri":"HUMANO_02CASUAL_18_DIFFUSE03.JPG.DDS","name":"Humano_02Casual_18_Diffuse03","extras":"ASOBO_image_converted_meta"}]}
